<?xml version="1.0" encoding="UTF-8"?> <svg xmlns="http://www.w3.org/2000/svg" width="140" height="40" viewBox="0 0 140 40" fill="none"> <path d="M120.511 10.316C121.055 10.0777 121.646 9.96318 122.239 9.98059H139.073V6.38641H122.239C120.817 6.32623 119.41 6.70275 118.208 7.46541C117.219 8.08928 116.467 9.02595 116.072 10.1264C115.7 11.2246 115.707 12.4159 116.093 13.5092C116.545 14.8031 117.395 15.9208 118.521 16.7024L130.448 25.7498C130.964 26.0916 131.401 26.5389 131.731 27.0622C131.843 27.2268 131.92 27.4129 131.957 27.6086C131.993 27.8044 131.988 28.0056 131.943 28.1995C131.879 28.3862 131.774 28.556 131.635 28.6962C131.496 28.8363 131.327 28.9432 131.141 29.0087C130.596 29.224 130.013 29.3233 129.428 29.3003H110.48C110.876 28.801 111.218 28.2609 111.5 27.6891C112.034 26.6185 112.309 25.4372 112.302 24.2408V18.0293C112.314 16.7807 112.071 15.5427 111.588 14.3913C111.132 13.2992 110.454 12.3136 109.598 11.497C108.737 10.6849 107.734 10.0397 106.638 9.5942C105.498 9.12473 104.276 8.8868 103.043 8.8943H99.5368C98.2029 8.88515 96.8802 9.1378 95.6437 9.63794C94.4634 10.1082 93.3862 10.8041 92.4723 11.6866C91.5769 12.5578 90.8524 13.5889 90.3362 14.7267C89.8174 15.8845 89.5515 17.1396 89.5561 18.4084V29.3003H75.3106C74.4972 29.3084 73.6908 29.1497 72.9412 28.8338C72.2239 28.5384 71.568 28.1119 71.007 27.5761L71.0277 27.5391L84.9923 16.4911C86.0894 15.6798 86.9317 14.5719 87.4201 13.2979C87.8242 12.2451 87.8829 11.091 87.5877 10.0026C87.2742 8.94247 86.5948 8.02797 85.6703 7.42177C84.5397 6.69067 83.2099 6.32891 81.8647 6.3865H75.3106C73.9707 6.37472 72.6436 6.64811 71.4175 7.1885C70.2308 7.70575 69.1542 8.44572 68.2462 9.36834C67.3405 10.2869 66.6159 11.3677 66.1101 12.5543C65.5884 13.7856 65.323 15.1102 65.33 16.4474V22.914C65.3245 24.2369 65.5899 25.547 66.1101 26.7634C66.2655 27.1171 66.4394 27.4625 66.6311 27.798C65.6717 28.5803 64.5244 29.0982 63.3031 29.3004H58.8998C56.4502 29.3004 54.7588 28.7512 53.8256 27.6528C52.7831 26.5226 52.2654 24.5834 52.2654 21.8203V9.98059H65.0748V6.38641H52.2654V0H48.6713V6.38641H31.9251C30.5004 6.32732 29.0916 6.70369 27.8862 7.46541C26.9011 8.09363 26.1504 9.02881 25.7501 10.1264C25.3854 11.2258 25.3931 12.4146 25.772 13.5092C26.227 14.8035 27.0792 15.9211 28.207 16.7024L40.1269 25.7498C40.6427 26.0938 41.082 26.5406 41.4173 27.0622C41.5293 27.2268 41.606 27.4129 41.6424 27.6086C41.6788 27.8044 41.6741 28.0056 41.6287 28.1995C41.5648 28.3862 41.4595 28.556 41.3206 28.6962C41.1817 28.8363 41.0128 28.9432 40.8267 29.0087C40.2821 29.224 39.6986 29.3233 39.1135 29.3003H9.98081C9.16749 29.3077 8.36122 29.1489 7.61142 28.8337C6.89073 28.533 6.23106 28.1031 5.66488 27.5652L19.6626 16.491C20.7615 15.68 21.6063 14.5722 22.0976 13.2978C22.4981 12.2442 22.5568 11.0913 22.2653 10.0025C21.9461 8.94318 21.2649 8.02969 20.3406 7.42168C19.2108 6.68867 17.8804 6.32674 16.535 6.38641H9.98081C8.64107 6.37612 7.31432 6.64944 6.08774 7.18841C4.90101 7.70565 3.82446 8.44561 2.91636 9.36822C2.01298 10.2871 1.29078 11.3679 0.787557 12.5541C0.260147 13.7839 -0.00789923 15.1092 0.000177227 16.4473V22.9139C-0.00641898 24.2377 0.261691 25.5484 0.787557 26.7632C1.29246 27.9507 2.0144 29.0337 2.91636 29.9565C3.83771 30.8935 4.9376 31.6364 6.151 32.141C7.3644 32.6457 8.66667 32.9019 9.98081 32.8945H39.1135C40.5368 32.9696 41.9483 32.6002 43.1524 31.8374C44.0833 31.2266 44.7657 30.3037 45.0771 29.2347C45.3512 28.1358 45.2538 26.9771 44.8001 25.9394C44.2542 24.6735 43.3685 23.5834 42.2411 22.7899L30.3649 13.8227C29.8421 13.4741 29.4298 12.9834 29.1766 12.4083C29.0927 12.2144 29.0512 12.0048 29.055 11.7936C29.0588 11.5823 29.1077 11.3743 29.1985 11.1835C29.4256 10.7941 29.7738 10.4894 30.19 10.316C30.7366 10.0778 31.3291 9.96323 31.9251 9.98059H48.6713V21.8203C48.6713 25.677 49.4951 28.4886 51.1427 30.2554C52.7904 32.0124 55.3761 32.8921 58.8998 32.8945H63.2962V32.8951L63.3035 32.8945H63.3502V32.8911C65.4039 32.798 67.3432 31.9191 68.7671 30.4362C69.5571 31.1311 70.4515 31.6974 71.4175 32.1145C72.6484 32.6375 73.9733 32.9029 75.3106 32.8945H89.5561V39.5069H93.1503V33.1205H101.986C102.779 33.124 103.571 33.0483 104.348 32.8945H129.428C130.851 32.9696 132.262 32.6002 133.467 31.8374C134.397 31.2266 135.08 30.3037 135.391 29.2347C135.669 28.1361 135.571 26.9762 135.114 25.9394C134.574 24.6723 133.69 23.5815 132.563 22.7899L120.679 13.8227C120.16 13.4698 119.749 12.9803 119.491 12.4083C119.407 12.2144 119.365 12.0048 119.369 11.7936C119.373 11.5823 119.422 11.3743 119.513 11.1835C119.741 10.7922 120.092 10.4872 120.511 10.316ZM3.68188 23.5482C3.62247 23.2579 3.59316 22.9623 3.5944 22.666V16.4473C3.58669 15.5753 3.76047 14.7113 4.1047 13.9102C4.42297 13.1494 4.88038 12.4546 5.45346 11.8615C6.0312 11.2794 6.71395 10.8118 7.46563 10.4836C8.26022 10.1439 9.11665 9.97261 9.9808 9.98064H16.535C17.0927 9.94382 17.6494 10.0678 18.1388 10.3379C18.3071 10.4339 18.4529 10.5649 18.5661 10.7222C18.6793 10.8794 18.7574 11.0591 18.795 11.2492C18.8576 11.6651 18.7752 12.0898 18.5617 12.4521C18.2909 12.9414 17.9179 13.3666 17.4681 13.6988L3.93704 24.2699C3.81275 24.045 3.72654 23.8012 3.68188 23.5482ZM68.9242 16.4473C68.9176 15.5762 69.0887 14.7129 69.4272 13.9102C69.7507 13.1504 70.2102 12.4562 70.7832 11.8615C71.3582 11.2762 72.0417 10.8082 72.7953 10.4836C73.59 10.1439 74.4464 9.97261 75.3105 9.98064H81.8647C82.4224 9.94476 82.9788 10.0687 83.4686 10.3379C83.635 10.4362 83.7792 10.5679 83.8922 10.7248C84.0051 10.8816 84.0843 11.0602 84.1247 11.2492C84.1873 11.6651 84.1049 12.0898 83.8914 12.4521C83.62 12.9432 83.2442 13.3688 82.7905 13.6988L69.2595 24.2699C69.1384 24.0436 69.0524 23.8003 69.0043 23.5482C68.951 23.2571 68.9242 22.9619 68.9242 22.666L68.9242 16.4473ZM93.1503 29.5263V18.4084C93.1441 17.6118 93.3186 16.8241 93.6607 16.1046C94.3275 14.6568 95.5335 13.5266 97.0216 12.9551C97.8217 12.6377 98.676 12.4792 99.5368 12.4885H103.043C103.888 12.4696 104.727 12.6363 105.5 12.977C106.171 13.2744 106.774 13.7061 107.272 14.2455C107.746 14.7579 108.113 15.3603 108.351 16.0171C108.587 16.6617 108.708 17.3428 108.708 18.0293V24.2408C108.713 24.9598 108.532 25.6678 108.183 26.2966C107.82 26.9432 107.332 27.5109 106.747 27.9662C106.106 28.4659 105.383 28.8507 104.611 29.1035C103.766 29.3912 102.879 29.5342 101.986 29.5264L93.1503 29.5263Z" fill="#494949"></path> <path d="M68.2404 29.9487C68.4081 30.1237 68.5831 30.2841 68.7653 30.4445C67.5484 31.6757 65.9792 32.4985 64.2744 32.7993C63.9749 32.8423 63.673 32.8666 63.3704 32.8722V32.8795H58.9159C58.4202 32.8795 57.939 32.8649 57.4797 32.8212V29.2124C57.7057 29.2416 57.9317 29.2562 58.1723 29.2707C58.4129 29.278 58.6608 29.2853 58.9159 29.2853H63.3194C64.5314 29.0799 65.6708 28.5679 66.6292 27.7981C67.0658 28.5851 67.6078 29.3087 68.2404 29.9487Z" fill="url(#paint0_linear_8_60)"></path> <path d="M116.896 29.2996V32.8938H104.35C106.177 32.5392 107.883 31.7236 109.307 30.5244C109.733 30.1508 110.126 29.741 110.481 29.2996H116.896Z" fill="url(#paint1_linear_8_60)"></path> <defs> <linearGradient id="paint0_linear_8_60" x1="57.4797" y1="30.3388" x2="68.7653" y2="30.3388" gradientUnits="userSpaceOnUse"> <stop stop-color="#1D1D1B" stop-opacity="0"></stop> <stop offset="1" stop-opacity="0.4"></stop> </linearGradient> <linearGradient id="paint1_linear_8_60" x1="104.35" y1="31.0967" x2="116.896" y2="31.0967" gradientUnits="userSpaceOnUse"> <stop stop-opacity="0.7"></stop> <stop offset="1" stop-color="#1D1D1B" stop-opacity="0"></stop> </linearGradient> </defs> </svg> 