<?xml version="1.0" encoding="UTF-8"?> <svg xmlns="http://www.w3.org/2000/svg" width="80" height="80" viewBox="0 0 80 80" fill="none"> <g clip-path="url(#clip0_214_369)"> <path d="M0.0249049 37.3663C1.84654 6.3466 38.483 -10.9152 63.3911 7.66083C63.2497 6.66268 62.9294 5.87455 62.6944 4.91799C62.1164 3.14003 64.645 2.39766 65.0879 4.26296C65.6889 6.34245 66.2795 8.44688 66.8784 10.5368C67.2361 11.8115 66.7931 12.4374 65.4955 12.4936C63.1915 12.5684 60.8811 12.7244 58.5771 12.7452C57.0819 12.6308 57.0882 10.3184 58.6207 10.281C59.8289 10.2061 61.0392 10.1666 62.4574 10.1042C30.8013 -14.1322 -12.3023 23.1572 7.1929 57.9387C7.72317 58.6624 8.02469 59.8435 7.11804 60.3135C6.97278 60.4023 6.81039 60.4594 6.64152 60.481C6.47264 60.5027 6.3011 60.4884 6.13814 60.4391C5.97517 60.3898 5.82446 60.3067 5.69588 60.1951C5.56731 60.0835 5.46377 59.9459 5.39206 59.7915C4.43134 57.8701 3.43527 55.959 2.63259 53.969C0.476156 48.7141 -0.141454 43.008 0.0249049 37.3663Z" fill="url(#paint0_linear_214_369)"></path> <path d="M58.729 49.0842C58.7394 52.1286 56.818 54.0043 53.8339 54.0646C53.6779 56.56 52.3658 58.1092 49.8309 58.6249C50.201 63.1998 45.2061 65.1462 41.8997 62.3888C39.4501 65.1379 35.6612 64.5411 34.2368 61.6132C31.837 61.5487 29.508 61.6402 28.3664 59.1427C25.2139 60.7564 21.3294 58.1675 21.8222 54.5679C18.5824 54.4368 16.1161 51.1034 17.8047 48.1963C18.7488 46.5327 18.7446 45.0625 18.2642 43.374C18.0396 42.5858 17.7048 42.0681 16.9188 41.7395C14.7208 40.8204 12.5519 39.8284 10.3809 38.8532C9.22885 38.3374 9.02714 37.776 9.56573 36.6302C11.9987 31.4439 14.4331 26.2612 16.8689 21.0819C17.9086 17.5758 25.9542 25.2907 29.3645 23.8912C32.7915 23.1593 36.4119 22.1944 39.6663 24.0576C39.92 24.1824 40.3463 24.2344 40.5688 24.1054C43.896 22.1715 47.3084 22.1673 50.8061 23.5918C52.6943 24.1969 54.7572 25.6588 56.7077 24.5089C58.3609 23.5918 60.0349 22.7101 61.6985 21.8263C62.7528 21.2669 63.4183 21.504 63.8445 22.5999C65.9947 28.1272 68.1387 33.6558 70.2764 39.1859C70.6653 40.1924 70.4365 40.7309 69.4446 41.1635C67.4254 42.0369 65.3938 42.8853 63.3767 43.7691C63.1687 43.8627 62.8942 44.1163 62.8755 44.316C62.5968 47.2397 61.5987 48.4126 58.729 49.0842ZM38.9239 51.825C42.5506 51.0369 45.4328 54.6531 48.6227 55.9424C49.8974 56.7264 51.8209 55.1106 51.2033 53.734C49.9244 51.4798 45.8237 50.2633 43.6361 48.7183C41.9725 47.8865 43.2597 45.6177 44.838 46.5493C47.6308 48.0819 50.3882 49.6811 53.1892 51.2012C54.4889 51.9103 55.8926 51.2989 56.1629 49.941C56.3376 49.0988 55.9279 48.3024 55.0026 47.7742C52.8669 46.5535 50.7188 45.3516 48.5811 44.1309C46.853 43.2492 48.1652 40.9285 49.8288 41.9766C52.3637 43.3864 54.8695 44.8525 57.4127 46.2457C59.9933 47.612 61.6112 43.871 59.0763 42.7293C55.6493 40.7912 52.214 38.8615 48.8182 36.8714C46.93 35.6445 44.8671 36.2954 42.9457 37.0149C37.7948 39.267 31.5854 41.1926 27.9443 35.4761C27.3703 34.6568 27.5013 33.9913 28.3601 33.4465C31.8713 31.4374 35.0689 28.9243 37.8509 25.9874C35.3556 24.8333 32.8602 25.8148 30.3481 26.2515C26.1185 27.4721 22.548 24.2905 18.7446 22.9617L12.1776 36.9442C14.2903 37.882 16.2908 38.797 18.3141 39.6475C19.7698 40.2069 20.377 41.5191 20.7451 42.9352C24.2989 40.8973 26.5198 41.7 28.1314 45.3703C30.685 45.7633 32.0616 46.6492 33.5381 48.7328C35.7195 48.3148 37.7262 49.0655 38.9239 51.8167V51.825ZM30.8139 34.9812C36.5284 40.8204 43.9397 30.3668 50.2135 34.7878C53.5719 36.7945 57.0924 38.5433 60.3552 40.6894C62.942 42.4486 65.138 39.8763 67.6334 39.2337C65.7182 34.297 63.8404 29.4497 61.9335 24.5359C51.6837 31.9202 50.1532 21.5747 41.5878 26.4178C37.8572 29.0858 34.7525 32.5793 30.816 34.977L30.8139 34.9812ZM30.8867 50.3112C31.0281 48.1027 28.252 47.3125 27.2476 49.2049C26.5302 51.2698 22.5958 55.2541 25.295 56.899C26.2931 57.4521 27.4202 57.0757 28.0357 55.9466C28.9549 54.1 30.2234 52.2264 30.8888 50.307L30.8867 50.3112ZM36.5242 53.3056C36.6303 51.1055 33.8957 50.3611 32.8976 52.1661C32.1552 54.1062 28.9466 57.2691 31.4295 58.9077C34.0746 60.3842 35.6196 55.0524 36.5263 53.3015L36.5242 53.3056ZM25.6984 46.487C25.7566 44.3201 23.0699 43.5549 22.051 45.389C21.2982 47.2397 18.3474 50.2134 20.8033 51.7709C23.3382 53.2079 24.877 48.1859 25.7005 46.4828L25.6984 46.487ZM38.3563 61.8086C40.4649 60.9581 40.9681 58.5459 42.0224 56.7368C42.9353 54.7259 39.762 53.0852 38.6432 55.0087C37.564 57.0466 34.3803 60.9373 38.3583 61.8045L38.3563 61.8086ZM43.0975 60.2386C47.1296 63.0938 49.3131 58.338 44.7777 56.716C44.21 57.9096 43.6797 59.0221 43.0996 60.2345L43.0975 60.2386Z" fill="url(#paint1_linear_214_369)"></path> <path d="M16.2761 72.0044C16.5672 73.0441 16.8042 73.8946 17.033 74.7389C17.6568 76.5626 15.1011 77.3445 14.6541 75.4314C14.0302 73.3186 13.4292 71.2059 12.8366 69.0848C12.5101 67.9203 12.9863 67.2736 14.1882 67.2236C16.3904 67.1301 18.5926 67.0386 20.7948 66.9637C22.6663 66.7558 22.8285 69.3842 21.0339 69.4404C19.8549 69.5069 18.6758 69.5485 17.4988 69.6026L17.4031 69.8251C49.3732 93.5853 92.0214 56.4332 72.4597 21.6142C71.0955 19.5139 73.5868 18.1373 74.639 20.4102C95.7146 56.5101 50.1114 97.4386 16.2761 72.0044Z" fill="url(#paint2_linear_214_369)"></path> </g> <defs> <linearGradient id="paint0_linear_214_369" x1="-0.000732422" y1="29.807" x2="66.9976" y2="29.807" gradientUnits="userSpaceOnUse"> <stop stop-color="#002EFE"></stop> <stop offset="0.515625" stop-color="#049BE4"></stop> <stop offset="1" stop-color="#00EEC5"></stop> </linearGradient> <linearGradient id="paint1_linear_214_369" x1="9.28125" y1="41.8411" x2="70.4557" y2="41.8411" gradientUnits="userSpaceOnUse"> <stop stop-color="#002EFE"></stop> <stop offset="0.515625" stop-color="#049BE4"></stop> <stop offset="1" stop-color="#00EEC5"></stop> </linearGradient> <linearGradient id="paint2_linear_214_369" x1="12.7363" y1="49.1365" x2="79.9983" y2="49.1365" gradientUnits="userSpaceOnUse"> <stop stop-color="#002EFE"></stop> <stop offset="0.515625" stop-color="#049BE4"></stop> <stop offset="1" stop-color="#00EEC5"></stop> </linearGradient> <clipPath id="clip0_214_369"> <rect width="80" height="79.9147" fill="white"></rect> </clipPath> </defs> </svg> 