<?xml version="1.0" encoding="UTF-8"?> <svg xmlns="http://www.w3.org/2000/svg" width="80" height="81" viewBox="0 0 80 81" fill="none"> <g clip-path="url(#clip0_214_354)"> <path d="M37.694 80.0289L37.5598 79.9959C37.3989 79.9483 37.2337 79.9165 37.0666 79.9009C30.7145 79.4511 24.8432 77.5999 19.6158 74.397C9.23528 68.0346 2.84395 58.7829 0.629582 46.8938C0.437656 45.862 0.309713 44.8136 0.18589 43.7983C0.128106 43.3154 0.0703229 42.8386 0.00634766 42.3537V37.6711C0.0703229 37.1944 0.128106 36.7156 0.18589 36.2265C0.309713 35.1946 0.437656 34.1442 0.629582 33.1309C2.8584 21.213 9.25385 11.9572 19.6385 5.62363C25.6601 1.91922 32.5971 -0.0285803 39.6669 4.98798e-06C40.3376 4.98798e-06 41.0227 0.0165127 41.7017 0.0495322C52.9758 0.598481 62.5122 5.16755 70.0469 13.6288C75.7634 20.047 79.0488 27.5692 79.8144 35.985C80.9619 48.615 76.9912 59.5671 68.0141 68.5381C62.1407 74.4053 54.8641 78.0993 46.3801 79.5171C45.4721 79.6698 44.5372 79.7771 43.6333 79.8803C43.2062 79.9278 42.7852 79.9773 42.3662 80.0289H37.694ZM40.0012 2.67458C19.4486 2.67458 2.70568 19.4175 2.67885 39.9948C2.65202 60.5722 19.395 77.313 39.9991 77.3481H40.0672C60.5992 77.3481 77.3256 60.6093 77.3545 40.0279C77.3316 30.1339 73.3934 20.6512 66.4004 13.652C59.4073 6.65281 49.9281 2.70619 40.0342 2.67458H40.0012Z" fill="url(#paint0_linear_214_354)"></path> <path d="M39.9845 73.0101C39.4872 73.0101 39.0311 72.6696 38.7298 72.0732C36.4597 67.5661 34.1566 62.964 31.8906 58.397C31.6099 57.8315 31.5914 57.2991 31.8349 56.8987C32.0784 56.4983 32.5943 56.2507 33.2403 56.2404C34.0142 56.2259 34.7922 56.2218 35.5434 56.2197H36.7094C36.791 56.2187 36.8712 56.1975 36.9426 56.1578L37.0313 56.1166C37.0912 56.0907 37.1441 56.0511 37.1857 56.0009C37.2274 55.9506 37.2565 55.8913 37.2707 55.8276L39.8917 44.0335C39.9063 43.9676 39.9046 43.899 39.8866 43.8339C39.8686 43.7687 39.8349 43.709 39.7885 43.66C39.7499 43.6195 39.7034 43.5872 39.652 43.5652C39.6005 43.5433 39.5452 43.5319 39.4892 43.532H39.4232L37.6463 43.8271L34.0513 44.4153L30.0436 45.0881C27.2142 45.5648 24.2879 46.0559 21.376 46.5327C21.1775 46.566 20.9767 46.5832 20.7754 46.5843C20.2389 46.5843 19.8571 46.4398 19.6363 46.1571C19.3597 45.798 19.3226 45.1954 19.5289 44.4112C22.3439 33.6895 25.1601 22.9678 27.9778 12.2461C28.3782 10.7272 28.5969 10.5518 30.1654 10.5518H43.0326C43.8437 10.5518 44.3843 10.7354 44.6423 11.0925C44.9003 11.4495 44.9023 12.0356 44.6423 12.8218L38.9403 29.9507C38.8866 30.1117 38.8371 30.2747 38.7793 30.4666L38.6802 30.7968C38.6606 30.8618 38.6573 30.9307 38.6706 30.9973C38.6839 31.0639 38.7134 31.1262 38.7566 31.1786C38.7952 31.2256 38.8437 31.2634 38.8987 31.2895C38.9536 31.3155 39.0136 31.3291 39.0744 31.3293H39.1198L40.4777 31.1869C41.4023 31.0919 42.2979 30.9991 43.1957 30.8979C44.3844 30.7604 45.5724 30.6228 46.7597 30.4852C48.5345 30.2788 50.2928 30.0828 52.0531 29.8908C52.1233 29.8908 52.1914 29.8908 52.2595 29.8908C52.4661 29.8834 52.6716 29.9226 52.861 30.0055C53.0504 30.0884 53.2186 30.2128 53.3533 30.3696C53.4892 30.5473 53.5835 30.7532 53.6292 30.9721C53.6749 31.1911 53.6709 31.4175 53.6174 31.6347C52.5567 36.9591 51.4918 42.2835 50.4228 47.6078L49.0091 54.6699C48.9658 54.8948 48.9245 55.1198 48.8812 55.3695L48.811 55.7575C48.8007 55.8168 48.8035 55.8776 48.8192 55.9357C48.8349 55.9938 48.8631 56.0478 48.9018 56.0939C48.9404 56.1402 48.9887 56.1775 49.0432 56.2032C49.0978 56.2288 49.1573 56.2422 49.2176 56.2424H52.0428C52.8085 56.2424 53.2666 56.488 53.5287 57.0411C53.7908 57.5942 53.6814 58.0915 53.1572 58.6921L50.074 62.2148L49.2485 63.158C46.5967 66.1896 43.854 69.3244 41.1423 72.4075C41.0031 72.5844 40.8279 72.7296 40.6283 72.8336C40.4287 72.9375 40.2092 72.9977 39.9845 73.0101ZM35.8323 58.9294C35.7621 58.9294 35.693 58.9474 35.6316 58.9816C35.5702 59.0158 35.5186 59.0651 35.4816 59.1248C35.4446 59.1845 35.4235 59.2527 35.4202 59.3229C35.417 59.3931 35.4316 59.4629 35.4629 59.5258L40.0464 68.7073C40.0766 68.7678 40.1212 68.8199 40.1762 68.8591C40.2313 68.8984 40.2951 68.9235 40.3622 68.9322H40.4158C40.4746 68.9319 40.5326 68.919 40.586 68.8945C40.6394 68.8699 40.6869 68.8342 40.7254 68.7898L48.7202 59.6558C48.7716 59.5976 48.8055 59.526 48.818 59.4494C48.8305 59.3727 48.8211 59.2941 48.7909 59.2225C48.7607 59.151 48.711 59.0894 48.6474 59.0448C48.5837 59.0003 48.5089 58.9746 48.4313 58.9707L48.066 58.95C47.8597 58.9377 47.709 58.9273 47.5542 58.9253C46.7556 58.915 46.2396 58.7519 45.9776 58.4279C45.7155 58.1039 45.668 57.5818 45.8207 56.8182C46.4041 53.896 46.9902 50.9745 47.579 48.0536L47.6595 47.6574C48.1217 45.3515 48.5847 43.0464 49.0484 40.7419C49.3682 39.1446 49.684 37.5452 50.0039 35.9293L50.5157 33.3496C50.5277 33.2891 50.526 33.2267 50.5108 33.1669C50.4955 33.1071 50.467 33.0515 50.4274 33.0042C50.3878 32.9569 50.3381 32.919 50.2819 32.8935C50.2258 32.8679 50.1646 32.8552 50.1029 32.8564L49.847 32.8688C49.7026 32.8688 49.5787 32.8812 49.4549 32.8936L45.5483 33.3269H45.4926C42.7561 33.6303 39.9205 33.946 37.1448 34.237C36.9818 34.2535 36.827 34.2639 36.6846 34.2639C36.0511 34.2639 35.6156 34.105 35.3907 33.7933C35.1265 33.4239 35.1265 32.8028 35.3907 31.9958L37.5658 25.4786C38.5991 22.383 39.6309 19.2971 40.6614 16.2208C40.8389 15.6842 41.0143 15.1456 41.1938 14.5822L41.4601 13.7567C41.4803 13.6948 41.4855 13.6289 41.4754 13.5646C41.4653 13.5002 41.44 13.4392 41.4018 13.3865C41.3635 13.3337 41.3134 13.2908 41.2553 13.2611C41.1973 13.2315 41.1331 13.2161 41.068 13.216C40.2033 13.216 39.3448 13.216 38.4924 13.216H35.983C34.2907 13.216 32.9844 13.216 31.7482 13.183H31.6842C30.6792 13.183 30.3428 13.6865 30.1468 14.4419C28.6423 20.2203 27.0945 26.1122 25.6066 31.7998L24.0155 37.8444C23.7162 38.9815 23.4211 40.1145 23.1198 41.2826L22.7071 42.9191C22.6907 42.9825 22.6897 43.0489 22.704 43.1127C22.7184 43.1766 22.7477 43.2361 22.7896 43.2864C22.8284 43.333 22.877 43.3705 22.9319 43.3962C22.9869 43.4219 23.0468 43.4351 23.1074 43.435H23.1384L23.3902 43.4185H23.4232C23.5814 43.4126 23.7391 43.3982 23.8958 43.3752C29.6742 42.4121 35.4526 41.4442 41.231 40.4715C41.3776 40.4468 41.526 40.4337 41.6747 40.4323C41.8882 40.418 42.1021 40.4526 42.3002 40.5334C42.4983 40.6143 42.6754 40.7392 42.818 40.8987C43.0842 41.233 43.1606 41.7366 43.0244 42.3165C41.9739 47.0981 40.8616 52.051 39.644 57.4889C39.386 58.6302 39.0249 58.9129 37.8444 58.9335H37.1345L35.8323 58.9294Z" fill="url(#paint1_linear_214_354)"></path> </g> <defs> <linearGradient id="paint0_linear_214_354" x1="0.00634766" y1="39.4344" x2="80.0075" y2="39.4344" gradientUnits="userSpaceOnUse"> <stop stop-color="#002EFE"></stop> <stop offset="0.515625" stop-color="#049BE4"></stop> <stop offset="1" stop-color="#00EEC5"></stop> </linearGradient> <linearGradient id="paint1_linear_214_354" x1="19.3975" y1="41.3284" x2="53.6655" y2="41.3284" gradientUnits="userSpaceOnUse"> <stop stop-color="#002EFE"></stop> <stop offset="0.515625" stop-color="#049BE4"></stop> <stop offset="1" stop-color="#00EEC5"></stop> </linearGradient> <clipPath id="clip0_214_354"> <rect width="80" height="80.0289" fill="white"></rect> </clipPath> </defs> </svg> 