<?xml version="1.0" encoding="UTF-8"?> <svg xmlns="http://www.w3.org/2000/svg" width="80" height="81" viewBox="0 0 80 81" fill="none"> <g clip-path="url(#clip0_214_349)"> <path d="M40.0161 80.1238C39.6021 80.1024 39.2045 79.9551 38.8765 79.7015L38.8358 79.6761C38.1355 79.2996 37.1401 78.5807 36.0752 77.821C33.8571 76.2287 31.3475 74.4295 29.8247 74.4295H29.7518C27.8271 74.5651 25.8804 74.672 23.9981 74.7686H23.9591C22.9552 74.8246 21.9649 74.8772 20.9746 74.9382H20.8288C20.1335 74.9382 19.6655 74.6194 19.3026 73.9038C18.6243 72.5472 18.0935 71.4552 17.6255 70.4852L17.617 70.4665C15.0107 65.0741 15.0107 65.0741 9.46561 62.3982L9.44865 62.3897C8.53634 61.9505 7.50364 61.452 6.27761 60.8415C5.43992 60.4311 5.12281 59.8936 5.18216 58.9898C5.36869 56.09 5.53149 53.0835 5.66206 50.0532C5.67498 49.5294 5.53344 49.0133 5.25508 48.5694C3.55934 45.919 1.96196 43.4941 0.390005 41.1573C-0.118717 40.3909 -0.128892 39.7702 0.390005 39.0139C2.04674 36.5704 3.67635 34.0963 5.23304 31.6798C5.53715 31.194 5.69273 30.63 5.68071 30.057C5.57557 27.527 5.43652 24.5238 5.20251 21.4325C5.11942 20.3302 5.48062 19.713 6.49467 19.228C7.50873 18.743 8.35999 18.3293 9.11798 17.963L9.14342 17.9511C15.0378 15.1311 15.0378 15.1311 17.5187 9.95739C17.9816 8.99251 18.5582 7.79023 19.2823 6.35394C19.6672 5.5722 20.1759 5.23814 20.978 5.23814C21.0526 5.23814 21.1289 5.23814 21.2069 5.23814C23.8133 5.41789 26.5943 5.57729 30.2215 5.74686H30.2961C30.7186 5.73276 31.1291 5.60315 31.4831 5.3721C32.7278 4.57002 33.9657 3.75098 35.1629 2.95906L35.1798 2.94719C36.6585 1.96875 38.1881 0.958089 39.7092 -0.00848389H40.4197C41.566 0.669813 42.7004 1.4719 43.7976 2.24177C45.6188 3.52035 47.5011 4.84134 49.5275 5.72482C49.5808 5.74862 49.6387 5.76076 49.6971 5.76043C52.473 5.63155 55.449 5.47215 58.8032 5.27375C58.9473 5.27375 59.0728 5.26188 59.1881 5.26188C60.0462 5.26188 60.3328 5.46028 60.7991 6.37937C61.4384 7.65457 61.9607 8.72967 62.3795 9.60128C65.0639 15.1209 65.0639 15.1209 70.302 17.6476C71.2805 18.119 72.5065 18.7057 73.936 19.4298C74.6397 19.7808 74.9348 20.259 74.8924 20.9797C74.85 21.7004 74.8076 22.4448 74.7635 23.1842C74.6329 25.4073 74.4973 27.7067 74.3938 29.9909C74.3693 30.5624 74.5119 31.1287 74.8042 31.6205C76.1184 33.6825 77.4767 35.7496 78.7909 37.7489C79.1968 38.3628 79.6003 38.9772 80.0017 39.5922V40.7504C78.74 42.4563 77.5751 44.269 76.4406 46.0207C75.9115 46.8449 75.3621 47.6978 74.8144 48.5236C74.4988 49.0321 74.3374 49.6211 74.3498 50.2194C74.4786 53.404 74.6346 56.2494 74.8263 58.9202C74.8958 59.8851 74.56 60.4549 73.6715 60.889C72.3251 61.5673 71.2262 62.0879 70.2579 62.5542C65.0011 65.0809 65.0011 65.0809 62.6695 69.9392C62.171 70.977 61.5571 72.2572 60.7516 73.8394C60.3735 74.6058 59.88 74.9314 59.1 74.9314C59.0304 74.9314 58.9609 74.9314 58.888 74.9314C56.0324 74.7398 53.058 74.5702 49.7954 74.4142C49.7378 74.4112 49.6801 74.4199 49.6259 74.4397C47.6486 75.1739 45.8579 76.4525 44.1266 77.6887C43.16 78.3789 42.1629 79.0911 41.1624 79.6846C40.8334 79.9434 40.4338 80.0965 40.0161 80.1238V80.1238ZM30.6115 71.8367C32.0071 71.8367 34.3286 73.5053 36.377 74.9772C37.447 75.7471 38.4577 76.4728 39.2598 76.9053C39.4831 77.0708 39.7518 77.1637 40.0296 77.1715C40.3147 77.1615 40.5899 77.0644 40.8182 76.8934C43.2702 75.2417 45.4832 73.7597 47.7419 72.3386C48.3269 72.0097 49.0323 71.8537 49.9565 71.8537C50.5076 71.8537 51.0859 71.9079 51.6523 71.9605C52.2186 72.013 52.8054 72.069 53.3701 72.069H53.387C53.7618 72.0927 54.1637 72.1131 54.5639 72.1334C55.5152 72.1826 56.497 72.2352 57.4466 72.3217C57.5396 72.3309 57.633 72.3354 57.7264 72.3352C58.4437 72.3352 58.9134 72.0147 59.2526 71.2958C60.4396 68.8352 61.6487 66.429 62.8713 64.1482C63.9311 62.7306 66.1831 61.7131 68.3604 60.7313C69.4017 60.2871 70.4174 59.7849 71.4026 59.2272C72.0639 58.9067 72.3183 58.459 72.2674 57.701C72.1657 56.1952 72.0809 54.6639 71.9995 53.1835V53.153C71.9418 52.0915 71.8706 50.779 71.7892 49.4919C71.7872 49.4627 71.7826 49.4338 71.7756 49.4054C71.5348 48.5321 73.1916 46.231 74.5227 44.3809C76.5203 41.6067 77.5327 40.1162 76.8069 39.2937C76.2066 38.4068 75.6691 37.6251 75.1925 36.9349L75.1739 36.9078C71.5755 31.6917 71.5755 31.6917 72.0622 25.314V25.2733C72.1249 24.4594 72.1945 23.5538 72.264 22.5279C72.3149 21.7513 72.0605 21.3002 71.3873 20.9695C70.6734 20.5253 69.5796 20.0267 68.4214 19.4993C66.0474 18.4225 63.3783 17.2033 62.7831 15.9841C62.2049 14.8089 61.6063 13.627 61.028 12.4823C60.404 11.2512 59.7596 9.97774 59.1373 8.70932C58.8507 8.12599 58.459 7.86145 57.8604 7.86145H57.7196C57.6196 7.86145 57.506 7.86145 57.3805 7.86145C56.5156 7.86145 55.4168 7.96828 54.2518 8.0819C52.9292 8.21078 51.5607 8.34304 50.3516 8.34304C49.0391 8.34304 48.1573 8.18703 47.6588 7.86315C46.5481 7.11533 45.4068 6.36242 44.3012 5.63325L44.2741 5.6146C43.2176 4.91934 42.0205 4.13082 40.8826 3.36265C40.6292 3.16802 40.3218 3.05665 40.0025 3.04385C39.6956 3.05343 39.3993 3.15834 39.1546 3.344C38.2423 3.96294 37.4589 4.50897 36.7552 4.99226C33.0025 7.59692 31.9884 8.29895 29.1905 8.29895C28.0526 8.29895 26.6112 8.18364 24.612 8.02255L22.6907 7.86993C22.5923 7.86993 22.5025 7.85976 22.416 7.85976C21.6275 7.85976 21.1374 8.18534 20.7745 8.94673C20.2753 9.84135 19.8225 10.7611 19.4179 11.7023C18.3767 13.9882 17.0829 16.8302 15.7789 17.4C14.5918 17.9766 13.4048 18.5751 12.2636 19.1534L12.2415 19.1636C11.1037 19.7401 9.92685 20.337 8.76526 20.9C8.0327 21.2544 7.74782 21.7564 7.80039 22.5771C7.86313 23.4351 7.92418 24.2084 7.96996 24.9087V24.941C8.49225 31.6341 8.49225 31.6341 4.91763 36.8112C4.42756 37.52 3.87814 38.317 3.26089 39.2276C2.84035 39.8533 2.83526 40.3536 3.24733 40.9589C3.84084 41.8305 4.43435 42.731 4.99903 43.6026C5.79264 44.8167 6.61337 46.0716 7.46294 47.2756C8.09206 48.1658 8.32607 49.1087 8.22602 50.3279C8.10054 51.8456 8.02254 53.3802 7.94623 54.8759V54.9369C7.89705 55.8865 7.84788 56.8701 7.77665 57.835C7.73426 58.4946 7.97675 58.9033 8.58891 59.2034C10.0201 59.919 11.2105 60.4888 12.1686 60.9449C16.9065 63.2105 16.9065 63.2105 19.2636 68.1196V68.1366C19.7096 69.0659 20.2149 70.1189 20.8593 71.4145C21.1713 72.0538 21.58 72.3268 22.2261 72.3268C22.2837 72.3268 22.3431 72.3268 22.4058 72.3268C23.815 72.2301 25.236 72.1572 26.6129 72.0758C27.8932 72.0046 29.2193 71.9317 30.5386 71.8435L30.6115 71.8367Z" fill="url(#paint0_linear_214_349)"></path> <path d="M40.0636 64.4144C33.5875 64.4144 27.5422 62.249 23.0383 58.3098C17.9765 53.8873 15.2735 47.5774 15.2209 40.0585C15.5974 23.3164 28.3341 15.6856 40.011 15.6856C46.4548 15.6856 52.4815 17.8697 56.9769 21.8344C62.0251 26.2891 64.74 32.6447 64.8248 40.2179C64.5959 56.8396 51.8286 64.4144 40.0636 64.4144ZM40.0229 18.1495C29.5228 18.1495 18.0817 25.0037 17.7713 40.0551C18.0172 55.1642 29.4889 62.0438 40.0449 62.0438C50.5449 62.0438 61.9946 55.1913 62.3168 40.1399C62.0726 25.0291 50.589 18.1495 40.0229 18.1495V18.1495Z" fill="url(#paint1_linear_214_349)"></path> <path d="M36.8417 47.6707C36.4704 47.6707 36.0685 47.4265 35.536 46.8822C33.0433 44.3284 31.139 42.3715 29.3618 40.5384C28.9074 40.145 28.6208 39.6312 28.6072 39.1818C28.6025 39.0313 28.6303 38.8816 28.6889 38.7428C28.7474 38.6041 28.8352 38.4796 28.9464 38.378C29.0451 38.2587 29.1686 38.1622 29.3082 38.0951C29.4478 38.0281 29.6004 37.9921 29.7552 37.9897C30.2266 37.9897 30.7727 38.2983 31.1796 38.7952C31.1919 38.8105 31.2055 38.8247 31.2204 38.8376L35.5665 42.8226L36.9231 44.0689C37.0009 44.1414 37.1034 44.1814 37.2097 44.1809C37.3181 44.1809 37.4224 44.1397 37.5014 44.0655L39.8754 41.8289C42.692 39.1699 45.8834 36.1566 49.0104 33.2314C49.3802 32.8453 49.8824 32.6133 50.4161 32.582C50.6098 32.5776 50.8004 32.6312 50.9633 32.7361C51.1262 32.841 51.254 32.9923 51.3301 33.1704C51.3357 33.1826 51.3419 33.1945 51.3488 33.206C51.8694 34.0234 51.0097 34.8424 50.7366 35.0713C46.9772 38.6205 42.6073 42.7446 38.1882 46.911C37.6201 47.4367 37.2097 47.6707 36.8417 47.6707Z" fill="url(#paint2_linear_214_349)"></path> </g> <defs> <linearGradient id="paint0_linear_214_349" x1="0.00463867" y1="39.477" x2="80.0017" y2="39.477" gradientUnits="userSpaceOnUse"> <stop stop-color="#002EFE"></stop> <stop offset="0.515625" stop-color="#049BE4"></stop> <stop offset="1" stop-color="#00EEC5"></stop> </linearGradient> <linearGradient id="paint1_linear_214_349" x1="15.2209" y1="39.6969" x2="64.8248" y2="39.6969" gradientUnits="userSpaceOnUse"> <stop stop-color="#002EFE"></stop> <stop offset="0.515625" stop-color="#049BE4"></stop> <stop offset="1" stop-color="#00EEC5"></stop> </linearGradient> <linearGradient id="paint2_linear_214_349" x1="28.6067" y1="40.0169" x2="51.513" y2="40.0169" gradientUnits="userSpaceOnUse"> <stop stop-color="#002EFE"></stop> <stop offset="0.515625" stop-color="#049BE4"></stop> <stop offset="1" stop-color="#00EEC5"></stop> </linearGradient> <clipPath id="clip0_214_349"> <rect width="80" height="80.1153" fill="white"></rect> </clipPath> </defs> </svg> 