<?xml version="1.0" encoding="UTF-8"?> <svg xmlns="http://www.w3.org/2000/svg" width="220" height="48" viewBox="0 0 220 48" fill="none"> <g clip-path="url(#clip0_115_633)"> <path d="M135.271 0H144.574C145.381 2.33902 146.19 4.67805 146.982 7.0228C144.092 7.0228 141.204 7.0228 138.316 7.0228C137.294 4.68521 136.298 2.33616 135.271 0Z" fill="#0055A4"></path> <path d="M157.835 11.5432C158.037 11.5245 158.03 11.8829 157.9 11.9732C157.686 11.9961 157.706 11.6349 157.835 11.5432Z" fill="#222222"></path> <path d="M161.901 13.3089L161.911 13.3849C161.952 13.736 161.937 14.0914 161.937 14.444L161.761 14.4282C161.944 13.9481 161.36 13.9037 161.073 13.7116C161.308 13.6013 161.546 13.7202 161.762 13.8034C161.797 13.6787 161.867 13.4322 161.901 13.3089Z" fill="#222222"></path> <path d="M161.566 17.3707C161.587 17.418 161.628 17.5126 161.648 17.5599C161.696 17.5298 161.794 17.4724 161.841 17.4438L161.894 17.4022C161.854 17.706 161.841 18.0128 161.813 18.3166C161.344 18.6548 160.927 19.0576 160.465 19.4015C160.2 19.6266 159.839 19.5219 159.528 19.5162C159.597 19.5004 159.734 19.4689 159.805 19.4517C160.583 19.3342 161.069 18.6477 161.663 18.2019C161.662 18.083 161.658 17.8465 161.656 17.7275C161.027 17.8823 160.666 18.6993 159.972 18.7251C159.461 18.5373 159.087 18.103 158.669 17.7677C158.506 17.4094 158.426 17.7605 158.334 17.8666C157.792 18.1188 157.173 18.0486 156.6 17.9984C157.081 17.9282 157.57 17.9468 158.057 17.9096C158.185 17.706 158.328 17.395 158.631 17.5842C158.763 17.7963 158.91 18.0242 159.188 18.0543C159.352 18.2234 159.501 18.4227 159.743 18.49C159.926 18.5373 160.114 18.5746 160.306 18.6032C160.48 18.4871 160.637 18.3481 160.802 18.2148C161.094 17.9712 161.347 17.6831 161.566 17.3707Z" fill="#222222"></path> <path d="M145.62 24.2258C147.95 24.2186 150.282 24.2186 152.614 24.2258C153.667 27.1424 154.74 30.0504 155.802 32.9641C153.604 32.9641 151.406 32.9641 149.209 32.9641C148.011 30.0518 146.82 27.1366 145.62 24.2258Z" fill="#0055A4"></path> <path d="M151.824 39.3076C153.917 39.3048 156.009 39.3076 158.102 39.3062C158.811 41.211 159.504 43.1215 160.212 45.0262C158.601 45.8876 156.951 46.6759 155.367 47.5831H155.228C154.077 44.8327 152.947 42.0709 151.824 39.3076Z" fill="#0055A4"></path> <path d="M152.747 0H162.409C162.766 2.33759 163.078 4.68235 163.422 7.0228C160.448 7.0228 157.476 7.02423 154.502 7.0228C153.905 4.68378 153.351 2.33616 152.747 0Z" fill="#FFED00"></path> <path d="M158.371 24.2215C160.855 24.2215 163.34 24.2215 165.824 24.2215C166.271 27.1352 166.721 30.049 167.161 32.9642C164.94 32.9642 162.72 32.9642 160.5 32.9642C159.797 30.049 159.087 27.1352 158.371 24.2215Z" fill="#FFED00"></path> <path d="M162.027 39.3062C164.055 39.3062 166.085 39.3076 168.114 39.3062C168.261 40.245 168.4 41.1852 168.55 42.1225C166.749 42.6886 164.946 43.2461 163.148 43.8252C162.75 42.326 162.407 40.8111 162.027 39.3062Z" fill="#FFED00"></path> <path d="M173.379 0H182.667C182.58 2.33472 182.468 4.66801 182.394 7.00274C179.466 7.03857 176.537 7.08013 173.609 7.05147C173.521 4.70098 173.475 2.34906 173.379 0Z" fill="#EA4509"></path> <path d="M191.568 0H201.907C201.271 2.33616 200.673 4.68235 200.054 7.0228C196.892 7.0228 193.732 7.0228 190.57 7.0228C190.884 4.67948 191.297 2.34762 191.568 0Z" fill="#EA4509"></path> <path d="M174.243 24.2287C176.582 24.2244 178.922 24.2344 181.261 24.223C181.104 27.1367 180.929 30.0504 180.783 32.9642C178.689 32.9642 176.596 32.9642 174.504 32.9642C174.421 30.0519 174.305 27.141 174.243 24.2287Z" fill="#EA4509"></path> <path d="M188.131 24.2674C188.324 24.19 188.544 24.2287 188.751 24.2158C190.831 24.2272 192.911 24.2186 194.992 24.2215C194.276 27.1352 193.554 30.0461 192.836 32.9584C190.692 32.947 188.549 32.947 186.405 32.9584C186.97 30.059 187.537 27.1596 188.131 24.2674Z" fill="#EA4509"></path> <path d="M174.667 39.3019C176.58 39.2919 178.495 39.2919 180.409 39.3019C180.361 39.9239 180.33 40.5459 180.287 41.1694C178.431 41.1665 176.576 41.1679 174.72 41.1679C174.723 40.5445 174.691 39.9239 174.667 39.3019Z" fill="#EA4509"></path> <path d="M185.141 39.3105C187.183 39.3205 189.227 39.3191 191.271 39.3105C190.959 40.6133 190.613 41.9089 190.306 43.2146C188.416 42.7646 186.539 42.2644 184.66 41.7685C184.819 40.9487 184.979 40.1289 185.141 39.3105Z" fill="#EA4509"></path> <path d="M210.759 0H220V0.0745277C218.929 2.38202 217.863 4.69381 216.815 7.01277C213.993 7.0357 211.17 7.01851 208.349 7.02137C209.15 4.67948 209.952 2.33902 210.759 0Z" fill="#00854C"></path> <path d="M156.679 11.6722C156.871 11.6994 156.908 11.7997 156.79 11.9746C156.59 11.9459 156.553 11.8456 156.679 11.6722Z" fill="#222222"></path> <path d="M176.022 12.6367C176.495 12.641 175.815 13.0739 176.022 12.6367V12.6367Z" fill="#222222"></path> <path d="M177.026 12.6353C177.499 12.6511 176.811 13.0696 177.026 12.6353V12.6353Z" fill="#222222"></path> <path d="M158.148 13.8937C158.261 13.564 158.854 13.5913 159.084 13.8077C159.439 13.8564 159.862 13.6973 160.173 13.9281C159.568 13.9725 158.962 13.9525 158.357 13.9224L158.221 13.9152L158.148 13.8937Z" fill="#222222"></path> <path d="M202.102 24.2229C204.253 24.2215 206.404 24.22 208.557 24.2229C207.345 27.1381 206.124 30.049 204.912 32.9642C202.851 32.9642 200.79 32.9656 198.731 32.9627C199.846 30.0461 200.978 27.1367 202.102 24.2229Z" fill="#00854C"></path> <path d="M196.253 39.3062C198.267 39.3062 200.28 39.3062 202.292 39.3076C201.215 41.9333 200.094 44.5403 199.023 47.1689C197.391 46.372 195.776 45.5393 194.16 44.708C194.854 42.9065 195.559 41.1092 196.253 39.3062Z" fill="#00854C"></path> <path d="M17.9268 0.811233C19.9147 0.528888 21.9728 0.484458 23.9377 0.940224C25.3896 1.26843 26.6824 2.17996 27.4807 3.43404C26.6379 4.304 25.4813 4.80277 24.2917 4.96759C24.1771 4.15925 23.8403 3.19182 22.9359 3.00263C20.7818 2.56407 18.5373 3.4713 16.9852 4.96185C15.9274 5.95938 15.357 7.33241 14.8468 8.66387C14.1502 10.5299 13.5655 12.4361 12.9822 14.3409C12.6138 15.6093 12.2268 16.8806 12.0434 18.192C11.9474 18.9716 11.9488 19.8502 12.4605 20.4966C12.9363 21.1186 13.7704 21.2361 14.4956 21.3293C15.9977 16.6742 17.5083 12.0205 19.016 7.36537C19.0605 7.15325 19.3313 7.26505 19.479 7.23352C21.9226 7.24068 24.3663 7.23925 26.8113 7.23495C25.2893 12.1079 23.6625 16.9493 22.1247 21.818C19.446 23.3917 16.2384 23.7686 13.1842 23.6224C10.7463 23.4763 8.16079 22.774 6.45955 20.9179C4.91597 19.2941 4.45303 16.9092 4.74541 14.7422C5.15531 11.6192 6.57707 8.66961 8.58789 6.26322C10.9599 3.46127 14.2678 1.37306 17.9268 0.811233Z" fill="#222222"></path> <path d="M48.9418 7.39975C49.9966 7.00418 51.2722 7.33956 51.9902 8.20809C52.7713 9.10673 52.8588 10.5199 52.2023 11.5102C51.6807 12.3258 50.7046 12.8403 49.7329 12.76C48.4158 12.74 47.2477 11.6134 47.1459 10.3063C46.9825 9.07233 47.7694 7.80966 48.9418 7.39975ZM49.2112 7.82255C48.2825 8.1221 47.6189 9.06373 47.6504 10.0383C47.6461 11.2236 48.6866 12.2799 49.8705 12.2928C51.202 12.3644 52.3958 11.076 52.2095 9.75168C52.1006 8.36001 50.5283 7.32093 49.2112 7.82255Z" fill="#222222"></path> <path d="M48.5677 11.4658C48.8429 10.401 49.1209 9.33751 49.4119 8.27692C50.0138 8.35432 50.8508 8.03614 51.2478 8.65099C51.6004 9.39197 50.934 10.2175 50.1901 10.3307C50.3664 10.7091 50.5384 11.0903 50.7161 11.4687C50.4982 11.4658 50.2818 11.4615 50.0654 11.4544C49.8676 11.0043 49.667 10.5543 49.4262 10.1243C49.2943 10.5701 49.1754 11.0187 49.0507 11.4673C48.9303 11.4658 48.6881 11.4658 48.5677 11.4658ZM49.7931 8.75419C49.6985 9.14976 49.5853 9.54103 49.4821 9.93516C50.0238 9.99966 50.7663 9.83054 50.8021 9.16695C50.7663 8.65816 50.15 8.73269 49.7931 8.75419Z" fill="#222222"></path> <path d="M143.02 8.43596C143.086 8.42593 143.216 8.40443 143.282 8.3944C142.235 11.268 141.084 14.1044 140.006 16.9665C140.531 16.8103 141.018 16.4792 141.323 16.0278C142.313 13.4924 143.262 10.9427 144.274 8.4159C144.687 8.4288 145.1 8.403 145.514 8.38007C144.297 11.7252 142.967 15.0302 141.763 18.3782C141.947 18.1977 142.014 17.9454 142.107 17.7132C143.274 14.6017 144.478 11.5045 145.626 8.3858C146.357 8.38293 147.088 8.3815 147.819 8.38723C146.523 12.1781 145.143 15.9432 143.891 19.7484C144.7 19.4374 145.418 18.9214 146.069 18.3653C147.131 15.0431 148.193 11.7195 149.229 8.38866C149.806 8.38007 150.383 8.43739 150.962 8.4245C149.732 12.0835 148.385 15.7067 147.184 19.3758C147.325 19.2568 147.371 19.0748 147.432 18.9085C148.633 15.4086 149.887 11.9273 151.069 8.42163C151.205 8.42163 151.479 8.42163 151.615 8.42163C150.407 11.9201 149.197 15.4186 147.982 18.9157C147.722 19.5922 147.773 20.3346 147.695 21.0455C146.774 21.2576 145.854 21.5442 144.9 21.5414C144.816 22.2322 144.744 22.9244 144.674 23.6167C143.483 24.0839 142.051 23.4863 141.339 22.4672C141.532 21.7721 141.679 21.0598 141.644 20.336C141.257 20.1698 140.843 20.0881 140.455 19.9362C139.805 19.6352 139.182 19.2783 138.541 18.9601C138.699 18.4958 138.836 18.0042 139.166 17.6258C139.436 17.3134 139.732 17.0081 139.87 16.6082C140.92 13.8851 141.975 11.162 143.02 8.43596ZM139.304 17.7806C139.728 18.0586 140.142 18.3539 140.569 18.6334C140.915 18.533 141.264 18.447 141.616 18.3596C141.325 17.8637 140.969 17.4094 140.639 16.9393C140.154 17.1442 139.636 17.3492 139.304 17.7806ZM139.176 17.9454C139.037 18.2421 138.907 18.5431 138.815 18.8584C139.361 19.1078 139.874 19.4245 140.429 19.6567C140.446 19.3715 140.456 19.0848 140.46 18.7996C140.03 18.5187 139.603 18.2306 139.176 17.9454ZM140.635 18.8139C140.634 19.1379 140.634 19.4632 140.635 19.7871C141.036 19.9233 141.494 19.972 141.829 20.2529C141.906 20.8348 141.805 21.4238 141.68 21.9914C142.235 22.4572 142.986 22.6837 143.679 22.387C143.543 22.0659 143.424 21.7392 143.33 21.4052C144.078 21.3508 144.827 21.3465 145.577 21.3135C145.576 20.9996 145.578 20.6857 145.607 20.3719C145.346 20.1941 145.093 20.0078 144.835 19.8301C144.492 19.5005 144.085 19.9562 143.738 20.0537C143.065 19.5607 142.424 19.0261 141.763 18.5173C141.386 18.6176 141.011 18.7179 140.635 18.8139ZM144.845 19.5535C145.124 19.7627 145.408 19.9663 145.687 20.1798C146.149 19.9319 146.574 19.6208 147.029 19.3571C146.837 19.0275 146.546 18.7781 146.235 18.5689C145.768 18.8928 145.312 19.2324 144.845 19.5535ZM145.836 20.3862C145.829 20.6786 145.829 20.9724 145.832 21.2662C146.395 21.1372 146.961 21.0139 147.526 20.8893C147.466 20.4177 147.357 19.9534 147.155 19.5234C146.724 19.8244 146.278 20.1024 145.836 20.3862ZM141.577 22.1921C141.703 22.9345 142.56 23.2913 143.209 23.4934C143.063 23.191 142.925 22.8126 142.586 22.6808C142.233 22.5504 141.901 22.3784 141.577 22.1921ZM143.04 22.7281C143.204 22.9803 143.341 23.2512 143.446 23.5364C143.76 23.5937 144.079 23.5809 144.395 23.5235C144.181 23.2168 143.983 22.9001 143.797 22.5776C143.546 22.6407 143.294 22.6937 143.04 22.7281Z" fill="#222222"></path> <path d="M158.741 8.41881C160.834 8.10923 163.059 8.80578 164.57 10.292C165.694 11.3469 166.426 12.7987 166.645 14.3208C166.925 16.1482 166.438 18.0816 165.315 19.5521C164.02 21.3092 161.847 22.3727 159.666 22.3254C157.871 22.3254 156.097 21.5758 154.83 20.3074C153.453 18.9501 152.676 16.9981 152.78 15.0632C152.819 11.7898 155.498 8.82298 158.741 8.41881ZM158.297 8.83301C155.81 9.36187 153.752 11.4329 153.227 13.9181C152.757 15.9762 153.361 18.2407 154.783 19.8C156.097 21.2877 158.105 22.1305 160.088 22.0101C161.94 21.9212 163.73 21.0011 164.891 19.5578C166.082 18.1189 166.618 16.1539 166.311 14.3094C165.999 12.2555 164.657 10.3866 162.81 9.4364C161.44 8.71118 159.809 8.4833 158.297 8.83301Z" fill="#222222"></path> <path d="M191.906 8.86021C192.704 8.33708 193.726 8.22242 194.643 8.44314C196.102 8.81578 197.236 10.2433 197.182 11.7611C197.248 13.2831 196.122 14.7938 194.619 15.1005C195.211 15.2839 195.87 15.1707 196.489 15.1764C196.782 14.9514 197.154 15.0188 197.5 15.0102C197.887 15.0202 198.307 14.9442 198.645 15.1865C199.081 15.2051 199.519 15.1693 199.955 15.2323C199.919 15.2925 199.85 15.4115 199.814 15.4717C199.419 15.4975 199.025 15.4588 198.632 15.4874C198.408 15.5878 198.183 15.6996 197.934 15.6609C197.451 15.6293 196.928 15.7626 196.492 15.5003C195.896 15.4473 195.294 15.4874 194.698 15.4831C195.476 15.8085 196.239 16.2685 196.676 17.0181C197.539 18.3697 197.299 20.3188 196.092 21.3895C194.9 22.5575 192.835 22.6134 191.566 21.5356C190.347 20.5697 189.942 18.738 190.648 17.3492C191.049 16.4448 191.893 15.8371 192.796 15.4932C192.124 15.5276 191.397 15.3283 190.775 15.6465C190.278 15.6795 189.78 15.6437 189.286 15.6652C189.223 15.6179 189.095 15.5261 189.032 15.4803C188.667 15.476 188.303 15.4946 187.942 15.4645C187.924 15.3971 187.887 15.2653 187.87 15.1994C188.257 15.1908 188.645 15.1922 189.037 15.1908C189.095 15.1435 189.214 15.0503 189.275 15.003C189.772 15.0288 190.272 14.9915 190.772 15.0231C191.205 15.2825 191.715 15.1736 192.195 15.1951C192.486 15.1793 192.832 15.2352 193.071 15.0216C193.517 15.0747 193.97 15.1105 194.413 14.9872C194.453 15.0417 194.534 15.1492 194.576 15.2037C194.566 15.1406 194.546 15.0173 194.534 14.9543C196.284 14.5931 197.42 12.5866 196.875 10.894C196.521 9.62985 195.35 8.66099 194.044 8.54633C192.332 8.34855 190.659 9.74594 190.501 11.4543C190.295 13.0639 191.475 14.6662 193.054 15.0016C192.697 15.1807 192.327 14.9356 192.018 14.7723C190.781 14.0714 190.077 12.5536 190.361 11.1591C190.516 10.2175 191.099 9.36614 191.906 8.86021ZM193.333 15.6365C191.833 15.8056 190.595 17.127 190.49 18.6291C190.378 19.9362 191.148 21.2576 192.33 21.8194C193.275 22.2938 194.446 22.2437 195.356 21.7105C196.565 21.0426 197.245 19.5564 196.937 18.2048C196.623 16.5939 194.966 15.3928 193.333 15.6365Z" fill="#222222"></path> <path d="M174.332 8.81007C174.618 8.63092 174.925 8.4532 175.262 8.38727C175.862 8.52916 176.469 8.64238 177.075 8.76277C177.227 9.09671 177.42 9.41632 177.519 9.77176C177.63 10.9886 177.317 12.2297 177.558 13.4337C177.377 13.5096 177.2 13.577 177.018 13.6372C177.76 13.8851 177.574 14.8611 178.148 15.2897C178.593 15.0862 178.802 14.6175 178.974 14.1904C178.832 13.9582 178.604 13.6759 178.958 13.5096C178.716 12.9091 178.872 12.2469 178.831 11.6163C178.884 10.9914 178.64 10.2404 179.14 9.7431C179.746 9.2386 180.546 9.41489 181.227 9.66141C181.271 9.81906 181.319 9.97671 181.367 10.1358C181.76 10.4984 182.356 10.1043 182.729 10.4726C182.925 10.7062 183.096 10.9943 183.122 11.3053C183.158 13.8479 183.269 16.3875 183.325 18.9286C183.268 19.2124 183.226 19.5277 183.507 19.7069C183.53 19.9004 183.555 20.0939 183.58 20.2873C183.268 20.3002 183.348 20.7761 183.021 20.7116C182.695 20.7159 182.247 20.7832 182.094 20.412C181.872 20.1856 182.067 19.8588 182.044 19.5865C182.106 19.5793 182.23 19.565 182.293 19.5578L182.156 19.4718C182.183 19.4131 182.239 19.2955 182.266 19.2368C182.19 17.4567 182.133 15.6767 182.116 13.8952C182.128 14.2205 181.799 14.2664 181.574 14.3824C181.531 13.3591 181.64 12.3401 181.64 11.3182L181.479 11.3325C181.449 12.9564 181.499 14.5788 181.585 16.2012C181.575 18.1934 181.703 20.1856 181.696 22.1763C181.491 22.2996 181.24 22.2136 181.021 22.2294C179.251 22.2638 177.482 22.3225 175.713 22.3626C175.154 22.4042 174.641 22.1477 174.134 21.9556C174.135 20.9266 174.143 19.8961 174.131 18.867C173.819 19.0146 174.047 19.4933 173.728 19.641C173.288 19.8975 172.9 20.2286 172.503 20.5439C172.284 20.5998 172.027 20.6098 171.891 20.3991C171.611 20.5639 171.329 20.7173 171.041 20.8635L171.097 20.7044C170.961 20.723 170.69 20.7589 170.554 20.7775C170.289 20.723 170.293 20.4077 170.246 20.2028C170.478 19.9004 170.727 19.6109 171.053 19.4059C171.106 19.1135 171.157 18.7968 171.439 18.632C171.934 18.3582 172.473 18.1676 172.97 17.8939C173.142 18.0028 173.314 18.1103 173.49 18.2192C173.46 17.8437 173.867 17.8208 174.104 17.6617C174.097 17.1887 174.101 16.7157 174.101 16.2428C174.022 16.1797 173.865 16.055 173.786 15.992C174.039 15.9561 174.339 16.0264 174.581 15.8931C174.133 15.8042 173.693 15.691 173.287 15.4774C173.435 15.7583 173.707 15.9174 173.918 16.1439C173.359 16.2141 172.984 15.8314 172.788 15.3613C172.878 15.0862 173.189 15.1249 173.304 15.3757C173.167 15.0446 173.132 14.6849 173.045 14.3395C173.063 14.5014 173.101 14.8239 173.119 14.9844C173.056 14.993 172.93 15.0073 172.867 15.0159C172.701 14.4656 172.813 13.8851 172.751 13.3219C172.749 12.9034 172.661 12.4519 172.861 12.0621C172.969 12.0793 173.073 12.1137 173.178 12.1652L173.141 11.9388C173.614 11.8643 173.499 12.3501 173.498 12.6138C173.513 13.4251 173.423 14.2477 173.562 15.0518C173.561 15.3585 173.876 15.4387 174.09 15.5749C174.058 15.0604 174.055 14.5473 174.077 14.0327C174.064 14.1144 174.036 14.2778 174.024 14.3595C173.869 14.2047 173.592 14.0557 173.756 13.8063C173.872 13.7719 173.991 13.7776 174.115 13.8221C173.963 13.1398 174.025 12.4304 174.069 11.7396C173.843 11.6708 173.661 11.7338 173.525 11.9316C173.27 11.9259 173.01 11.9044 172.792 11.7625C173.25 11.8929 173.727 11.6006 173.74 11.1219C173.381 11.0631 173.009 11.0215 172.653 10.9843C172.987 10.7707 173.376 10.8424 173.747 10.861C173.522 10.4869 173.062 10.9198 172.731 10.8495C172.653 10.5887 172.365 10.6819 172.176 10.6331L172.122 11.0602C171.998 10.8424 171.901 10.6045 171.811 10.3737L172.147 10.4497C172.007 10.2834 171.861 10.1086 171.955 9.87782L172.023 9.75743C172.589 10.0383 173.456 9.88499 173.784 10.5228C173.85 10.5959 173.982 10.7421 174.048 10.8152C174.098 11.109 173.955 11.4701 174.191 11.7066C174.405 11.6923 174.621 11.6651 174.841 11.6737C174.971 11.4257 175.011 11.1778 174.72 11.0201C174.595 11.2437 174.524 11.6507 174.181 11.5934C174.155 11.5031 174.101 11.3239 174.074 11.2337C174.153 11.2523 174.31 11.2895 174.389 11.3082C174.421 11.2122 174.484 11.0187 174.515 10.9212C174.342 10.8825 174.178 10.8252 174.022 10.7492C174.077 10.0985 173.827 9.34323 174.332 8.81007ZM175.318 8.62088C175.405 8.8029 175.497 8.98492 175.593 9.16408C176.109 9.28447 176.629 9.38479 177.154 9.47795C177.056 9.2859 176.962 9.09241 176.867 8.90036C176.35 8.80577 175.835 8.69828 175.318 8.62088ZM174.204 9.63131C174.206 9.97098 174.206 10.3121 174.223 10.6518C174.561 10.6503 174.861 10.7851 175.077 11.0531C175.077 10.5127 175.045 9.97241 175.025 9.43352C174.752 9.50088 174.476 9.57111 174.204 9.63131ZM175.589 9.65567C175.352 9.79756 175.633 10.1258 175.832 9.96382C176.072 9.81619 175.788 9.50088 175.589 9.65567ZM180.043 9.59404C180.045 9.70584 180.049 9.92799 180.05 10.0398C180.442 10.077 180.831 10.1243 181.223 10.1845C181.069 9.67287 180.45 9.75313 180.043 9.59404ZM176.771 9.91365C176.773 9.97528 176.778 10.1014 176.78 10.1645C177.218 10.5428 177.175 9.51952 176.771 9.91365ZM179.1 10.4052C179.083 10.54 179.046 10.808 179.027 10.9427C179.351 10.9097 179.672 10.8567 179.993 10.7836C179.858 11.1663 179.384 11.1692 179.066 11.0932C179.233 11.4859 179.113 11.9173 179.117 12.3272C179.14 12.6697 178.954 13.071 179.238 13.3462C179.2 13.4236 179.129 13.5784 179.093 13.6572C179.394 14.3309 178.882 15.1263 178.295 15.4617C177.883 15.6824 177.75 15.132 177.589 14.8769C177.582 15.2008 177.767 15.5892 177.491 15.8472C177.648 15.8787 177.806 15.9174 177.968 15.9576C177.946 16.2485 177.929 16.5409 177.972 16.8304C178.497 16.7014 178.388 16.012 178.802 15.7512C178.928 16.0106 179.034 16.2829 179.225 16.5051C179.739 16.1138 180.133 15.5606 180.219 14.907C180.242 14.5917 180.457 14.1345 180.139 13.9152C180.151 14.6863 179.652 15.433 179.004 15.8257C178.968 15.734 178.897 15.552 178.861 15.4602C179.081 15.003 179.41 14.6046 179.617 14.1374C179.536 14.0843 179.142 14.0141 179.354 13.9009C179.473 13.8894 179.711 13.8651 179.83 13.8522C179.831 13.6099 179.838 13.3677 179.828 13.1255C179.719 13.3792 179.789 13.7404 179.483 13.8694C179.504 13.7088 179.55 13.3892 179.573 13.2287C179.477 13.2373 179.285 13.2559 179.189 13.266C179.11 12.8245 179.626 12.975 179.873 12.8776C179.855 12.2842 179.802 11.6923 179.798 11.0989C179.861 10.8682 180.105 10.8352 180.31 10.8023C180.199 10.5328 179.947 10.6546 179.734 10.7105C180.006 10.1243 179.38 10.3006 179.1 10.4052ZM181.485 11.1133C181.797 11.2924 182.206 11.2279 182.143 10.7922C181.883 10.8295 181.439 10.8567 181.502 10.474C181.498 10.6876 181.486 10.8997 181.485 11.1133ZM180.902 10.6847C180.655 10.8266 180.935 11.1591 181.142 11.0043C181.366 10.8639 181.097 10.5371 180.902 10.6847ZM182.312 10.4869C182.242 10.808 182.455 11.258 182.078 11.4529C182.209 11.4472 182.468 11.4372 182.599 11.4314C182.596 11.3168 182.593 11.0875 182.59 10.9714L182.723 10.9728C182.742 11.0946 182.781 11.3411 182.799 11.463C182.738 11.5246 182.614 11.6493 182.554 11.7109C182.482 11.6722 182.342 11.5963 182.272 11.559C182.269 11.698 182.266 11.9789 182.265 12.118C182.48 12.0907 182.697 12.085 182.918 12.1022C182.815 11.569 183.036 10.6231 182.312 10.4869ZM174.236 11.9589C174.249 12.5236 174.246 13.0897 174.239 13.6544C174.508 13.7203 174.788 13.7905 174.97 14.0213C174.819 14.2893 174.658 14.7207 174.276 14.4727C174.296 14.8712 174.229 15.2868 174.362 15.6724C174.408 15.3814 174.423 15.0847 174.488 14.7952C174.916 14.6089 175.207 15.4416 174.812 15.6351C174.799 15.7497 174.773 15.9791 174.76 16.0937C175.121 16.1582 175.008 16.561 174.729 16.6512C174.633 16.5409 174.439 16.3216 174.343 16.2112C174.369 16.7329 174.272 17.2561 174.35 17.7763C174.426 17.719 174.578 17.6058 174.654 17.5499C175.153 17.729 175.44 18.3926 174.815 18.675C174.787 18.3396 174.833 17.7792 174.329 17.8451C174.353 17.9727 174.402 18.2307 174.426 18.3582C174.476 18.6277 174.042 18.8598 173.988 18.4313C174.058 18.394 174.198 18.3195 174.269 18.2823C174.23 18.1963 174.151 18.0243 174.111 17.9383C173.946 17.997 173.781 18.0515 173.618 18.1031C173.814 18.2679 173.968 18.4729 174.095 18.6965C174.307 18.7108 174.636 18.7882 174.591 18.3955C174.65 18.48 174.706 18.5689 174.76 18.6592C174.686 18.9172 174.359 18.9043 174.274 19.1451C174.581 19.2053 174.895 19.2439 175.21 19.254C175.232 16.8261 175.131 14.3996 175.192 11.9732C174.872 11.9388 174.551 11.9001 174.236 11.9589ZM182.629 12.2871C182.669 14.4842 182.729 16.6813 182.759 18.8799C182.844 18.8799 183.013 18.8785 183.097 18.8785C183.044 16.6828 183.051 14.4842 182.908 12.2914L182.629 12.2871ZM176.022 12.6368C175.815 13.0739 176.494 12.6411 176.022 12.6368V12.6368ZM177.026 12.6353C176.811 13.0696 177.499 12.6511 177.026 12.6353V12.6353ZM180.529 12.8948C180.473 13.094 180.542 13.1599 180.74 13.0911C180.793 12.8905 180.722 12.8245 180.529 12.8948ZM180.959 12.8747C180.906 13.071 180.978 13.1441 181.177 13.0968C181.227 12.9019 181.154 12.8274 180.959 12.8747ZM174.296 13.9568C174.173 14.1001 174.38 14.3695 174.552 14.2979C174.656 14.1546 174.461 13.8937 174.296 13.9568ZM176.75 14.3738C177.003 14.3481 177.258 14.3538 177.44 14.5659C177.309 14.3323 177.273 13.9783 176.979 13.8952C176.718 13.9252 176.732 14.1775 176.75 14.3738ZM174.63 15.0962C174.535 15.241 174.495 15.5849 174.71 15.6308C174.799 15.509 174.891 15.0274 174.63 15.0962ZM175.597 17.9268C175.43 18.1246 175.772 18.4127 175.917 18.1748C176.065 17.9798 175.742 17.7133 175.597 17.9268ZM177.069 17.9282C176.916 18.1203 177.23 18.417 177.382 18.1862C177.529 17.9899 177.224 17.7004 177.069 17.9282ZM177.793 17.9311C177.79 17.9942 177.784 18.1189 177.783 18.1805C178.193 18.5804 178.22 17.5441 177.793 17.9311ZM179.779 17.9368C179.691 18.1662 179.762 18.2522 179.993 18.1934C180.08 17.9598 180.009 17.8738 179.779 17.9368ZM180.489 17.9354C180.417 18.169 180.495 18.2507 180.721 18.1805C180.791 17.9426 180.714 17.8609 180.489 17.9354ZM181.168 17.9297C181.089 18.1676 181.164 18.2507 181.395 18.1791C181.466 17.944 181.39 17.8609 181.168 17.9297ZM172.883 18.7624C173.092 18.6463 173.294 18.5245 173.513 18.4213C173.43 18.8799 172.896 18.9573 172.61 19.254C172.628 19.5306 172.761 19.7886 172.752 20.0724C173.073 19.8258 173.394 19.5765 173.715 19.3256C173.829 19.0118 173.773 18.6893 173.5 18.4786L173.715 18.4284C173.564 18.3955 173.413 18.3654 173.265 18.3396C173.091 18.4256 173.01 18.6248 172.883 18.7624ZM171.381 18.8928C171.388 19.0705 171.399 19.2482 171.412 19.426C171.778 19.5292 171.848 19.909 171.822 20.24C172.38 20.0222 172.072 19.2912 171.59 19.2067C171.74 19.1909 171.868 19.1293 171.973 19.0218C171.759 19.0361 171.561 18.9931 171.381 18.8928ZM172.341 20.4063C172.656 19.9778 172.387 19.4546 172.169 19.0505C172.241 19.5034 172.397 19.9405 172.341 20.4063ZM182.409 19.0505C182.414 19.1565 182.422 19.3701 182.427 19.4761C182.646 19.5249 182.872 19.5621 183.1 19.5822C183.077 19.4518 183.031 19.1938 183.008 19.0634C182.806 19.0605 182.607 19.0562 182.409 19.0505ZM170.628 19.9219C170.875 20.0767 171.183 20.2716 171.08 20.6256C171.187 20.5768 171.404 20.4794 171.513 20.4307C171.584 20.2013 171.591 19.962 171.577 19.7255C171.514 19.7441 171.389 19.7843 171.328 19.8029C171.371 19.9907 171.47 20.1784 171.431 20.3776C171.149 20.3017 171.203 19.9047 171.001 19.7298C170.908 19.7785 170.721 19.8746 170.628 19.9219ZM182.521 19.7011C182.538 19.8158 182.574 20.0466 182.591 20.1626C182.497 20.2458 182.404 20.3303 182.315 20.4163C182.6 20.445 182.902 20.551 183.18 20.4192C183.064 20.4006 182.832 20.3633 182.716 20.3447C182.729 20.2558 182.755 20.0795 182.768 19.9921L182.971 19.8359C182.978 19.9333 182.99 20.1268 182.997 20.2228C183.34 20.2845 183.322 20.0021 183.314 19.7499C183.047 19.7441 182.782 19.7327 182.521 19.7011ZM180.602 20.6528C180.622 20.8377 181.016 20.8406 181.044 20.6471C181.142 20.4622 180.919 20.3518 180.823 20.23C180.73 20.3561 180.45 20.4636 180.602 20.6528ZM176.722 21.6704C176.837 21.5672 176.952 21.4626 177.066 21.3565C176.956 21.2476 176.846 21.1387 176.735 21.0326C176.443 21.2118 176.454 21.4755 176.722 21.6704Z" fill="#222222"></path> <path d="M206.525 8.74416C206.938 8.60943 207.378 8.6338 207.809 8.6338C209.153 8.63953 210.498 8.63093 211.843 8.63667C212.681 8.64526 213.48 9.10246 213.945 9.79471C214.375 10.3967 214.456 11.1821 214.33 11.8958C214.117 12.9693 213.165 13.8063 212.101 13.9898C213.278 15.3642 214.435 16.7544 215.61 18.1303C216.059 18.6148 216.411 19.2354 216.387 19.9161C216.438 21.2089 215.374 22.4085 214.098 22.5604C211.905 22.6249 209.711 22.6092 207.518 22.6092C206.205 22.6249 205 21.5285 204.872 20.2257C204.692 19.0361 205.395 17.7835 206.516 17.3392C207.201 17.0411 207.961 17.2675 208.676 17.1328C207.633 16.9823 206.556 17.1228 205.503 17.0268C204.646 16.935 204.037 15.9877 204.288 15.1664C204.458 14.424 205.238 13.9568 205.98 14.0586C205.097 12.9148 204.116 11.85 203.218 10.7191C203.706 10.7091 204.194 10.7134 204.686 10.7134C204.907 9.79758 205.618 9.01647 206.525 8.74416ZM204.852 11.8815L204.662 11.8786C204.637 11.549 204.624 11.2208 204.632 10.8926C204.341 10.8926 204.051 10.894 203.764 10.8954C204.153 11.2394 204.343 11.8643 204.887 11.9918C205.221 13.0983 206.353 13.9253 207.521 13.7776C208.785 13.6744 209.846 12.4605 209.755 11.1892C209.745 9.74025 208.255 8.50768 206.829 8.82872C205.461 9.0566 204.517 10.5386 204.852 11.8815ZM209.817 10.3522C209.976 10.9628 209.979 11.6135 209.798 12.2197C211.24 12.2183 212.683 12.2183 214.127 12.2197C214.257 11.6192 214.304 10.9757 214.101 10.3866C212.672 10.4167 211.246 10.3293 209.817 10.3522ZM206.089 13.7504C207.229 15.1005 208.349 16.4692 209.482 17.8265C209.983 18.3998 210.352 19.135 210.294 19.9147C210.344 20.9008 209.708 21.7449 208.943 22.2939C210.523 22.2781 212.106 22.2896 213.688 22.2881C214.929 22.2867 216.077 21.186 216.064 19.9305C216.094 19.3658 215.844 18.8312 215.487 18.4098C214.251 16.9465 213.029 15.4746 211.792 14.0141C210.863 13.9181 209.913 14.0027 208.977 13.974C208.012 13.9324 207.011 14.113 206.089 13.7504ZM205.579 14.2692C204.667 14.3552 204.136 15.5477 204.736 16.2614C205.245 17.0253 206.518 16.8677 206.86 16.0278C207.284 15.1908 206.495 14.1331 205.579 14.2692ZM207.216 15.5907C207.18 16.0593 206.93 16.4621 206.588 16.7688C207.131 16.7673 207.674 16.7716 208.22 16.7659C207.892 16.3689 207.621 15.9146 207.216 15.5907ZM207.246 17.3578C205.97 17.5112 204.958 18.7968 205.122 20.0752C205.218 21.4454 206.606 22.5604 207.972 22.3039C209.267 22.1376 210.254 20.799 210.053 19.512C209.909 18.1905 208.57 17.1328 207.246 17.3578Z" fill="#222222"></path> <path d="M193.126 8.97487C193.964 8.80145 194.888 8.99063 195.548 9.55102C196.398 10.2318 196.802 11.4242 196.514 12.4777C196.316 13.3405 195.668 14.0671 194.861 14.4125C193.901 14.8181 192.714 14.6662 191.916 13.984C191.096 13.3218 190.714 12.1824 190.949 11.1577C191.161 10.0828 192.061 9.20418 193.126 8.97487ZM193.067 9.34751C192.064 9.61265 191.287 10.5514 191.208 11.5848C191.075 12.9019 192.147 14.1932 193.465 14.305C194.96 14.5071 196.395 13.1241 196.246 11.6206C196.191 10.0871 194.537 8.89604 193.067 9.34751Z" fill="#222222"></path> <path d="M206.9 9.41485C207.846 9.19844 208.867 9.81472 209.128 10.7463C209.46 11.8212 208.715 13.0868 207.577 13.2143C206.523 13.4006 205.433 12.5479 205.395 11.4744C205.274 10.5299 205.974 9.59544 206.9 9.41485ZM206.654 9.60834C205.972 9.87062 205.46 10.5729 205.494 11.3139C205.447 12.2569 206.303 13.1398 207.247 13.1197C208.27 13.1871 209.195 12.1853 209.075 11.172C209.04 10.0197 207.722 9.15544 206.654 9.60834Z" fill="#222222"></path> <path d="M154.109 13.0911C155.204 12.0033 156.293 10.9097 157.384 9.81759C158.916 9.82189 160.45 9.80899 161.982 9.82189C162.51 10.1888 162.913 10.7334 163.396 11.1691C164.027 11.8356 164.735 12.4375 165.32 13.1427C165.33 14.6776 165.315 16.2141 165.325 17.7505C164.273 18.8899 163.133 19.9447 162.059 21.0627C160.501 21.0756 158.943 21.0641 157.387 21.0684C156.307 19.9519 155.142 18.8985 154.116 17.7433C154.095 16.194 154.112 14.6418 154.109 13.0911ZM154.363 13.1928C154.353 14.6662 154.36 16.1395 154.358 17.6129C155.417 18.6677 156.472 19.724 157.529 20.7817C158.989 20.7789 160.451 20.7875 161.911 20.7774C162.958 19.7111 164.027 18.6663 165.075 17.6014C165.067 16.1367 165.07 14.6733 165.073 13.2086C164.025 12.148 162.959 11.1061 161.919 10.0397C160.442 10.0225 158.966 10.0397 157.49 10.0311C156.478 11.1147 155.412 12.1451 154.363 13.1928Z" fill="#222222"></path> <path d="M171.505 9.88354C171.55 9.88641 171.637 9.89358 171.682 9.89788C171.647 10.057 171.596 10.2118 171.527 10.3622C171.368 10.3192 171.223 10.3379 171.094 10.4181C171.303 10.4482 171.639 10.345 171.613 10.6761C171.642 10.9183 171.391 11.0846 171.299 11.2838C171.586 11.0631 171.973 11.1777 171.943 11.5561C172.063 11.2881 172.19 11.023 172.328 10.7621C172.509 10.5973 172.659 10.7635 172.706 10.9441C172.269 10.947 172.292 11.5318 171.993 11.7611C172.183 11.7525 172.565 11.7338 172.755 11.7252C172.757 11.8686 172.761 12.0119 172.769 12.1552C172.567 11.751 172.024 11.9087 171.663 11.9617C171.435 11.8241 171.216 11.6679 171.184 11.3827C170.919 11.334 170.654 11.2953 170.389 11.268C170.356 11.0459 170.054 11.0215 170.071 10.7836C170.001 10.6073 170.087 10.4339 170.121 10.2633C170.303 10.2017 170.491 10.1358 170.674 10.0613C170.968 10.0699 171.352 10.2705 171.505 9.88354ZM170.687 10.2791C170.906 10.5787 170.648 10.8395 170.57 11.1247C170.971 11.2508 171.313 10.9785 171.429 10.6073C171.054 10.5199 171.126 11.0531 170.797 11.0703C170.872 10.8094 170.948 10.5514 171.017 10.2891C170.934 10.2863 170.77 10.282 170.687 10.2791Z" fill="#222222"></path> <path d="M206.893 9.96526C207.819 9.63132 208.839 10.5099 208.662 11.4716C208.597 12.5049 207.236 13.0309 206.462 12.3774C205.62 11.7597 205.868 10.2404 206.893 9.96526ZM206.971 10.0656C206.04 10.2992 205.734 11.6292 206.475 12.2384C207.15 12.9392 208.462 12.4318 208.544 11.4802C208.715 10.6217 207.806 9.79327 206.971 10.0656Z" fill="#222222"></path> <path d="M206.882 10.4095C207.607 10.0354 208.49 10.8538 208.19 11.6048C208.011 12.3243 206.939 12.4992 206.525 11.9015C206.136 11.4314 206.33 10.6575 206.882 10.4095Z" fill="#222222"></path> <path d="M192.515 11.7367C192.505 10.9126 193.46 10.3178 194.206 10.646C194.639 10.7635 194.754 11.2867 195.158 11.4372C195.164 11.6665 195.169 11.8972 195.175 12.1265C194.761 12.2942 194.661 12.8446 194.203 12.9607C193.402 13.3176 192.422 12.6052 192.515 11.7367Z" fill="#222222"></path> <path d="M156.435 11.3111C157.001 11.0473 157.688 11.0502 158.265 11.2896C158.262 11.5432 158.262 11.7984 158.265 12.052C157.861 12.1796 157.949 12.6196 157.858 12.9478C158.602 12.8962 159.344 12.9894 160.088 12.9707C160.468 12.9779 160.878 12.9034 161.221 13.1227C161.474 12.6354 161.963 12.2083 161.891 11.6149C161.94 10.9872 162.938 10.8825 163.131 11.4744C163.302 11.8886 162.945 12.3014 162.549 12.386C162.34 12.7214 162.151 13.0696 161.911 13.3849L161.901 13.309C161.867 13.4322 161.797 13.6787 161.762 13.8034C161.546 13.7203 161.308 13.6014 161.073 13.7117L161.254 13.4781C160.977 13.5942 160.679 13.6343 160.384 13.6243C160.369 13.9253 160.151 14.2821 160.427 14.5373C160.27 14.51 160.116 14.4857 159.964 14.4642C159.948 14.6232 159.915 14.9414 159.899 15.1005L160.103 15.1249L160.128 14.5845C160.72 14.4986 161.321 14.6333 161.911 14.5229C161.901 14.6361 161.883 14.8626 161.873 14.9773C161.315 14.9787 160.758 14.9744 160.202 14.9815C160.196 15.0518 160.183 15.1908 160.177 15.2596C159.399 15.4789 158.486 15.0403 157.832 15.6337C157.832 15.9748 157.832 16.3159 157.834 16.657C158.141 16.6785 158.497 16.5896 158.761 16.8032C159.17 17.0913 159.535 17.4352 159.956 17.7075C160.511 17.3636 160.927 16.8118 161.547 16.5724C161.705 16.8376 161.815 17.1328 161.841 17.4438C161.794 17.4725 161.696 17.5298 161.648 17.5599C161.628 17.5126 161.587 17.418 161.566 17.3707C161.347 17.6832 161.094 17.9713 160.802 18.2149C160.637 18.3482 160.48 18.4872 160.306 18.6033C160.114 18.5746 159.926 18.5374 159.743 18.4901C159.501 18.4227 159.352 18.2235 159.188 18.0544C158.91 18.0243 158.763 17.7964 158.631 17.5843C158.328 17.3951 158.185 17.7061 158.057 17.9096C157.57 17.9469 157.081 17.9283 156.6 17.9985C157.173 18.0487 157.792 18.1189 158.334 17.8666C158.35 18.106 158.373 18.3468 158.384 18.5861C158.854 18.7065 159.161 19.1021 159.539 19.3773L159.805 19.4518C159.734 19.469 159.597 19.5005 159.528 19.5163C159.141 19.2798 158.834 18.9344 158.44 18.7094C158.367 19.0132 158.059 19.0935 157.828 19.2354C157.808 19.4632 157.795 19.6926 157.787 19.9219C157.557 20.0122 157.289 20.1025 157.067 19.9477C156.78 19.8144 156.965 19.4632 156.951 19.2311C156.776 19.1422 156.6 19.0548 156.429 18.9673C156.419 18.2679 156.477 17.57 156.472 16.8691C156.601 16.8032 156.732 16.7373 156.865 16.6728C156.865 16.3216 156.865 15.969 156.865 15.6179C156.71 15.5534 156.557 15.4889 156.405 15.4258C156.405 14.6419 156.348 13.8464 156.53 13.0754C156.931 12.7687 157.273 13.2502 157.703 13.0797L157.685 12.9005C157.517 12.9507 157.374 12.9177 157.253 12.803C157.334 12.5107 157.359 12.1796 156.952 12.2326C156.958 12.4619 156.96 12.7128 156.796 12.8919C156.876 12.5064 156.828 12.1753 156.435 12.0563C156.434 11.8084 156.434 11.559 156.435 11.3111ZM157.835 11.5432C157.706 11.635 157.686 11.9961 157.9 11.9732C158.03 11.8829 158.037 11.5246 157.835 11.5432ZM156.679 11.6722C156.553 11.8457 156.59 11.946 156.79 11.9746C156.908 11.7998 156.871 11.6995 156.679 11.6722ZM162.017 11.9775C161.78 12.4003 161.504 12.8002 161.275 13.2258L161.331 13.4079L161.467 13.3892C161.719 12.9736 162.022 12.5795 162.208 12.1266C162.161 12.0893 162.065 12.0148 162.017 11.9775ZM160.295 13.3907C160.352 13.5899 160.912 13.6014 160.974 13.4021C160.762 13.3147 160.504 13.3219 160.295 13.3907ZM156.99 13.6744C157.112 13.8622 157.547 13.7776 157.761 13.7174C157.639 13.4967 157.189 13.5526 156.99 13.6744ZM158.148 13.8937C157.616 13.9984 157.051 13.9998 156.533 13.835L156.604 14.0027C156.815 14.0686 157.262 13.8708 157.348 14.1488C157.248 14.1546 157.046 14.1646 156.945 14.1689C156.935 14.606 156.937 15.0417 156.938 15.4789C157.232 15.4789 157.529 15.4789 157.827 15.4789C157.855 15.0446 157.878 14.6089 157.87 14.1718C157.787 14.1646 157.619 14.1503 157.536 14.1431L157.539 14.0758C157.739 13.9611 157.992 14.0557 158.208 13.9926L158.221 13.9152L158.357 13.9224C158.379 14.3423 158.356 14.7752 158.334 15.1994C158.806 15.2066 159.277 15.2324 159.749 15.198C159.774 15.1406 159.826 15.0288 159.852 14.973C159.842 14.7608 159.832 14.5487 159.826 14.3366C159.909 14.3352 160.075 14.3309 160.159 14.3294C160.163 14.2291 160.17 14.0285 160.173 13.9281C159.862 13.6974 159.439 13.8565 159.084 13.8077C158.854 13.5913 158.261 13.5641 158.148 13.8937ZM157.017 15.5821C157.026 16.2987 156.977 17.0153 156.977 17.7305C157.059 17.7362 157.225 17.7462 157.306 17.752C157.278 17.0626 157.315 16.3732 157.288 15.6838C157.22 15.658 157.084 15.6079 157.017 15.5821ZM156.974 18.1676C156.973 18.4657 156.973 18.7638 156.975 19.0619C157.258 19.0619 157.546 19.0619 157.834 19.0619C157.832 18.7653 157.832 18.4672 157.834 18.1705C157.546 18.1905 157.258 18.1891 156.974 18.1676ZM157.054 19.1651C157.093 19.4231 156.898 19.8517 157.279 19.9362C157.232 19.6725 157.488 19.1766 157.054 19.1651Z" fill="#222222"></path> <path d="M28.7878 11.3225C32.5657 11.3254 36.3451 11.3168 40.1246 11.3268C41.4904 11.4071 43.0311 11.2594 44.1763 12.1595C44.9975 12.7385 45.3487 13.7962 45.244 14.7694C45.0878 16.3474 44.1705 17.7519 43.0426 18.8211C42.2887 19.5836 41.3084 20.0437 40.3854 20.5611C41.6653 21.0326 43.0311 21.6761 43.7005 22.9388C44.4328 24.3176 44.1404 25.9801 43.5801 27.366C42.6098 29.781 40.5044 31.5998 38.1137 32.5428C36.133 33.4085 33.9373 33.42 31.8176 33.43C28.3893 33.43 24.961 33.43 21.5328 33.4314C23.9349 26.0561 26.3699 18.6921 28.7878 11.3225ZM35.7919 13.6544C35.1685 15.5964 34.5235 17.5312 33.89 19.469C34.5379 19.4317 35.2029 19.34 35.7833 19.0304C36.7694 18.5015 37.3255 17.451 37.6393 16.4176C37.8257 15.7641 38.075 15.0317 37.7683 14.3753C37.3613 13.7217 36.4842 13.6759 35.7919 13.6544ZM33.1132 21.8538C32.1114 24.9123 31.0952 27.9651 30.1149 31.0293C31.0408 31.0938 32.0211 30.9133 32.7521 30.307C33.559 29.6348 33.9502 28.6201 34.3186 27.6684C34.7385 26.4961 35.1584 25.3136 35.3763 24.0839C35.501 23.4519 35.4436 22.7066 34.9449 22.2437C34.4404 21.8166 33.7309 21.8667 33.1132 21.8538Z" fill="#222222"></path> <path d="M205.395 14.6533C206.086 14.3552 206.887 15.079 206.644 15.797C206.499 16.4792 205.542 16.7171 205.072 16.2241C204.593 15.7755 204.756 14.8611 205.395 14.6533Z" fill="#222222"></path> <path d="M192.832 16.1324C193.861 15.7684 195.079 16.078 195.817 16.8791C196.62 17.7004 196.825 19.0204 196.339 20.0566C195.799 21.2834 194.324 21.99 193.031 21.6245C191.863 21.3465 190.957 20.2501 190.888 19.0548C190.778 17.7892 191.618 16.518 192.832 16.1324ZM192.997 16.4463C191.691 16.8089 190.863 18.3511 191.327 19.6352C191.682 20.8219 192.997 21.6202 194.213 21.3436C195.492 21.1186 196.446 19.7843 196.226 18.4987C196.044 17.0325 194.41 15.9533 192.997 16.4463Z" fill="#222222"></path> <path d="M192.527 19.0762C192.323 18.1575 193.394 17.3091 194.239 17.7376C194.665 17.868 194.775 18.3768 195.174 18.5445C195.169 18.7767 195.166 19.0089 195.165 19.241C194.808 19.3041 194.749 19.7398 194.453 19.9003C193.756 20.4149 192.607 19.9577 192.527 19.0762Z" fill="#222222"></path> <path d="M207.028 18.0042C208.283 17.5613 209.682 18.7652 209.466 20.0681C209.4 21.5213 207.461 22.3268 206.38 21.3608C205.186 20.4894 205.579 18.3553 207.028 18.0042ZM207.237 18.0716C206.733 18.1475 206.311 18.4915 206.038 18.9071C205.436 19.8301 205.896 21.2017 206.939 21.5658C208.035 22.0258 209.378 21.1 209.363 19.9176C209.437 18.8154 208.328 17.8279 207.237 18.0716Z" fill="#222222"></path> <path d="M207.028 18.5847C207.633 18.3424 208.409 18.5603 208.735 19.1479C209.175 19.8287 208.848 20.8506 208.093 21.1458C207.587 21.1974 206.965 21.2978 206.604 20.8434C205.91 20.2114 206.148 18.92 207.028 18.5847ZM207.253 18.6477C206.435 18.8455 206.048 19.9276 206.561 20.5983C207.057 21.3866 208.414 21.2548 208.739 20.3733C209.196 19.469 208.217 18.3281 207.253 18.6477Z" fill="#222222"></path> <path d="M207.249 18.9243C207.812 18.7079 208.517 19.1522 208.503 19.7685C208.619 20.4665 207.792 21.0612 207.165 20.7359C206.389 20.4335 206.44 19.1565 207.249 18.9243Z" fill="#222222"></path> <path d="M142.25 20.2945C142.788 19.8588 143.806 20.2744 143.692 21.0226C143.582 21.4483 143.411 20.8635 143.307 20.7546C143.235 20.5023 142.958 20.488 142.754 20.4106C142.625 20.5611 142.5 20.7144 142.378 20.8692C142.248 20.7044 142.068 20.4937 142.25 20.2945Z" fill="#222222"></path> <path d="M68.4551 26.3327C69.4168 25.6734 70.6551 25.3538 71.8003 25.6462C72.6975 25.9027 73.2364 26.7884 73.3797 27.6656C73.1532 27.9293 72.8193 28.0798 72.5441 28.289C72.3205 27.6254 72.0196 26.8716 71.3101 26.605C70.6093 26.4072 69.8898 26.7655 69.3609 27.2055C68.4508 28.0224 67.9449 29.2106 67.7543 30.4016C67.6668 31.0236 67.707 31.7216 68.0896 32.2462C68.468 32.765 69.2119 32.9226 69.7952 32.6862C70.6093 32.3651 71.1954 31.6757 71.7458 31.0251C71.9293 31.2286 72.1055 31.4407 72.279 31.6557C71.5136 32.5815 70.5691 33.4644 69.3652 33.7424C68.3175 33.9675 67.0606 33.6679 66.4257 32.7492C65.9384 32.0613 65.9025 31.1712 65.9986 30.3629C66.2494 28.772 67.1179 27.2528 68.4551 26.3327Z" fill="#222222"></path> <path d="M77.2823 27.6556C77.9488 25.9773 80.0356 25.2678 81.701 25.6605C82.6211 25.8726 83.0712 26.8515 83.0153 27.7301C82.6168 27.7344 82.2184 27.733 81.82 27.733C81.7884 27.2772 81.7282 26.7412 81.2968 26.4789C80.4283 26.0231 79.137 26.5205 78.9392 27.5194C78.8374 28.1443 79.4293 28.5642 79.8865 28.8652C80.5859 29.3468 81.4889 29.7395 81.7856 30.6008C81.9762 31.3088 81.5849 32.0269 81.1291 32.5443C80.2018 33.5547 78.7313 33.8887 77.4085 33.7181C76.871 33.6436 76.3049 33.4042 76.0254 32.9141C75.7803 32.5013 75.8061 32.0068 75.8319 31.5482C76.2691 31.5253 76.7076 31.5296 77.1462 31.531C77.1448 31.9409 77.1777 32.4167 77.5317 32.6919C78.4519 33.3254 80.09 32.6016 79.9324 31.392C79.6486 30.489 78.6353 30.201 77.9617 29.6578C77.301 29.2536 76.9341 28.3836 77.2823 27.6556Z" fill="#222222"></path> <path d="M90.8063 25.6204C91.6705 25.4369 92.6637 25.596 93.3044 26.2438C93.9378 26.8658 94.1113 27.8089 94.0482 28.6645C93.8977 30.2626 93.1195 31.8061 91.884 32.8395C91.2276 33.3612 90.435 33.7453 89.5909 33.8026C88.6965 33.8929 87.7019 33.5432 87.2318 32.7392C86.5868 31.6858 86.7158 30.3586 87.0856 29.2335C87.6374 27.5308 89.0076 25.9959 90.8063 25.6204ZM90.9381 26.3155C90.4049 26.4703 89.9807 26.8687 89.6683 27.3116C88.9875 28.2546 88.6621 29.3983 88.45 30.5263C88.3382 31.2429 88.258 32.0627 88.6879 32.6962C89.0262 33.2035 89.7571 33.1992 90.233 32.8954C91.1201 32.3536 91.5945 31.369 91.9485 30.4303C92.304 29.4084 92.5749 28.3076 92.3914 27.2241C92.2925 26.5577 91.5917 26.069 90.9381 26.3155Z" fill="#222222"></path> <path d="M114.465 25.6146C115.286 25.4527 116.212 25.5845 116.854 26.1549C117.512 26.7411 117.734 27.6727 117.701 28.5241C117.573 30.1966 116.773 31.8391 115.452 32.8882C114.591 33.5748 113.44 33.9746 112.34 33.7525C111.598 33.6163 110.95 33.086 110.665 32.388C110.201 31.2974 110.396 30.0519 110.794 28.9727C111.405 27.376 112.742 25.9514 114.465 25.6146ZM114.576 26.3112C114.102 26.443 113.716 26.7784 113.414 27.1539C112.755 27.9809 112.415 29.0085 112.17 30.0232C112.008 30.7986 111.886 31.6342 112.146 32.4009C112.307 32.9069 112.888 33.2351 113.404 33.0746C114.113 32.9026 114.618 32.3092 114.983 31.7116C115.559 30.7169 115.911 29.5961 116.063 28.4596C116.13 27.8304 116.127 27.1209 115.723 26.5949C115.452 26.261 114.969 26.2008 114.576 26.3112Z" fill="#222222"></path> <path d="M122.063 25.6146C122.965 25.4254 124.018 25.6347 124.623 26.3742C125.244 27.1223 125.313 28.1586 125.182 29.0844C124.9 30.7685 123.951 32.3923 122.465 33.2809C121.49 33.8542 120.179 34.0577 119.183 33.4271C118.37 32.9054 118.059 31.885 118.065 30.9634C118.124 28.61 119.663 26.1349 122.063 25.6146ZM122.174 26.3097C121.612 26.486 121.171 26.9188 120.852 27.399C120.219 28.375 119.876 29.5144 119.699 30.6567C119.603 31.359 119.551 32.1644 119.997 32.765C120.374 33.2422 121.1 33.1677 121.556 32.8467C122.39 32.2791 122.839 31.3174 123.176 30.3973C123.522 29.3696 123.79 28.2618 123.587 27.1754C123.474 26.5419 122.804 26.0747 122.174 26.3097Z" fill="#222222"></path> <path d="M134.306 25.9342C135.189 25.5516 136.26 25.3695 137.165 25.778C137.905 26.1148 138.147 26.9819 138.139 27.7329C137.757 27.7329 137.377 27.7329 136.998 27.7329C136.937 27.3187 136.933 26.8099 136.566 26.5305C135.685 25.9342 134.299 26.5964 134.22 27.6656C134.325 28.4696 135.149 28.8308 135.734 29.2564C136.338 29.6434 136.995 30.178 137.021 30.9591C136.968 31.7603 136.503 32.4984 135.874 32.9814C134.99 33.6607 133.81 33.8729 132.722 33.7052C132.195 33.6163 131.653 33.3268 131.431 32.8166C131.243 32.4181 131.276 31.9667 131.298 31.5396C131.718 31.5281 132.139 31.5295 132.56 31.531C132.552 31.9538 132.572 32.4597 132.959 32.7263C133.793 33.2465 135.124 32.6776 135.205 31.6557C135.249 30.9448 134.591 30.5091 134.065 30.1708C133.4 29.7423 132.58 29.2392 132.545 28.3521C132.575 27.2843 133.37 26.3714 134.306 25.9342Z" fill="#222222"></path> <path d="M95.9874 25.7321C96.3715 25.725 96.757 25.7264 97.1425 25.7192C97.9967 27.366 98.7993 29.04 99.6765 30.6739C100.172 29.0214 100.73 27.3875 101.223 25.7336C101.611 25.7235 102 25.7235 102.39 25.7293C101.567 28.4065 100.685 31.0666 99.8657 33.7439C99.5876 33.751 99.3124 33.7525 99.0373 33.7525C98.1401 31.938 97.283 30.102 96.3457 28.3091C95.7795 30.0848 95.2163 31.8621 94.6545 33.6407C94.2632 33.6464 93.8719 33.6464 93.4821 33.6407C94.3191 31.005 95.1633 28.3721 95.9874 25.7321Z" fill="#222222"></path> <path d="M47.6232 25.7365C48.4717 25.715 49.3201 25.7307 50.1686 25.725C50.8766 25.7365 51.6563 25.8354 52.1952 26.3384C52.6553 26.7928 52.6452 27.5266 52.4216 28.0927C52.0705 29.0701 51.1676 29.7667 50.1872 30.0419C49.495 30.2554 48.764 30.1981 48.0503 30.2067C47.6805 31.3518 47.3065 32.4955 46.9467 33.6436C46.3261 33.645 45.707 33.6464 45.0878 33.6421C45.932 31.0064 46.8034 28.3793 47.6232 25.7365ZM49.2184 26.5276C48.9403 27.5151 48.5835 28.4768 48.3011 29.4628C48.7655 29.4585 49.2814 29.4858 49.6713 29.1834C50.3033 28.709 50.7605 27.8605 50.5771 27.0651C50.4094 26.4903 49.7057 26.4803 49.2184 26.5276Z" fill="#222222"></path> <path d="M54.507 25.7321C55.4457 25.7207 56.3859 25.7264 57.3247 25.7264C57.994 25.7436 58.7393 25.8267 59.2352 26.3284C59.6451 26.7569 59.6164 27.4319 59.4416 27.9579C59.0804 28.9426 58.1273 29.556 57.1685 29.8641C57.6171 31.1282 58.0986 32.3823 58.5573 33.6435C57.8894 33.645 57.2215 33.6493 56.555 33.6392C56.1079 32.4425 55.7008 31.23 55.2121 30.0504C55.1448 30.0705 55.0129 30.1092 54.9455 30.1293C54.5614 31.2959 54.1816 32.4669 53.819 33.6407C53.2013 33.6478 52.5836 33.645 51.9659 33.6421C52.8244 31.0093 53.6786 28.3736 54.507 25.7321ZM56.0864 26.5304C55.8098 27.4764 55.4816 28.4065 55.1963 29.3496C56.4691 29.5546 57.8421 28.4094 57.5898 27.0837C57.4107 26.4258 56.6195 26.4889 56.0864 26.5304Z" fill="#222222"></path> <path d="M61.7921 25.7321C63.5478 25.7092 65.302 25.7493 67.0577 25.7106C67.0004 25.9557 66.9316 26.1979 66.8628 26.4401C65.6876 26.4473 64.5123 26.4401 63.3385 26.4444C63.0748 27.2915 62.8154 28.1385 62.556 28.987C63.5291 28.987 64.5023 28.9884 65.4769 28.9856C65.3995 29.2249 65.325 29.4657 65.2504 29.705C64.2758 29.7007 63.3027 29.705 62.331 29.7036C62.0171 30.7298 61.7003 31.756 61.3836 32.7807C62.5531 32.7908 63.7226 32.7822 64.8921 32.785C64.8076 33.0717 64.7216 33.3583 64.6341 33.6464C62.8741 33.6407 61.1156 33.6507 59.3556 33.6407C60.1711 31.005 60.9837 28.3693 61.7921 25.7321Z" fill="#222222"></path> <path d="M75.2028 25.725C75.809 25.7278 76.4153 25.7221 77.0215 25.7293C76.1816 28.3693 75.3461 31.0107 74.4947 33.6478C73.8899 33.6421 73.2837 33.6478 72.6789 33.6421C73.5116 31.0007 74.3572 28.3635 75.2028 25.725Z" fill="#222222"></path> <path d="M85.2238 25.725C85.8459 25.7278 86.4679 25.7221 87.0913 25.7293C86.2386 28.3707 85.3672 31.005 84.5087 33.6435C83.8838 33.645 83.2603 33.6478 82.6369 33.6407C83.4954 31.0007 84.3625 28.3635 85.2238 25.725Z" fill="#222222"></path> <path d="M105.296 25.7264C107.402 25.7235 109.51 25.7307 111.617 25.7221C111.544 25.9629 111.476 26.2022 111.407 26.443C110.638 26.4387 109.87 26.453 109.101 26.433C108.375 28.8308 107.68 31.2386 106.974 33.6421C106.411 33.6464 105.848 33.645 105.286 33.6435C105.991 31.2443 106.699 28.8465 107.404 26.4459C106.633 26.4416 105.862 26.4387 105.091 26.4487C105.159 26.208 105.226 25.9672 105.296 25.7264Z" fill="#222222"></path> <path d="M127.61 25.7379C128.229 25.7164 128.851 25.7264 129.473 25.7278C128.721 28.0826 127.938 30.4274 127.183 32.7807C128.443 32.7908 129.704 32.7822 130.965 32.785C130.869 33.0717 130.775 33.3598 130.677 33.6464C128.795 33.6378 126.912 33.6536 125.03 33.6392C125.903 31.0093 126.756 28.3736 127.61 25.7379Z" fill="#222222"></path> <path d="M6.21876 28.8064C6.42228 28.1228 6.66593 27.4521 6.86658 26.7684C11.4601 26.7627 16.0521 26.767 20.6442 26.7655C20.2701 27.9021 19.9061 29.0429 19.5435 30.1838C19.3915 30.6926 19.0103 31.0795 18.7193 31.5095C15.5319 35.9382 12.3143 40.3453 9.14684 44.7883C11.2136 44.7883 13.2817 44.7855 15.3498 44.7898C15.132 45.4978 14.8941 46.1986 14.6705 46.9052C9.78033 46.8966 4.89016 46.9095 0 46.898V46.8636C4.30111 40.8326 8.64235 34.8303 12.9564 28.8079C10.7105 28.8079 8.46463 28.8093 6.21876 28.8064Z" fill="#222222"></path> <path d="M147.131 32.967C147.823 32.9613 148.517 32.9642 149.209 32.9642C151.406 32.9642 153.604 32.9642 155.802 32.9642C157.367 32.9642 158.933 32.9642 160.5 32.9642C162.72 32.9642 164.94 32.9642 167.161 32.9642C169.608 32.9642 172.056 32.9642 174.504 32.9642C176.596 32.9642 178.689 32.9642 180.783 32.9642C182.656 32.9613 184.531 32.9713 186.405 32.9584C188.549 32.947 190.692 32.947 192.836 32.9584C194.8 32.9699 196.765 32.9613 198.731 32.9627C200.791 32.9656 202.852 32.9642 204.913 32.9642C205.49 32.9642 206.068 32.9642 206.648 32.9642C206.2 33.9789 205.755 34.9965 205.299 36.0083C208.994 36.0112 212.688 36.0083 216.383 36.0098C216.378 36.2133 216.377 36.4168 216.38 36.6203C212.6 36.6132 208.822 36.6289 205.044 36.6132C204.626 37.5032 204.247 38.4133 203.838 39.3091C203.322 39.3048 202.807 39.3062 202.293 39.3076C200.28 39.3062 198.267 39.3062 196.253 39.3062C194.592 39.3091 192.931 39.3005 191.271 39.3105C189.227 39.3191 187.184 39.3205 185.141 39.3105C183.563 39.299 181.985 39.3148 180.409 39.3019C178.495 39.2919 176.581 39.2919 174.667 39.3019C172.483 39.3119 170.299 39.3048 168.114 39.3062C166.085 39.3076 164.056 39.3062 162.028 39.3062C160.719 39.3062 159.41 39.3062 158.102 39.3062C156.009 39.3076 153.917 39.3048 151.824 39.3076C151.174 39.3062 150.523 39.3048 149.872 39.3076C149.484 38.4147 149.081 37.5261 148.721 36.6203C105.957 36.6175 63.1923 36.6203 20.4278 36.6189C20.4249 36.4698 20.4177 36.1703 20.4134 36.0198C32.6216 35.9969 44.8284 36.0169 57.0352 36.0098C87.5027 36.0112 117.97 36.0083 148.438 36.0112C148.009 34.9936 147.559 33.9846 147.131 32.967ZM147.85 33.4242C148.611 35.2358 149.414 37.0302 150.18 38.8404C167.961 38.8404 185.743 38.8404 203.524 38.8404C204.328 37.0431 205.116 35.2401 205.923 33.4429C186.566 33.4085 167.207 33.4472 147.85 33.4242Z" fill="#222222"></path> <path d="M190.563 33.9316C190.845 33.7066 191.393 33.6421 191.571 34.0276C191.76 34.6826 190.642 35.0725 190.355 34.4777C190.285 34.2756 190.418 34.0634 190.563 33.9316Z" fill="#222222"></path> <path d="M194.942 33.8499C195.288 33.6378 195.875 33.7611 195.862 34.2484C195.718 34.7098 195.078 34.9205 194.692 34.6368C194.448 34.3745 194.669 33.9861 194.942 33.8499Z" fill="#222222"></path> <path d="M175.758 34.9005C175.86 33.9001 177.147 33.8399 177.865 34.1939C177.726 34.3444 177.588 34.4949 177.452 34.6439C177.377 34.5565 177.23 34.3816 177.157 34.2942C176.953 34.4562 176.856 34.6855 176.826 34.9363C176.943 34.9363 177.178 34.9349 177.296 34.9349C177.273 35.0352 177.225 35.2344 177.202 35.3333C177.094 35.3319 176.874 35.3261 176.764 35.3247C176.576 36.1259 176.393 36.9299 176.199 37.7311C175.839 37.7297 175.483 37.7297 175.126 37.7282C175.316 36.9299 175.501 36.1302 175.685 35.329C175.604 35.3276 175.442 35.3247 175.362 35.3233C175.398 35.1011 175.487 34.8646 175.758 34.9005Z" fill="#222222"></path> <path d="M152.515 34.0821C153.622 34.0621 154.728 34.0807 155.835 34.075C155.817 34.1681 155.782 34.3545 155.764 34.4476C155.427 34.4834 155.089 34.4677 154.754 34.4748C154.504 35.5612 154.271 36.6533 153.999 37.734C153.563 37.7283 153.127 37.7297 152.693 37.7283C152.932 36.6404 153.183 35.5541 153.434 34.4691C153.097 34.4691 152.763 34.4705 152.429 34.4648C152.451 34.3688 152.494 34.1782 152.515 34.0821Z" fill="#222222"></path> <path d="M156.138 34.0692C156.481 34.0749 156.825 34.0749 157.172 34.0778C157.094 34.4376 157.018 34.7973 156.934 35.1542C157.273 34.8747 157.746 34.7729 158.165 34.9162C158.417 35.008 158.586 35.3032 158.49 35.5669C158.33 36.2878 158.175 37.0116 158.007 37.7325C157.652 37.7297 157.296 37.7297 156.944 37.7311C157.083 36.8869 157.425 36.0714 157.434 35.2086C157.176 35.2201 156.919 35.3534 156.855 35.6185C156.631 36.3065 156.527 37.0274 156.358 37.7297C155.999 37.7297 155.641 37.7297 155.284 37.7297C155.567 36.5086 155.843 35.286 156.138 34.0692Z" fill="#222222"></path> <path d="M169.5 34.6454C169.763 34.4089 169.896 33.9546 170.337 34.0563C170.271 34.3473 170.207 34.6396 170.142 34.9306C170.337 34.932 170.534 34.9349 170.733 34.9363C170.707 35.0352 170.657 35.233 170.633 35.3319C170.435 35.329 170.24 35.3276 170.048 35.3261C169.903 36.0313 169.702 36.7278 169.618 37.4445C169.83 37.4043 170.016 37.3097 170.177 37.1607C170.231 37.2682 170.342 37.4817 170.397 37.5892C169.936 37.8085 169.391 37.8816 168.901 37.7239C168.638 37.658 168.48 37.3556 168.58 37.1019C168.695 36.5014 168.854 35.9109 168.96 35.3104L168.673 35.3433C168.662 34.8331 169.232 34.9306 169.5 34.6454Z" fill="#222222"></path> <path d="M159.151 35.4566C159.694 34.8603 160.719 34.6153 161.378 35.1642C161.674 35.4465 161.628 35.8808 161.642 36.2549C161.04 36.2678 160.438 36.2491 159.836 36.2721C159.817 36.6347 159.568 37.1105 159.929 37.3814C160.325 37.539 160.687 37.304 160.824 36.9299C161.02 36.9844 161.384 37.218 161.125 37.433C160.53 37.8887 159.59 37.9604 158.97 37.5175C158.341 36.97 158.662 35.9869 159.151 35.4566ZM159.952 35.9052C160.16 35.9037 160.369 35.9009 160.583 35.898C160.58 35.6615 160.736 35.3089 160.46 35.1728C160.103 35.1914 160.064 35.6458 159.952 35.9052Z" fill="#222222"></path> <path d="M163.633 35.2115C164.149 34.8259 164.847 34.7844 165.456 34.9334C165.734 34.9879 165.959 35.2487 165.899 35.544C165.817 36.2864 165.572 36.9987 165.423 37.7297C165.087 37.7297 164.752 37.7297 164.421 37.7297C164.438 37.658 164.474 37.5147 164.493 37.4445C164.114 37.711 163.558 37.9805 163.13 37.6752C162.735 37.208 163.068 36.3767 163.66 36.2692C163.686 36.2233 163.74 36.1302 163.766 36.0843C163.37 35.9854 163.333 35.4336 163.633 35.2115ZM164.324 35.7002C164.119 35.8192 163.908 35.9252 163.693 36.017C164.044 36.2377 164.444 36.0198 164.818 35.9912C164.864 35.7289 164.893 35.4623 164.887 35.1957C164.554 35.094 163.945 35.2975 164.324 35.7002ZM164.183 36.6003C164.053 36.8253 163.981 37.3241 164.379 37.2667C164.639 37.0016 164.635 36.6031 164.735 36.2663C164.531 36.3394 164.269 36.371 164.183 36.6003Z" fill="#222222"></path> <path d="M167.56 35.4007C167.859 35.0897 168.173 34.7213 168.66 34.7729C168.682 35.0667 168.576 35.3391 168.443 35.5927C168.01 35.3534 167.567 35.7547 167.421 36.146C167.226 36.6562 167.183 37.2094 167.035 37.734C166.681 37.7283 166.327 37.7283 165.976 37.7326C166.175 36.7952 166.384 35.8593 166.608 34.9277C166.961 34.9349 167.315 34.9349 167.67 34.9378C167.643 35.0539 167.587 35.286 167.56 35.4007Z" fill="#222222"></path> <path d="M173.475 34.912C174.005 34.7686 174.704 34.8761 174.965 35.4208C175.514 36.6834 174.082 38.1682 172.795 37.7311C172.079 37.5061 171.879 36.5774 172.208 35.9625C172.448 35.448 172.929 35.0581 173.475 34.912ZM173.622 35.2975C173.245 35.9124 173.096 36.6849 173.161 37.3986C173.364 37.5921 173.588 37.2768 173.665 37.1019C173.883 36.5071 174.09 35.8636 173.999 35.2244C173.928 35.2158 173.784 35.1986 173.713 35.19L173.622 35.2975Z" fill="#222222"></path> <path d="M183.031 35.3935C183.308 35.0495 183.655 34.7142 184.142 34.7758C184.118 35.0452 184.081 35.3276 183.914 35.5526C183.671 35.5368 183.39 35.4881 183.211 35.6916C182.663 36.2191 182.709 37.0503 182.487 37.7283C182.127 37.7297 181.769 37.7297 181.413 37.7297C181.631 36.7952 181.838 35.8565 182.081 34.9277C182.434 34.9349 182.788 34.9349 183.143 34.9378C183.116 35.051 183.06 35.2803 183.031 35.3935Z" fill="#222222"></path> <path d="M183.83 36.9744C183.593 35.6744 185.072 34.4332 186.296 34.9908C186.811 35.18 186.878 35.7891 186.799 36.2606C186.212 36.2606 185.626 36.2606 185.041 36.2606C184.952 36.6419 184.776 37.1163 185.135 37.4129C185.257 37.4129 185.501 37.4129 185.621 37.4129C185.779 37.2854 185.895 37.1249 185.97 36.9342C186.166 36.9944 186.332 37.1048 186.457 37.2753C185.792 38.0135 184.148 38.0866 183.83 36.9744ZM185.102 35.8908C185.315 35.898 185.528 35.9037 185.744 35.9109C185.77 35.7461 185.792 35.5784 185.82 35.4136C185.783 35.3448 185.707 35.2072 185.669 35.137C185.323 35.2373 185.22 35.5942 185.102 35.8908Z" fill="#222222"></path> <path d="M188.291 34.9435C188.793 34.8302 189.458 34.7428 189.836 35.1756C189.965 35.5296 189.752 35.9008 189.459 36.0958C189.207 36.0843 189.039 35.8937 188.923 35.6945C189.075 35.5769 189.174 35.4221 189.217 35.2344C188.707 35.0767 188.314 35.501 188.254 35.9739C188.202 36.4283 187.83 37.0732 188.319 37.4029C188.683 37.5046 188.974 37.2165 189.029 36.8754C189.249 36.9872 189.555 37.175 189.409 37.4702C188.727 37.9403 187.553 37.9991 187.046 37.2552C186.635 36.3179 187.33 35.1785 188.291 34.9435Z" fill="#222222"></path> <path d="M192.42 34.9234C192.922 34.8102 193.541 34.7887 193.927 35.1914C193.772 35.2817 193.619 35.3706 193.467 35.4594C193.217 35.1327 192.736 35.071 192.473 35.4222C192.81 35.7862 193.46 35.693 193.697 36.1746C193.95 36.811 193.5 37.5921 192.836 37.7354C192.323 37.8615 191.658 37.8644 191.307 37.4043C191.191 37.1693 191.297 36.9113 191.348 36.6762C191.5 36.735 191.665 36.7966 191.821 36.8583C191.503 37.2295 192.026 37.5032 192.339 37.4473C192.63 37.4903 192.865 37.304 193.05 37.1019C192.703 36.6863 192.006 36.811 191.724 36.3136C191.473 35.7604 191.841 35.071 192.42 34.9234Z" fill="#222222"></path> <path d="M197.007 34.9306C197.583 34.7299 198.378 34.8933 198.599 35.5297C199.126 36.9371 197.172 38.4921 195.979 37.4846C195.195 36.5974 195.959 35.18 197.007 34.9306ZM196.958 35.845C196.828 36.3509 196.611 36.8955 196.767 37.4187C196.841 37.4144 196.988 37.4072 197.063 37.4029C197.51 36.7751 197.627 35.941 197.592 35.1828C197.18 35.1011 197.057 35.554 196.958 35.845Z" fill="#222222"></path> <path d="M200.409 35.1154C200.765 34.866 201.249 34.7543 201.656 34.9492C201.893 35.0481 201.95 35.3376 201.898 35.5655C201.748 36.2878 201.58 37.0087 201.424 37.7311C201.064 37.7296 200.706 37.7296 200.35 37.7282C200.504 36.8869 200.826 36.07 200.855 35.2115C200.603 35.2344 200.325 35.3405 200.264 35.6142C200.039 36.3021 199.943 37.0245 199.771 37.7253C199.412 37.7296 199.053 37.7296 198.697 37.7282C198.899 36.8554 199.102 35.984 199.307 35.1126C199.314 34.8575 199.624 34.9463 199.797 34.9277C199.998 34.9764 200.356 34.8059 200.409 35.1154Z" fill="#222222"></path> <path d="M178.879 34.9349C179.249 34.9406 179.629 34.8962 179.993 34.9965C180.464 34.6841 181.203 34.9105 181.356 35.4738C181.597 36.4197 181.013 37.552 180.036 37.7813C179.777 37.8716 179.521 37.7483 179.318 37.6036C179.255 37.9174 179.189 38.2313 179.12 38.5452C178.768 38.5538 178.415 38.5538 178.065 38.5552C178.333 37.347 178.61 36.1417 178.879 34.9349ZM179.811 35.544C179.685 36.1603 179.478 36.7709 179.481 37.4043C179.642 37.3542 179.867 37.3499 179.928 37.1492C180.169 36.6089 180.356 36.0026 180.351 35.4122C180.313 35.0008 179.854 35.3032 179.811 35.544Z" fill="#222222"></path> <path d="M189.663 37.7326C189.868 36.7995 190.076 35.8665 190.291 34.9335C190.645 34.9349 191.003 34.9349 191.361 34.9349C191.158 35.8651 190.94 36.7938 190.742 37.7254C190.381 37.7297 190.02 37.7297 189.663 37.7326Z" fill="#222222"></path> <path d="M194.539 34.9349C194.894 34.9349 195.251 34.9334 195.611 34.9363C195.399 35.8679 195.169 36.7966 194.954 37.7297C194.596 37.7297 194.238 37.7297 193.882 37.7297C194.094 36.7966 194.318 35.8665 194.539 34.9349Z" fill="#222222"></path> </g> <defs> <clipPath id="clip0_115_633"> <rect width="220" height="47.5831" fill="white"></rect> </clipPath> </defs> </svg> 