<?xml version="1.0" encoding="UTF-8"?> <svg xmlns="http://www.w3.org/2000/svg" width="80" height="80" viewBox="0 0 80 80" fill="none"> <g clip-path="url(#clip0_214_362)"> <path d="M79.9319 42.2087C78.8387 60.3997 64.6885 76.4473 46.5619 79.1685C42.7301 79.7365 39.1598 76.8045 39.0915 72.922C38.9939 67.1693 39.031 61.4421 39.0134 55.6855C26.2159 54.7271 25.767 44.3638 26.3155 33.9966C21.5935 34.4397 21.4061 32.1304 21.6306 28.1405C21.9234 23.8206 27.4379 25.7278 30.3991 25.3335V13.4612C30.2918 12.5652 30.6373 11.3979 31.5899 11.4682C32.275 11.4682 32.724 12.007 32.7259 12.8678C32.7259 17.0178 32.7259 21.1483 32.7259 25.3022H47.5614C47.5614 21.281 47.5614 17.2813 47.5614 13.2621C47.5614 12.0655 47.9401 11.4819 48.715 11.4682C49.49 11.4545 49.8862 12.0343 49.8862 13.225C49.8862 17.2813 49.8862 21.283 49.8862 25.3452C52.6933 25.7492 58.3678 23.8636 58.7836 27.9394C59.0803 32.066 58.9378 34.4846 54.0011 33.9907C54.3915 44.3208 54.3681 54.6061 41.3754 55.6797C41.2427 61.2 41.391 66.7379 41.3754 72.2719C41.3871 74.4797 42.3709 76.0433 44.2195 76.6386C63.6832 76.4434 79.3873 56.0291 77.4723 37.0905C72.1804 -13.6369 -2.30321 -5.6023 3.31473 44.8986C28.8512 40.9946 23.8755 62.9783 36.0893 76.4473C37.6119 78.741 33.7098 78.7429 32.316 78.985C11.2302 82.3034 -4.21034 67.468 1.0289 46.1909C-3.74966 20.9121 19.9284 -3.78106 45.459 0.484124C65.8851 2.79728 81.1597 21.8491 79.9319 42.2087ZM28.6462 42.2556C30.0575 42.5191 33.9167 41.4162 33.8464 43.5107C33.6317 45.4042 30.2098 44.313 28.8121 44.5863C30.2742 56.3395 49.9682 56.3492 51.5259 44.5863C47.2686 44.5863 43.0424 44.5863 38.789 44.5863C37.5475 44.5863 37.0165 44.2545 36.9911 43.4678C36.9658 42.6811 37.5514 42.2556 38.7948 42.2556C43.0737 42.2224 47.3525 42.32 51.6294 42.2126V39.4291H38.8221C38.0511 39.4896 37.0848 39.3275 37.0653 38.3769C36.9306 37.315 38.016 37.0534 38.867 37.1061C43.1212 37.1061 47.3733 37.1061 51.6235 37.1061V34.059H28.7009V37.1022C30.0517 37.3521 33.946 36.3214 33.905 38.3008C33.7859 40.2801 30.0927 39.1441 28.6931 39.4291C28.6033 40.4304 28.6716 41.182 28.6462 42.2556V42.2556ZM30.5377 76.7206C25.7728 74.4582 21.898 71.1359 18.6108 66.7457C18.4332 68.5026 18.8314 69.8495 18.9856 71.5399C19.3331 73.3358 17.0336 73.7828 16.6939 71.9908C16.1114 69.6073 16.068 67.1239 16.5671 64.7215C16.6167 64.3515 16.5231 63.9765 16.3055 63.6732C13.5219 60.0659 11.0936 56.5679 7.86491 53.2572C7.49793 55.748 7.34176 57.9538 8.31387 60.2845C8.97951 61.8052 6.7093 62.6836 6.17835 61.1102C4.94077 58.2076 5.05984 55.0121 5.78795 52.0021C5.84651 51.7503 5.89336 51.354 5.75671 51.2213C4.8822 50.3585 3.95499 49.5503 2.97312 48.6582C-0.47416 67.2357 12.3155 78.8835 30.5377 76.7206V76.7206ZM31.26 74.3528C23.2625 61.7349 24.9627 44.4497 4.85683 46.9522L4.74166 47.2606C8.06011 49.7982 10.8945 53.0171 13.6175 56.2028C13.801 56.4273 14.2246 56.5444 14.5408 56.5542C16.1278 56.5542 23.3816 56.3239 22.6945 58.8966C22.4993 59.5096 21.902 59.8004 21.1836 59.6111C19.3799 59.0255 17.6699 58.6858 15.6535 58.8303C20.1139 64.8855 24.055 71.2061 31.26 74.3528V74.3528ZM40.1886 27.6798C35.0489 27.6798 29.9092 27.6974 24.7675 27.6798C23.3621 27.6388 24.1409 29.5069 23.9438 30.3775C23.9438 31.6834 23.9438 31.6834 25.2223 31.6834C35.3456 31.6834 45.4694 31.6834 55.594 31.6834C57.14 31.8122 56.3162 29.6865 56.5173 28.7554C56.5173 27.7657 56.4392 27.6935 55.4495 27.6935L40.1886 27.6798Z" fill="url(#paint0_linear_214_362)"></path> </g> <defs> <linearGradient id="paint0_linear_214_362" x1="0.000488281" y1="39.1494" x2="80.001" y2="39.1494" gradientUnits="userSpaceOnUse"> <stop stop-color="#002EFE"></stop> <stop offset="0.515625" stop-color="#049BE4"></stop> <stop offset="1" stop-color="#00EEC5"></stop> </linearGradient> <clipPath id="clip0_214_362"> <rect width="80" height="79.4417" fill="white"></rect> </clipPath> </defs> </svg> 