<?xml version="1.0" encoding="UTF-8"?> <svg xmlns="http://www.w3.org/2000/svg" width="220" height="90" viewBox="0 0 220 90" fill="none"> <path d="M27.5498 0.153673C28.1276 0.147981 28.7081 0.142289 29.2887 0.136597C29.1891 1.03026 29.118 1.92677 29.0724 2.82327C32.6015 3.41241 36.4039 2.59274 39.7024 4.28045C39.5459 5.23957 39.3495 6.18731 39.1902 7.14358C41.6918 7.51357 44.1622 6.74514 46.6639 6.89029C46.237 7.60749 45.6308 8.17955 45.0217 8.73738C46.0776 9.61111 47.2673 10.3568 48.0812 11.4867C44.1195 11.0911 40.0895 11.4667 36.1705 10.6613C36.3441 9.66803 36.6059 8.69184 36.7995 7.70141C34.4572 6.64552 31.8417 6.92728 29.3457 6.84759C28.8476 16.1713 29.2091 25.512 29.1521 34.8414C30.6036 33.7257 31.8047 32.3255 33.2704 31.2241C32.3909 29.1692 31.8445 26.8497 32.3141 24.6297C32.8805 23.8812 33.5749 23.2266 34.3291 22.6688C35.5415 21.8122 37.4142 22.4497 37.9578 23.8072C39.0222 26.3118 38.1457 29.0411 37.7501 31.5827C38.177 32.2059 39.1816 32.0323 39.8618 32.223C40.0667 31.17 40.1351 30.0999 40.2176 29.0297C45.4799 28.6171 50.7764 28.6313 56.0416 29.0127C56.1299 33.3387 56.6735 37.6846 56.1526 42.0021C55.8851 43.9402 55.3244 45.9495 53.964 47.421C52.837 48.6476 51.2432 49.2424 49.7803 49.9568C52.5609 49.675 55.6546 49.8003 57.903 51.6758C60.7519 54.0523 61.6028 57.9144 62.0753 61.4207C62.525 65.408 62.562 69.4295 62.5193 73.4367C61.6427 73.0724 60.7035 72.7309 60.0546 72.0023C59.0613 70.9038 58.6003 69.4466 58.2957 68.0264C57.5472 64.3408 57.7521 60.5299 56.9808 56.8471C56.6194 55.2846 56.0246 53.6054 54.6329 52.6748C53.5997 51.9604 52.2905 52.0116 51.0952 52.0116C51.6046 54.5873 52.5438 57.2085 51.9234 59.8611C51.6872 61.3382 50.6797 62.7185 50.9273 64.244C51.7213 65.5959 53.5229 65.9089 54.3397 67.2409C54.4678 68.0662 53.577 68.5415 53.1102 69.088C53.8075 70.1268 54.4849 71.2709 54.4279 72.5687C54.3881 75.6538 52.8228 78.4572 52.5382 81.5082C52.4101 82.3563 52.5268 83.2556 52.2222 84.0668C51.6957 84.6189 51.0411 85.0259 50.4463 85.4955C50.5402 86.4404 50.6427 87.3853 50.7195 88.333C49.2851 88.5891 47.8165 88.6404 46.3708 88.4468C48.3004 84.6843 50.5829 80.8735 50.8476 76.5475C51.0127 74.3019 50.0735 71.7832 47.9788 70.7273C44.7542 70.9237 42.3151 73.3627 39.5602 74.7715C39.7537 75.6339 40.0041 76.482 40.2034 77.3444C39.0792 78.3775 37.7814 79.2285 36.2957 79.6383C36.4807 77.3785 37.2008 75.2212 37.7558 73.0354C37.9294 72.4406 38.0404 71.6864 38.7177 71.4587C40.6303 70.5508 42.668 69.8678 44.3899 68.6013C42.429 66.9107 39.7679 66.5095 37.6448 65.0921C37.104 64.7734 36.5604 64.3038 35.8859 64.4176C34.3462 64.5457 32.9004 65.1348 31.4147 65.5247C31.2212 66.4867 31.0818 67.5084 30.4898 68.3252C30.0942 68.9371 29.488 69.495 29.525 70.2833C29.357 74.0942 30.2735 77.8766 29.9604 81.6846C29.8608 83.1902 29.3514 84.6303 28.6598 85.9622C26.7472 80.421 28.6285 74.5809 28.1446 68.903C26.9407 68.5956 25.6999 68.4704 24.4618 68.3992C24.4618 68.2342 24.4618 67.9097 24.4618 67.7446C25.1363 67.238 25.8166 66.7371 26.4655 66.1992C23.756 65.7382 20.9982 66.0228 18.2745 65.7752C15.9578 71.7803 16.6978 78.3405 16.3335 84.6303C15.6277 84.9633 14.9418 85.3304 14.273 85.7317C14.3754 86.6851 14.495 87.6386 14.5889 88.5948C13.1459 88.979 11.6432 89.0388 10.1661 88.8197C11.0711 85.5752 13.9627 83.1503 14.1335 79.6611C14.5633 74.9395 13.3821 70.2805 13.1715 65.5788C11.4639 65.5845 9.7705 65.3454 8.10272 64.9868C6.69676 64.7506 5.1542 64.3778 3.79664 65.0067C2.62406 65.6016 2.73506 67.1242 2.86598 68.2285C3.15627 70.0841 3.52626 72.045 2.68952 73.821C3.40673 74.0686 4.12678 74.3133 4.84683 74.5467C4.87244 76.0096 4.9379 77.4781 4.76429 78.9353C3.47503 77.962 2.14877 76.9744 1.20388 75.6453C0.18784 74.2137 0.136611 72.3922 0 70.7102V68.7607C0.176455 66.942 0.344373 65.0807 1.05873 63.3788C1.35188 62.7043 1.78163 61.9586 2.57283 61.8163C5.33635 61.1532 8.28486 61.1019 10.8634 59.7728C10.6613 55.7229 13.015 52.1312 13.0833 48.1211C13.1203 46.8631 13.1089 45.5796 12.8015 44.3501C12.5483 43.3283 11.6005 42.7364 10.9203 42.0078C8.95653 40.0668 8.58939 37.1125 6.76792 35.0691C5.80595 34.1555 5.89418 32.7438 5.5868 31.5514C5.34489 30.5723 6.15601 29.7299 7.05252 29.5193C9.82742 28.7679 12.7532 29.4737 15.5508 28.9017C17.1646 28.5687 18.1123 27.0859 19.4414 26.2492C19.4215 26.9777 19.3133 27.7092 19.3446 28.4406C19.6122 29.2375 20.1984 29.875 20.651 30.5723C22.8026 33.6062 24.3622 37.0129 25.5946 40.5107C26.6248 39.7309 27.8743 38.7547 27.7519 37.3061C27.638 24.9229 27.9966 12.534 27.5498 0.153673ZM41.3645 31.0362C40.7156 35.0122 40.6417 39.1674 41.7886 43.0608C42.4147 45.0815 43.5019 47.1847 45.4828 48.1581C47.438 49.1087 49.7433 48.5537 51.5705 47.5746C53.54 46.4675 54.4877 44.222 54.8719 42.0931C55.5692 38.2026 55.2021 34.2238 54.8918 30.3105C50.7878 29.3912 46.5671 30.1312 42.4119 29.9291C41.7573 29.8067 41.4072 30.4869 41.3645 31.0362ZM10.4536 35.2199C10.7012 36.9788 11.4013 38.9255 13.2085 39.6057C13.3765 38.8003 13.5871 37.918 13.1858 37.1438C12.6991 36.051 11.5265 35.5501 10.4536 35.2199ZM8.49547 35.3821C9.03907 37.9749 10.3568 40.5506 12.6763 41.9708C11.7172 39.5431 10.3113 37.2634 8.49547 35.3821ZM29.2774 46.7407C29.5307 47.7739 31.1927 47.9446 31.4546 46.829C31.9754 44.5635 31.3037 42.1216 30.2023 40.118C28.9586 42.0334 28.5858 44.5664 29.2774 46.7407ZM39.3922 48.2605C40.3827 48.2691 41.3702 48.2662 42.3607 48.2691C41.2706 46.0833 40.209 43.8691 39.6057 41.4926C38.3876 43.5503 38.7689 46.0748 39.3922 48.2605ZM26.7017 46.3338C26.9322 46.6241 27.2567 46.8204 27.5441 47.051C27.8543 45.9581 27.9056 44.7997 27.5868 43.704C27.0973 44.4838 26.4882 45.3604 26.7017 46.3338Z" fill="#222222"></path> <path d="M149.828 30.6548C153.542 30.1966 157.745 30.8483 160.432 33.6716C161.943 35.2028 162.791 37.2491 163.261 39.3211C161.468 39.5288 159.664 39.4121 157.868 39.4207C157.344 37.9094 156.328 36.5148 154.817 35.8859C151.789 34.497 147.793 35.5443 145.977 38.3733C143.797 42.0134 144.341 47.1534 147.323 50.193C149.526 52.467 153.397 52.3987 155.81 50.5061C157.091 49.4587 157.518 47.7795 157.837 46.2313C159.689 46.2313 161.539 46.2284 163.392 46.2313C163.315 48.1951 162.84 50.193 161.67 51.8039C159.803 54.4791 156.584 55.9164 153.408 56.2437C149.717 56.6251 145.738 55.6916 142.943 53.1557C140.772 51.1976 139.693 48.306 139.354 45.4571C138.984 42.0647 139.559 38.4672 141.438 35.57C143.287 32.7467 146.532 31.0703 149.828 30.6548Z" fill="#222222"></path> <path d="M70.9493 31.0646C72.8021 31.0504 74.6549 31.059 76.5105 31.0561C76.519 37.7472 76.4735 44.4382 76.5333 51.1265C80.7625 51.3599 84.9974 51.1635 89.2295 51.2432C89.258 51.8124 89.2693 52.3844 89.2836 52.9536C92.4256 45.7275 95.1834 38.342 98.169 31.0504C100.147 31.0646 102.125 31.0476 104.103 31.0646C107.35 39.3068 110.575 47.5604 113.888 55.7798C111.901 55.9676 109.906 55.8708 107.917 55.8538C107.219 54.0608 106.479 52.2791 106.038 50.4007C102.768 50.3267 99.4952 50.3751 96.2223 50.3723C95.5307 51.9177 94.97 53.5143 94.3638 55.0939C94.1959 55.3927 94.1019 55.9562 93.6409 55.8794C86.0448 55.9022 78.4486 55.8908 70.8525 55.8822C70.8838 47.6088 70.6846 39.3353 70.9493 31.0646ZM97.6396 46.2341C99.8737 46.2426 102.105 46.2398 104.339 46.237C103.354 43.1746 102.29 40.1293 100.998 37.1808C99.9477 40.2261 98.7012 43.1945 97.6396 46.2341Z" fill="#222222"></path> <path d="M114.764 31.0619C116.617 31.0562 118.473 31.0505 120.328 31.0619C124.185 36.4523 127.532 42.1843 131.385 47.5747C131.422 42.0676 131.38 36.5633 131.408 31.0562C133.212 31.0562 135.02 31.0562 136.827 31.0562C136.824 39.3297 136.821 47.6003 136.83 55.8709C134.968 55.8994 133.107 55.8994 131.246 55.8738C127.258 50.6 124.062 44.7912 120.209 39.435C119.901 44.9108 120.177 50.398 120.069 55.8795C118.262 55.8937 116.458 55.8965 114.653 55.8795C114.702 47.606 114.508 39.3325 114.764 31.0619Z" fill="#222222"></path> <path d="M165.948 31.0618C167.889 31.0533 169.83 31.0504 171.771 31.0646C171.754 39.3296 171.751 47.5917 171.771 55.8566C169.827 55.9164 167.88 55.8879 165.936 55.8794C165.942 47.6088 165.919 39.3353 165.948 31.0618Z" fill="#222222"></path> <path d="M175.34 31.0532C181.84 31.0646 188.34 31.0447 194.841 31.0618C194.824 32.5958 194.824 34.1298 194.844 35.661C190.21 35.7435 185.571 35.6894 180.938 35.6894C180.884 37.4113 180.881 39.1332 180.938 40.8522C185.133 41.0827 189.331 40.9148 193.529 40.9717C193.532 42.3891 193.535 43.8035 193.526 45.2209C189.322 45.2209 185.116 45.2067 180.912 45.2266C180.895 47.2274 180.898 49.231 180.909 51.2318C185.631 51.2488 190.35 51.2346 195.069 51.2374C195.083 52.7857 195.086 54.334 195.069 55.8851C188.451 55.8907 181.832 55.8964 175.214 55.8822C175.28 47.6059 175.075 39.3267 175.34 31.0532Z" fill="#222222"></path> <path d="M197.627 31.0789C202.093 31.2326 206.564 30.7801 211.024 31.1045C213.391 31.3379 215.996 31.7876 217.706 33.5977C219.482 35.5785 219.499 38.6067 218.566 40.9775C218.036 42.4204 216.886 43.5446 215.512 44.1935C216.562 44.6204 217.532 45.3433 217.957 46.4305C219.215 49.4274 218.893 52.7772 219.752 55.8766C217.914 55.8994 216.072 55.888 214.234 55.888C213.335 53.5827 213.821 51.0411 213.132 48.6988C212.751 47.3669 211.479 46.4988 210.144 46.3338C207.876 46.0349 205.585 46.3765 203.308 46.2598C203.092 49.4616 203.251 52.6719 203.205 55.8794C201.31 55.8965 199.412 55.8937 197.519 55.8823C197.562 47.6145 197.391 39.3439 197.627 31.0789ZM203.191 35.3281C203.157 37.6732 203.186 40.0212 203.174 42.3692C205.727 42.1871 208.297 42.6538 210.836 42.2725C212.037 42.1188 213.204 41.3276 213.448 40.0838C213.858 38.4217 213.477 36.0311 211.559 35.5273C208.818 34.83 205.975 35.6241 203.191 35.3281Z" fill="#222222"></path> <path d="M48.2605 32.1803C48.6732 32.4905 49.0944 32.7837 49.5242 33.074C49.8059 32.8833 50.0877 32.6926 50.3695 32.5019C50.6797 33.0313 50.9159 33.6062 51.2859 34.0985C51.6047 34.1498 51.9263 34.1896 52.2507 34.2209C52.2706 34.5596 52.2991 34.9011 52.3304 35.2398C52.7459 35.4789 53.1614 35.7122 53.5798 35.9485C53.4375 36.4038 53.2924 36.8564 53.1529 37.3117C53.4517 37.6476 53.7591 37.9749 54.0722 38.2936C53.7648 38.7319 53.4688 39.1787 53.1558 39.6142C53.2781 39.9386 53.4091 40.2631 53.54 40.5875C52.7915 41.0372 52.0999 41.6491 52.1966 42.6111C51.2546 42.5371 50.6655 43.2401 50.5004 44.1053C50.0906 43.9373 49.6779 43.778 49.2567 43.6385C48.9151 44.0113 48.5907 44.4012 48.2634 44.7883C47.9418 44.3785 47.6316 43.9573 47.3157 43.5446C46.9229 43.721 46.5358 43.9117 46.1573 44.1138C45.9296 43.6613 45.6991 43.2144 45.46 42.7676C45.1299 42.7306 44.7997 42.6993 44.4696 42.668C44.4696 41.7459 43.9203 41.0258 43.0893 40.6758C43.4906 39.8703 43.2173 39.0478 42.6396 38.4188C43.2942 37.7187 43.4393 36.7852 43.0409 35.9172C43.8036 35.6013 44.5436 35.106 44.4696 34.1697C44.7912 34.1412 45.11 34.1099 45.4287 34.0758C45.6564 33.5948 45.8699 33.1081 46.0833 32.6214C46.5614 32.7068 47.1107 33.1366 47.5633 32.7637C47.8052 32.5816 48.0386 32.3881 48.2605 32.1803ZM45.4543 35.2113C44.7941 35.8546 44.5493 36.771 44.3045 37.6276C45.3974 38.1286 46.6212 38.0631 47.7653 37.7927C48.067 36.5718 48.1439 35.2483 47.6031 34.0758C46.8461 34.3604 46.0264 34.6023 45.4543 35.2113ZM48.9493 34.0872C48.4768 35.2654 48.5195 36.5547 48.7984 37.7756C49.9426 38.0773 51.1806 38.1257 52.2849 37.6305C52.08 35.8289 50.6797 34.4742 48.9493 34.0872ZM45.0417 39.0706C44.3216 39.8276 44.7201 41.0571 45.3376 41.7544C45.8727 42.4489 46.7635 42.6225 47.5746 42.7705C48.1609 41.6121 48.0585 40.2802 47.7796 39.0535C46.9058 38.8287 45.8243 38.3875 45.0417 39.0706ZM48.4541 40.9831C48.4342 41.6178 48.77 42.1785 49.0176 42.7392C49.7177 42.5769 50.5004 42.4716 51.0298 41.9252C51.7583 41.2165 51.9889 40.1862 52.2649 39.247C51.6815 38.9624 51.0781 38.564 50.3951 38.6807C49.288 38.8144 48.4455 39.8903 48.4541 40.9831Z" fill="#222222"></path> <path d="M86.8474 69.2103C89.11 67.8442 92.1922 68.0748 94.3012 69.6344C95.2489 70.3061 95.6929 71.4217 95.9177 72.5203C95.0952 72.5687 94.2727 72.5801 93.453 72.5744C92.9749 71.9027 92.4968 71.1599 91.717 70.8127C90.2569 70.0955 88.2562 70.6846 87.5816 72.2101C86.7136 74.0942 87.0466 76.519 88.4098 78.0872C89.1954 79.0064 90.6041 79.1118 91.6173 78.5169C92.4797 78.1498 92.7728 77.1821 93.416 76.5845C94.2528 76.5048 95.0952 76.5645 95.9348 76.6015C95.1749 80.7995 89.3263 82.2965 86.2525 79.6696C84.858 78.3917 84.34 76.4108 84.3514 74.5723C84.3684 72.563 85.0828 70.3488 86.8474 69.2103Z" fill="#222222"></path> <path d="M153.75 68.9258C156.038 67.9354 158.89 68.1346 160.942 69.5889C161.895 70.2435 162.308 71.3677 162.555 72.4492C161.71 72.4634 160.868 72.4691 160.025 72.4777C159.47 71.7263 158.995 70.8156 158.07 70.4712C156.988 69.9532 155.625 70.272 154.845 71.1685C153.434 72.7082 152.918 75.1216 153.772 77.0541C154.589 78.8329 157.017 79.2 158.628 78.3576C159.453 77.9279 159.809 77.0228 160.159 76.2174C159.163 76.1804 158.169 76.1832 157.176 76.1861C157.173 75.5514 157.168 74.9196 157.165 74.2906C158.935 74.2422 160.705 74.2593 162.476 74.2735C162.476 76.4052 162.473 78.5341 162.478 80.6658C161.886 80.68 161.294 80.6914 160.705 80.7141C160.614 80.2815 160.532 79.8489 160.452 79.4163C158.502 81.1069 155.486 81.3004 153.237 80.1136C151.353 78.9894 150.585 76.6585 150.613 74.5638C150.613 72.3382 151.615 69.8849 153.75 68.9258Z" fill="#222222"></path> <path d="M101.359 68.5927C102.395 68.5899 103.431 68.5899 104.47 68.587C106.061 72.5687 107.461 76.6271 109.007 80.6287C108.048 80.697 107.088 80.6913 106.129 80.6799C105.848 79.8346 105.583 78.9837 105.335 78.1299C103.79 78.1213 102.245 78.1242 100.699 78.1242C100.349 78.9495 100.062 79.8033 99.8225 80.6685C98.8406 80.6856 97.8587 80.6885 96.8768 80.6685C98.408 76.6584 100.005 72.6683 101.359 68.5927ZM102.956 71.3562C102.458 72.9358 101.69 74.4243 101.342 76.0494C102.384 76.0551 103.431 76.0551 104.476 76.0522C104.003 74.4755 103.574 72.8846 102.956 71.3562Z" fill="#222222"></path> <path d="M110.771 68.6099C112.943 68.6526 115.114 68.4875 117.28 68.6184C118.487 68.7209 119.893 69.0453 120.545 70.1781C121.225 71.5072 120.789 73.1607 119.702 74.1341C122.053 75.3863 121.874 79.442 119.275 80.2702C116.52 81.1097 113.6 80.4978 110.771 80.6544C110.788 76.6386 110.788 72.6257 110.771 68.6099ZM113.222 70.6647C113.225 71.5555 113.225 72.4464 113.225 73.34C114.668 73.266 116.153 73.562 117.568 73.1749C118.655 72.9074 118.703 71.1286 117.599 70.8526C116.179 70.4456 114.676 70.6989 113.222 70.6647ZM113.262 75.3123C113.208 76.4194 113.225 77.5266 113.242 78.6337C114.875 78.6394 116.702 78.961 118.165 78.0502C118.968 77.4953 118.618 76.4508 118.419 75.6823C116.776 75.022 114.981 75.3323 113.262 75.3123Z" fill="#222222"></path> <path d="M123.67 68.5898C124.569 68.5898 125.468 68.5898 126.37 68.5898C126.382 71.5384 126.373 74.4869 126.362 77.4354C126.425 77.7456 126.245 78.4457 126.758 78.4144C128.733 78.5966 130.716 78.4286 132.694 78.4856C132.694 79.2142 132.692 79.9428 132.686 80.6713C129.68 80.697 126.675 80.6913 123.67 80.677C123.655 76.647 123.655 72.617 123.67 68.5898Z" fill="#222222"></path> <path d="M134.502 68.59C137.644 68.5956 140.786 68.5757 143.931 68.6013C143.922 69.3299 143.922 70.0614 143.925 70.7928C141.654 70.8042 139.383 70.7814 137.112 70.8099C137.086 71.6068 137.083 72.4065 137.094 73.2063C139.198 73.2205 141.301 73.2148 143.407 73.2119C143.404 73.9462 143.407 74.6777 143.413 75.4148C141.321 75.429 139.229 75.4119 137.137 75.429C137.069 76.4451 137.077 77.464 137.103 78.4828C139.462 78.4857 141.822 78.4544 144.181 78.5056C144.17 79.2342 144.17 79.9628 144.17 80.6914C141.019 80.643 137.863 80.754 134.715 80.6458L134.522 80.5064C134.453 76.5361 134.507 72.563 134.502 68.59Z" fill="#222222"></path> <path d="M164.9 68.6041C166.193 68.5842 167.49 68.587 168.785 68.5927C169.582 71.6465 170.265 74.7259 170.98 77.7997C172.255 74.8768 172.553 71.6607 173.39 68.6069C174.694 68.5813 175.997 68.5898 177.301 68.5927C177.298 72.6227 177.301 76.6499 177.298 80.677C176.481 80.6827 175.664 80.6856 174.85 80.6827C174.813 77.3984 174.853 74.1112 174.83 70.8268C173.854 74.06 173.123 77.3614 172.425 80.6628C171.506 80.6827 170.587 80.6827 169.668 80.677C169.095 77.4354 168.134 74.2791 167.453 71.0631C167.246 74.2706 167.442 77.4866 167.334 80.697C166.525 80.6856 165.717 80.6856 164.912 80.6913C164.903 76.6613 164.923 72.6312 164.9 68.6041Z" fill="#222222"></path> <path d="M179.865 68.6041C182.056 68.661 184.254 68.476 186.442 68.6269C187.623 68.7492 189.012 69.0651 189.633 70.195C190.31 71.5184 189.846 73.1464 188.779 74.1169C191.112 75.372 190.925 79.328 188.375 80.2046C185.634 81.1182 182.694 80.5234 179.865 80.6685C179.859 76.647 179.859 72.6256 179.865 68.6041ZM182.31 70.6646C182.318 71.5554 182.318 72.4463 182.31 73.3371C183.773 73.2631 185.289 73.5818 186.715 73.1492C187.726 72.8419 187.757 71.1456 186.71 70.8667C185.287 70.4369 183.773 70.6988 182.31 70.6646ZM182.364 75.3037C182.273 76.4108 182.304 77.5265 182.324 78.6364C183.866 78.6535 185.517 78.8954 186.966 78.2266C188.155 77.7314 187.993 75.5542 186.661 75.4005C185.244 75.1386 183.795 75.3265 182.364 75.3037Z" fill="#222222"></path> <path d="M192.612 68.5899C193.515 68.5899 194.417 68.5899 195.322 68.5899C195.328 70.1268 195.333 71.6608 195.325 73.1976C196.93 73.2204 198.535 73.2204 200.14 73.2033C200.265 71.6722 200.217 70.1381 200.194 68.607C201.105 68.5927 202.016 68.5899 202.929 68.587C202.935 72.6171 202.935 76.6471 202.929 80.6799C202.027 80.6856 201.128 80.6856 200.228 80.6799C200.174 78.9609 200.297 77.2362 200.18 75.52L200.041 75.3265C198.492 75.2383 196.938 75.2895 195.39 75.3493C195.285 77.1309 195.37 78.9154 195.313 80.697C194.423 80.6856 193.532 80.6828 192.644 80.6913C192.561 76.6585 192.621 72.6256 192.612 68.5899Z" fill="#222222"></path> </svg> 