<?xml version="1.0" encoding="UTF-8"?> <svg xmlns="http://www.w3.org/2000/svg" width="220" height="32" viewBox="0 0 220 32" fill="none"> <g clip-path="url(#clip0_115_825)"> <path d="M195.999 1.65231C196.519 1.10462 196.944 0.374366 197.66 0.0785678C198.485 -0.127104 198.867 0.767221 199.285 1.29642C199.685 1.94348 200.392 2.81932 199.768 3.55189C197.184 6.82647 194.522 10.041 192.033 13.3895C190.196 15.742 188.731 18.3534 187.342 20.9855C186.519 22.7926 185.526 24.5836 185.255 26.5802C185.126 27.0702 185.445 27.7103 186.022 27.6294C188.622 27.6017 191.132 26.7489 193.607 26.0279C193.062 23.962 192.962 21.6464 194.011 19.7191C195.941 16.2458 200.232 13.8586 204.191 15.088C205.434 15.4277 205.994 16.7034 206.396 17.808C206.703 19.1853 206.188 20.595 205.483 21.7666C204.103 23.8811 202.15 25.5334 200.186 27.0817C200.325 27.3937 200.702 27.4053 200.99 27.5023C204.069 28.258 207.26 27.5647 210.285 26.8737C213.529 25.9193 216.947 24.6737 219.217 22.0439C219.51 23.0607 219.958 24.0729 219.908 25.1521C219.746 25.9748 219.129 26.6519 218.417 27.0586C215.723 28.6578 212.808 29.9126 209.76 30.6521C206.178 31.5141 202.356 31.4771 198.837 30.3494C198.065 30.1067 197.383 29.6538 196.627 29.3834C196.087 29.3672 195.604 29.6561 195.111 29.834C192.331 30.9779 189.265 31.7798 186.251 31.2183C184.467 30.7284 182.81 29.5267 182.085 27.7842C181.105 25.5658 181.562 22.9937 182.628 20.8954C184.058 18.0599 185.644 15.3006 187.365 12.6292C189.937 8.73991 193.062 5.26197 195.999 1.65231ZM197.884 20.1882C196.914 21.3552 196.796 22.9244 196.942 24.3733C198.922 23.2618 200.674 21.7735 202.231 20.1281C202.925 19.4441 203.183 18.4666 203.262 17.5237C201.203 17.6139 199.216 18.6307 197.884 20.1882Z" fill="#222222"></path> <path d="M76.2189 2.72688C76.9284 2.2023 77.7349 1.52751 78.6824 1.74473C79.4866 2.52351 79.7269 3.71364 79.6622 4.79284C79.3918 5.33129 78.8487 5.66869 78.412 6.06155C75.313 8.49726 72.5515 11.4044 70.4601 14.7529C69.2214 16.8905 68.1515 19.1414 67.4328 21.5078C69.8246 22.0046 72.2626 22.1987 74.7029 22.1086C75.3985 19.4903 77.6355 17.6693 79.9141 16.4122C81.816 15.3399 84.016 14.8361 86.1952 14.917C87.5078 14.8361 88.9614 15.1712 89.8534 16.1996C90.646 17.1078 90.6322 18.4157 90.378 19.525C89.5761 21.4823 87.8359 22.8365 86.0866 23.9157C83.8172 25.2006 81.1874 25.8153 78.5876 25.813C78.9319 27.0124 80.0897 27.8466 81.333 27.8281C83.3666 27.8281 85.421 27.2712 87.138 26.1689C90.6668 24.0036 93.6641 21.1195 96.8647 18.522C98.9884 16.916 101.334 15.4115 104.015 14.9886C105.304 14.7714 106.853 15.6935 106.869 17.0985C106.822 18.0853 107.176 19.2384 108.216 19.5689C109.774 20.0334 111.467 20.4263 113.078 19.9918C115.784 19.4025 118.049 17.734 120.512 16.567C123.244 15.192 126.389 14.9378 129.393 15.1989C130.385 15.3607 130.239 16.5508 130.105 17.2834C129.909 18.0275 129.943 18.9842 129.296 19.5019C127.766 20.038 126.103 19.4302 124.543 19.8439C121.795 20.5048 119.174 22.208 117.813 24.7315C117.342 25.5426 117.18 26.9477 118.294 27.2966C120.189 27.7727 122.114 27.0586 123.877 26.4046C126.581 25.3416 129.322 24.163 131.503 22.1918C134.163 19.837 136.906 17.3735 140.338 16.2296C142.524 15.4924 144.86 15.1735 147.162 15.3399C147.985 15.4878 147.818 16.5346 147.693 17.1355C147.502 17.6809 147.49 18.4204 146.961 18.7531C144.967 19.3193 142.847 19.4626 140.934 20.3107C138.699 21.2836 136.518 22.8065 135.55 25.129C135.221 25.7021 135.3 26.3676 135.374 26.9939C137.604 27.5347 139.561 26.0187 141.234 24.7615C143.913 22.5176 146.261 19.904 148.44 17.1794C148.911 16.5832 149.311 15.9223 149.88 15.4069C150.217 15.0441 150.776 15.0557 151.213 15.2012C151.902 15.6889 152.276 16.5208 152.341 17.3458C152.288 18.1431 151.916 18.8779 151.486 19.5342C150.222 21.2952 148.934 23.0838 148.121 25.1059C147.821 25.776 147.818 26.5063 148.005 27.2065C149.457 27.3128 150.635 26.3422 151.8 25.6281C154.952 23.4466 157.795 20.8607 160.66 18.3279C165.827 13.7777 170.463 8.66364 174.828 3.34852C175.348 2.76154 175.861 2.12373 176.575 1.76322C177.271 1.63612 177.768 2.30398 178.207 2.74074C178.852 3.43171 179.413 4.58024 178.736 5.43066C175.988 8.81154 173.486 12.3842 171.027 15.9777C172 15.6519 172.973 15.2798 174.006 15.2059C176.106 15.1666 178.207 16.2088 179.372 17.972C180.802 20.1605 181.391 22.9244 180.839 25.4918C180.502 27.2527 179.681 28.9813 178.292 30.1506C177.019 31.1466 175.365 31.5395 173.772 31.5233C171.399 31.4447 169.199 29.596 168.815 27.2365C168.776 26.6588 168.693 25.9124 169.291 25.5842C169.659 25.4872 170.056 25.4456 170.433 25.5426C171.348 26.1296 171.979 27.2319 173.116 27.4284C174.519 27.6317 175.568 26.4393 176.236 25.3647C176.864 24.1029 177.227 22.6563 177.093 21.2443C176.901 20.3685 176.407 19.4464 175.531 19.1067C174.662 18.8802 173.719 19.0258 172.922 19.421C171.808 19.9618 170.761 20.6504 169.839 21.4731C168.245 22.9013 167.272 24.8447 166.222 26.675C165.307 28.2788 164.63 30.012 163.655 31.5834C162.585 31.2391 161.464 30.8347 160.706 29.9634C160.297 29.5521 160.491 28.9004 160.653 28.4197C161.878 25.3924 163.32 22.4506 164.503 19.4071C161.199 22.4968 157.887 25.6027 154.226 28.2741C152.75 29.3464 151.215 30.4187 149.443 30.9294C148.176 31.2922 146.672 31.1073 145.706 30.1599C144.731 29.2817 144.486 27.9229 144.278 26.6912C142.649 28.147 140.966 29.5891 139.002 30.5735C137.708 31.216 136.22 31.6019 134.782 31.276C133.793 30.9918 132.929 30.2685 132.511 29.3256C132.053 28.3897 132.072 27.3244 132.072 26.3122C129.208 28.0777 126.297 29.8641 123.036 30.8069C120.746 31.4748 118.162 31.8699 115.925 30.8046C114.583 29.9426 113.526 28.4544 113.552 26.8067C113.471 25.5912 113.929 24.4473 114.398 23.3542C112.494 23.6176 110.543 23.8926 108.637 23.4836C107.703 23.3496 106.82 22.8989 105.866 22.9336C105.441 22.9197 105.191 23.3033 104.918 23.5645C103.742 24.891 102.667 26.3422 102.011 28.0015C101.468 29.2147 101.283 30.5805 100.567 31.7128C100.144 31.8977 99.5777 31.9139 99.2427 31.5557C98.3553 30.8139 97.6597 29.6561 97.9254 28.4636C98.3645 26.43 99.6101 24.7199 100.567 22.9128C101.087 21.896 101.926 21.0248 102.15 19.8739C100.909 20.4008 99.8759 21.2882 98.8082 22.0901C96.3193 24.066 93.8721 26.1019 91.3231 28.0038C88.3189 30.1645 84.6122 31.5487 80.8754 31.2529C79.3756 31.0842 77.8181 30.6613 76.6973 29.5983C75.6758 28.7155 75.0496 27.4515 74.7954 26.1412C73.0668 26.2567 71.3475 26.0487 69.6235 25.9725C68.3063 25.8523 67.0284 25.441 65.6996 25.4433C65.4246 26.6357 65.1611 27.872 65.383 29.0968C65.4731 29.7485 65.7042 30.4187 65.524 31.075C65.145 31.5603 64.4355 31.863 63.8555 31.5603C63.2315 31.2552 62.7277 30.7168 62.3603 30.1368C61.8912 28.5076 62.0645 26.7628 62.284 25.1036C61.6763 24.8147 60.9622 24.6298 60.5439 24.066C60.1326 23.2733 60.1742 22.3443 60.1903 21.48C60.2042 20.8515 60.8397 20.2853 61.4706 20.387C62.2771 20.5164 63.0651 20.7683 63.8901 20.7752C64.424 19.2754 65.1103 17.838 65.695 16.359C62.9057 18.3487 60.359 20.6573 57.6506 22.7533C54.2189 25.5542 50.7525 28.3088 47.3277 31.1166C46.9742 31.3685 46.4958 31.722 46.0752 31.3893C45.1231 30.7468 44.2219 29.9704 43.5702 29.016C43.2906 28.667 43.3321 28.2025 43.3668 27.7865C43.5563 25.9355 43.8521 24.0891 43.8706 22.2218C41.1483 24.4057 38.299 26.4277 35.6599 28.7155C34.4513 29.6099 33.4321 30.763 32.1311 31.5256C31.2714 31.5002 30.7099 30.7076 30.0836 30.2176C29.4989 29.596 28.6508 28.9235 28.8195 27.9691C29.0853 26.0441 29.1754 24.1006 29.4666 22.1825C25.4918 25.1636 21.658 28.3319 17.6508 31.2691C17.2141 31.625 16.5624 31.6227 16.1811 31.1905C15.4162 30.4279 14.5565 29.7277 13.9534 28.8265C13.7754 27.9206 14.0481 27.0031 14.1567 26.1019C14.3324 24.7176 14.612 23.3449 14.7206 21.9515C11.1132 24.8725 7.52437 27.8166 3.89622 30.7099C3.33466 31.1258 2.78004 31.6227 2.07059 31.7567C1.375 31.4886 0.848109 30.9248 0.362815 30.3771C-0.212606 29.7531 0.0300423 28.6832 0.721009 28.2464C5.89979 23.955 11.037 19.6082 16.2088 15.3099C17.3805 14.508 18.6815 15.816 19.0651 16.8744C18.8826 20.1212 18.046 23.3149 17.8681 26.5664C19.6567 24.9857 21.6025 23.5899 23.479 22.1155C26.333 20.1443 28.637 17.5099 31.3847 15.4115C32.0918 14.8269 32.9884 15.3699 33.5177 15.9246C34.0792 16.3752 33.9128 17.1632 33.8735 17.7895C33.5246 20.6319 33.1086 23.4651 32.8429 26.3168C36.6975 22.7857 40.6445 19.3586 44.513 15.846C45.0977 15.3515 45.8095 14.5889 46.6414 15.0233C47.6536 15.5386 48.8691 16.5069 48.5525 17.7941C48.155 20.3199 47.8384 22.8573 47.508 25.3924C48.4139 24.8401 49.1719 24.0937 50.0038 23.4443C53.209 20.8746 56.3427 18.217 59.5548 15.6565C64.9901 11.1941 70.6773 7.05524 76.2189 2.72688ZM78.7702 22.2935C81.1666 22.4876 83.4775 21.5378 85.458 20.2668C86.0935 19.8115 86.8214 19.2592 86.8376 18.4019C83.6948 17.8842 80.263 19.4349 78.7702 22.2935Z" fill="#222222"></path> <path d="M22.2473 4.16199C24.0244 3.66745 25.709 5.41451 25.5681 7.16157C25.783 8.79308 24.3571 10.5517 22.654 10.3807C21.3298 10.3437 20.2414 9.15127 20.0912 7.87564C19.7376 6.33194 20.6758 4.55947 22.2473 4.16199Z" fill="#222222"></path> </g> <defs> <clipPath id="clip0_115_825"> <rect width="220" height="31.8908" fill="white"></rect> </clipPath> </defs> </svg> 