<?xml version="1.0" encoding="UTF-8"?> <svg xmlns="http://www.w3.org/2000/svg" width="1458" height="451" viewBox="0 0 1458 451" fill="none"> <g style="mix-blend-mode:overlay"> <path d="M860.35 0.220215H558.15L492.63 65.7402H448.23L416.34 33.8602H7.12988V35.4502H415.68L447.57 67.3302H493.29L493.52 67.1002L558.81 1.81018H859.69L938.18 80.3002H992.13L1162.7 250.87H1219.18L1249.6 281.28H1343.46L1369.24 255.49H1452.33V253.9H1368.59L1342.8 279.69H1250.26L1219.84 249.27H1163.36L992.79 78.7102H938.84L860.35 0.220215Z" fill="#F1E7DD" fill-opacity="0.25"></path> </g> <g style="mix-blend-mode:overlay"> <path d="M1452 248.82C1453.16 248.82 1454.3 249.164 1455.26 249.809C1456.23 250.454 1456.98 251.371 1457.42 252.444C1457.87 253.516 1457.98 254.697 1457.76 255.835C1457.53 256.974 1456.97 258.02 1456.15 258.841C1455.33 259.662 1454.28 260.221 1453.15 260.447C1452.01 260.674 1450.83 260.558 1449.75 260.113C1448.68 259.669 1447.76 258.917 1447.12 257.951C1446.47 256.986 1446.13 255.851 1446.13 254.69C1446.13 253.133 1446.75 251.64 1447.85 250.539C1448.95 249.439 1450.44 248.82 1452 248.82V248.82Z" fill="#F1E7DD" fill-opacity="0.25"></path> </g> <g style="mix-blend-mode:overlay"> <path d="M656 61.3902H537.82L505.24 93.9702H436.09L406.25 64.1302H5.33008V65.7202H405.59L435.44 95.5602H505.9L538.48 62.9902H655.35L702.75 110.39H977L1158.37 291.77H1209.09L1224.1 306.78H1355.41L1371.11 322.48H1444.79V320.89H1371.78L1356.07 305.19H1224.76L1209.75 290.18H1159.03L977.65 108.8H703.41L656 61.3902Z" fill="#F1E7DD" fill-opacity="0.25"></path> </g> <g style="mix-blend-mode:overlay"> <path d="M1444.49 315.82C1445.65 315.818 1446.79 316.161 1447.75 316.805C1448.72 317.448 1449.47 318.364 1449.92 319.437C1450.37 320.509 1450.48 321.69 1450.26 322.829C1450.03 323.969 1449.47 325.015 1448.65 325.837C1447.83 326.659 1446.79 327.219 1445.65 327.447C1444.51 327.674 1443.33 327.558 1442.26 327.114C1441.18 326.67 1440.27 325.918 1439.62 324.952C1438.97 323.987 1438.63 322.852 1438.63 321.69C1438.63 320.135 1439.25 318.644 1440.35 317.543C1441.44 316.442 1442.93 315.823 1444.49 315.82V315.82Z" fill="#F1E7DD" fill-opacity="0.25"></path> </g> <g style="mix-blend-mode:overlay"> <path d="M646.23 88.7502H555.87L514.07 130.56H431.05L397.42 96.9302H5.33008V98.5202H396.76L430.39 132.15H514.72L556.53 90.3502H645.57L695.61 140.38H963.12L1142.47 319.73H1179.88V318.14H1143.13L963.78 138.79H696.27L646.23 88.7502Z" fill="#F1E7DD" fill-opacity="0.25"></path> </g> <g style="mix-blend-mode:overlay"> <path d="M1179.58 313.06C1180.74 313.058 1181.88 313.402 1182.85 314.047C1183.82 314.692 1184.57 315.611 1185.02 316.685C1185.47 317.76 1185.58 318.943 1185.36 320.085C1185.13 321.226 1184.57 322.275 1183.75 323.098C1182.92 323.921 1181.88 324.481 1180.73 324.708C1179.59 324.934 1178.41 324.817 1177.34 324.371C1176.26 323.924 1175.34 323.169 1174.7 322.201C1174.05 321.232 1173.71 320.094 1173.71 318.93C1173.71 317.373 1174.33 315.88 1175.43 314.779C1176.53 313.679 1178.02 313.06 1179.58 313.06V313.06Z" fill="#F1E7DD" fill-opacity="0.25"></path> </g> <g style="mix-blend-mode:overlay"> <path d="M374.71 118.59H5.33008V120.18H374.06L414.31 160.44H562.66L596.05 127.05H605.95V125.46H595.39L562 158.85H414.96L374.71 118.59Z" fill="#F1E7DD" fill-opacity="0.25"></path> </g> <g style="mix-blend-mode:overlay"> <path d="M605.65 120.38C606.814 120.378 607.951 120.721 608.92 121.366C609.888 122.011 610.643 122.929 611.09 124.003C611.536 125.077 611.654 126.26 611.428 127.401C611.203 128.543 610.644 129.591 609.822 130.414C609 131.238 607.952 131.799 606.811 132.027C605.67 132.254 604.487 132.138 603.412 131.694C602.337 131.249 601.418 130.495 600.772 129.528C600.125 128.561 599.78 127.424 599.78 126.26C599.779 125.489 599.93 124.724 600.224 124.011C600.519 123.297 600.951 122.649 601.496 122.103C602.041 121.557 602.689 121.124 603.402 120.828C604.114 120.532 604.879 120.38 605.65 120.38V120.38Z" fill="#F1E7DD" fill-opacity="0.25"></path> </g> <g style="mix-blend-mode:overlay"> <path d="M372.19 130.98H5.33008V132.57H371.53L411.9 172.94H572.75L587.22 158.47H951.77L1136.23 342.93H1209.75L1228.81 323.87H1298.45V322.28H1228.15L1209.09 341.34H1136.89L952.42 156.88H586.56L572.09 171.35H412.56L372.19 130.98Z" fill="#F1E7DD" fill-opacity="0.25"></path> </g> <g style="mix-blend-mode:overlay"> <path d="M1298.15 317.21C1299.31 317.208 1300.45 317.552 1301.42 318.197C1302.39 318.842 1303.14 319.761 1303.59 320.835C1304.04 321.91 1304.15 323.093 1303.93 324.235C1303.7 325.376 1303.14 326.425 1302.32 327.248C1301.5 328.071 1300.45 328.631 1299.3 328.858C1298.16 329.084 1296.98 328.967 1295.91 328.521C1294.83 328.074 1293.91 327.319 1293.27 326.351C1292.62 325.382 1292.28 324.244 1292.28 323.08C1292.28 321.523 1292.9 320.03 1294 318.929C1295.1 317.829 1296.59 317.21 1298.15 317.21V317.21Z" fill="#F1E7DD" fill-opacity="0.25"></path> </g> <g style="mix-blend-mode:overlay"> <path d="M346.96 146.12H5.33008V147.71H346.3L409.37 210.78H555.87L588.3 178.35H942.94L1124.39 359.81H1226.75L1258.2 391.25H1304.36L1320.17 375.44H1394.68V373.85H1319.51L1303.7 389.66H1258.86L1227.41 358.22H1125.05L943.6 176.76H587.64L555.21 209.19H410.03L346.96 146.12Z" fill="#F1E7DD" fill-opacity="0.25"></path> </g> <g style="mix-blend-mode:overlay"> <path d="M1394.38 368.77C1395.54 368.768 1396.68 369.111 1397.65 369.756C1398.62 370.401 1399.37 371.319 1399.82 372.393C1400.27 373.467 1400.38 374.65 1400.16 375.791C1399.93 376.932 1399.37 377.981 1398.55 378.804C1397.73 379.628 1396.68 380.189 1395.54 380.416C1394.4 380.644 1393.22 380.528 1392.14 380.084C1391.07 379.639 1390.15 378.885 1389.5 377.918C1388.85 376.951 1388.51 375.814 1388.51 374.65C1388.51 373.879 1388.66 373.114 1388.95 372.401C1389.25 371.687 1389.68 371.039 1390.23 370.493C1390.77 369.947 1391.42 369.514 1392.13 369.218C1392.84 368.922 1393.61 368.77 1394.38 368.77V368.77Z" fill="#F1E7DD" fill-opacity="0.25"></path> </g> <g style="mix-blend-mode:overlay"> <path d="M324.26 158.85H5.33008V160.44H323.6L405.75 242.59H548.78L597.18 194.19H936.63L1116.47 374.04H1216.66L1266.22 423.59H1315.71L1333.82 405.48H1377.91V403.89H1333.16L1315.05 422H1266.88L1217.32 372.44H1117.13L937.29 192.6H596.52L548.13 241H406.41L324.26 158.85Z" fill="#F1E7DD" fill-opacity="0.25"></path> </g> <g style="mix-blend-mode:overlay"> <path d="M1377.62 398.82C1378.78 398.818 1379.92 399.162 1380.89 399.807C1381.86 400.452 1382.61 401.371 1383.06 402.445C1383.51 403.52 1383.62 404.703 1383.4 405.845C1383.17 406.986 1382.61 408.035 1381.79 408.858C1380.96 409.681 1379.92 410.241 1378.77 410.468C1377.63 410.694 1376.45 410.577 1375.38 410.131C1374.3 409.684 1373.38 408.929 1372.74 407.961C1372.09 406.992 1371.75 405.854 1371.75 404.69C1371.75 403.133 1372.37 401.64 1373.47 400.54C1374.57 399.439 1376.06 398.82 1377.62 398.82V398.82Z" fill="#F1E7DD" fill-opacity="0.25"></path> </g> <g style="mix-blend-mode:overlay"> <path d="M309.22 186.48H50.6701V214.24H25.7701V186.48H5.33008V188.08H24.1801V215.83H52.2601V188.08H307.63V237.75H368.54V281.28H563.92L628.18 217.02H931.59L1115.78 401.21H1217.92L1257.04 440.34H1427.27V438.75H1257.7L1218.58 399.62H1116.44L932.25 215.43H627.52L563.26 279.69H370.13V236.16H309.22V186.48Z" fill="#F1E7DD" fill-opacity="0.25"></path> </g> <g style="mix-blend-mode:overlay"> <path d="M1427 433.67C1428.16 433.668 1429.3 434.011 1430.27 434.656C1431.24 435.301 1431.99 436.219 1432.44 437.293C1432.89 438.367 1433 439.55 1432.78 440.691C1432.55 441.832 1431.99 442.881 1431.17 443.704C1430.35 444.528 1429.3 445.089 1428.16 445.316C1427.02 445.544 1425.84 445.428 1424.76 444.984C1423.69 444.539 1422.77 443.785 1422.12 442.818C1421.48 441.851 1421.13 440.714 1421.13 439.55C1421.13 438.779 1421.28 438.014 1421.57 437.301C1421.87 436.587 1422.3 435.939 1422.85 435.393C1423.39 434.847 1424.04 434.414 1424.75 434.118C1425.46 433.822 1426.23 433.67 1427 433.67V433.67Z" fill="#F1E7DD" fill-opacity="0.25"></path> </g> <g style="mix-blend-mode:overlay"> <path d="M249.84 204.43H101.31L49.8801 255.86H0.560059V257.45H50.5401L101.97 206.02H249.18L334.51 291.35H581.58L644.1 228.83H917.71L1114.11 425.23H1171.58V423.64H1114.77L918.37 227.24H643.44L580.92 289.76H335.17L249.84 204.43Z" fill="#F1E7DD" fill-opacity="0.25"></path> </g> <g style="mix-blend-mode:overlay"> <path d="M1171.28 418.56C1174.52 418.56 1177.15 421.188 1177.15 424.43C1177.15 427.672 1174.52 430.3 1171.28 430.3C1168.04 430.3 1165.41 427.672 1165.41 424.43C1165.41 421.188 1168.04 418.56 1171.28 418.56Z" fill="#F1E7DD" fill-opacity="0.25"></path> </g> <g style="mix-blend-mode:overlay"> <path d="M907.02 239.47H653.91L588.53 304.85H370.06L341.26 333.66H30.76L1.13 304.03L0 305.15L30.1 335.25H341.92L370.72 306.44H589.19L654.57 241.06H906.36L926.07 260.77V327.62L950.5 352.06H1011.05L1104.38 445.38L1105.5 444.25L1011.71 350.47H951.16L927.66 326.97V260.11L907.02 239.47Z" fill="#F1E7DD" fill-opacity="0.25"></path> </g> <g style="mix-blend-mode:overlay"> <path d="M1108.88 440.46C1109.7 441.281 1110.26 442.327 1110.49 443.466C1110.71 444.604 1110.6 445.785 1110.15 446.858C1109.71 447.93 1108.96 448.847 1107.99 449.492C1107.03 450.137 1105.89 450.482 1104.73 450.482C1103.57 450.482 1102.43 450.137 1101.47 449.492C1100.5 448.847 1099.75 447.93 1099.31 446.858C1098.86 445.785 1098.75 444.604 1098.97 443.466C1099.2 442.327 1099.76 441.281 1100.58 440.46C1101.68 439.362 1103.17 438.746 1104.73 438.746C1106.29 438.746 1107.78 439.362 1108.88 440.46V440.46Z" fill="#F1E7DD" fill-opacity="0.25"></path> </g> <g style="mix-blend-mode:overlay"> <path d="M816.6 271.02H749.48V320.89H712.9V271.02H681.18L618.76 333.44H426.4L392.98 366.86H5.33008V368.45H393.63L427.06 335.03H619.42L681.84 272.61H711.31V322.48H751.07V272.61H816.6V271.02Z" fill="#F1E7DD" fill-opacity="0.25"></path> </g> <g style="mix-blend-mode:overlay"> <path d="M816.3 265.95C817.461 265.95 818.596 266.294 819.561 266.939C820.527 267.584 821.279 268.501 821.723 269.574C822.168 270.646 822.284 271.827 822.057 272.965C821.831 274.104 821.272 275.15 820.451 275.971C819.63 276.792 818.584 277.351 817.445 277.577C816.307 277.804 815.126 277.688 814.054 277.243C812.981 276.799 812.064 276.047 811.419 275.081C810.774 274.116 810.43 272.981 810.43 271.82C810.43 270.263 811.049 268.77 812.149 267.669C813.25 266.569 814.743 265.95 816.3 265.95V265.95Z" fill="#F1E7DD" fill-opacity="0.25"></path> </g> <g style="mix-blend-mode:overlay"> <path d="M507.56 347.22H448.2L413.42 382H5.33008V383.59H414.08L448.86 348.81H507.56V347.22Z" fill="#F1E7DD" fill-opacity="0.25"></path> </g> <g style="mix-blend-mode:overlay"> <path d="M507.26 342.15C508.421 342.15 509.556 342.494 510.521 343.139C511.487 343.785 512.239 344.701 512.683 345.774C513.128 346.846 513.244 348.027 513.017 349.165C512.791 350.304 512.232 351.35 511.411 352.171C510.59 352.992 509.544 353.551 508.405 353.777C507.267 354.004 506.086 353.888 505.014 353.443C503.941 352.999 503.024 352.247 502.379 351.281C501.734 350.316 501.39 349.181 501.39 348.02C501.39 346.463 502.009 344.97 503.109 343.869C504.21 342.769 505.703 342.15 507.26 342.15V342.15Z" fill="#F1E7DD" fill-opacity="0.25"></path> </g> <g style="mix-blend-mode:overlay"> <path d="M860.35 0.220215H558.15L492.63 65.7402H448.23L416.34 33.8602H7.12988V35.4502H415.68L447.57 67.3302H493.29L493.52 67.1002L558.81 1.81018H859.69L938.18 80.3002H992.13L1162.7 250.87H1219.18L1249.6 281.28H1343.46L1369.24 255.49H1452.33V253.9H1368.59L1342.8 279.69H1250.26L1219.84 249.27H1163.36L992.79 78.7102H938.84L860.35 0.220215Z" fill="#F1E7DD" fill-opacity="0.25"></path> </g> <g style="mix-blend-mode:overlay"> <path d="M1452 248.82C1453.16 248.82 1454.3 249.164 1455.26 249.809C1456.23 250.454 1456.98 251.371 1457.42 252.444C1457.87 253.516 1457.98 254.697 1457.76 255.835C1457.53 256.974 1456.97 258.02 1456.15 258.841C1455.33 259.662 1454.28 260.221 1453.15 260.447C1452.01 260.674 1450.83 260.558 1449.75 260.113C1448.68 259.669 1447.76 258.917 1447.12 257.951C1446.47 256.986 1446.13 255.851 1446.13 254.69C1446.13 253.133 1446.75 251.64 1447.85 250.539C1448.95 249.439 1450.44 248.82 1452 248.82V248.82Z" fill="#F1E7DD" fill-opacity="0.25"></path> </g> <g style="mix-blend-mode:overlay"> <path d="M656 61.3902H537.82L505.24 93.9702H436.09L406.25 64.1302H5.33008V65.7202H405.59L435.44 95.5602H505.9L538.48 62.9902H655.35L702.75 110.39H977L1158.37 291.77H1209.09L1224.1 306.78H1355.41L1371.11 322.48H1444.79V320.89H1371.78L1356.07 305.19H1224.76L1209.75 290.18H1159.03L977.65 108.8H703.41L656 61.3902Z" fill="#F1E7DD" fill-opacity="0.25"></path> </g> <g style="mix-blend-mode:overlay"> <path d="M1444.49 315.82C1445.65 315.818 1446.79 316.161 1447.75 316.805C1448.72 317.448 1449.47 318.364 1449.92 319.437C1450.37 320.509 1450.48 321.69 1450.26 322.829C1450.03 323.969 1449.47 325.015 1448.65 325.837C1447.83 326.659 1446.79 327.219 1445.65 327.447C1444.51 327.674 1443.33 327.558 1442.26 327.114C1441.18 326.67 1440.27 325.918 1439.62 324.952C1438.97 323.987 1438.63 322.852 1438.63 321.69C1438.63 320.135 1439.25 318.644 1440.35 317.543C1441.44 316.442 1442.93 315.823 1444.49 315.82V315.82Z" fill="#F1E7DD" fill-opacity="0.25"></path> </g> <g style="mix-blend-mode:overlay"> <path d="M646.23 88.7502H555.87L514.07 130.56H431.05L397.42 96.9302H5.33008V98.5202H396.76L430.39 132.15H514.72L556.53 90.3502H645.57L695.61 140.38H963.12L1142.47 319.73H1179.88V318.14H1143.13L963.78 138.79H696.27L646.23 88.7502Z" fill="#F1E7DD" fill-opacity="0.25"></path> </g> <g style="mix-blend-mode:overlay"> <path d="M1179.58 313.06C1180.74 313.058 1181.88 313.402 1182.85 314.047C1183.82 314.692 1184.57 315.611 1185.02 316.685C1185.47 317.76 1185.58 318.943 1185.36 320.085C1185.13 321.226 1184.57 322.275 1183.75 323.098C1182.92 323.921 1181.88 324.481 1180.73 324.708C1179.59 324.934 1178.41 324.817 1177.34 324.371C1176.26 323.924 1175.34 323.169 1174.7 322.201C1174.05 321.232 1173.71 320.094 1173.71 318.93C1173.71 317.373 1174.33 315.88 1175.43 314.779C1176.53 313.679 1178.02 313.06 1179.58 313.06V313.06Z" fill="#F1E7DD" fill-opacity="0.25"></path> </g> <g style="mix-blend-mode:overlay"> <path d="M374.71 118.59H5.33008V120.18H374.06L414.31 160.44H562.66L596.05 127.05H605.95V125.46H595.39L562 158.85H414.96L374.71 118.59Z" fill="#F1E7DD" fill-opacity="0.25"></path> </g> <g style="mix-blend-mode:overlay"> <path d="M605.65 120.38C606.814 120.378 607.951 120.721 608.92 121.366C609.888 122.011 610.643 122.929 611.09 124.003C611.536 125.077 611.654 126.26 611.428 127.401C611.203 128.543 610.644 129.591 609.822 130.414C609 131.238 607.952 131.799 606.811 132.027C605.67 132.254 604.487 132.138 603.412 131.694C602.337 131.249 601.418 130.495 600.772 129.528C600.125 128.561 599.78 127.424 599.78 126.26C599.779 125.489 599.93 124.724 600.224 124.011C600.519 123.297 600.951 122.649 601.496 122.103C602.041 121.557 602.689 121.124 603.402 120.828C604.114 120.532 604.879 120.38 605.65 120.38V120.38Z" fill="#F1E7DD" fill-opacity="0.25"></path> </g> <g style="mix-blend-mode:overlay"> <path d="M372.19 130.98H5.33008V132.57H371.53L411.9 172.94H572.75L587.22 158.47H951.77L1136.23 342.93H1209.75L1228.81 323.87H1298.45V322.28H1228.15L1209.09 341.34H1136.89L952.42 156.88H586.56L572.09 171.35H412.56L372.19 130.98Z" fill="#F1E7DD" fill-opacity="0.25"></path> </g> <g style="mix-blend-mode:overlay"> <path d="M1298.15 317.21C1299.31 317.208 1300.45 317.552 1301.42 318.197C1302.39 318.842 1303.14 319.761 1303.59 320.835C1304.04 321.91 1304.15 323.093 1303.93 324.235C1303.7 325.376 1303.14 326.425 1302.32 327.248C1301.5 328.071 1300.45 328.631 1299.3 328.858C1298.16 329.084 1296.98 328.967 1295.91 328.521C1294.83 328.074 1293.91 327.319 1293.27 326.351C1292.62 325.382 1292.28 324.244 1292.28 323.08C1292.28 321.523 1292.9 320.03 1294 318.929C1295.1 317.829 1296.59 317.21 1298.15 317.21V317.21Z" fill="#F1E7DD" fill-opacity="0.25"></path> </g> <g style="mix-blend-mode:overlay"> <path d="M346.96 146.12H5.33008V147.71H346.3L409.37 210.78H555.87L588.3 178.35H942.94L1124.39 359.81H1226.75L1258.2 391.25H1304.36L1320.17 375.44H1394.68V373.85H1319.51L1303.7 389.66H1258.86L1227.41 358.22H1125.05L943.6 176.76H587.64L555.21 209.19H410.03L346.96 146.12Z" fill="#F1E7DD" fill-opacity="0.25"></path> </g> <g style="mix-blend-mode:overlay"> <path d="M1394.38 368.77C1395.54 368.768 1396.68 369.111 1397.65 369.756C1398.62 370.401 1399.37 371.319 1399.82 372.393C1400.27 373.467 1400.38 374.65 1400.16 375.791C1399.93 376.932 1399.37 377.981 1398.55 378.804C1397.73 379.628 1396.68 380.189 1395.54 380.416C1394.4 380.644 1393.22 380.528 1392.14 380.084C1391.07 379.639 1390.15 378.885 1389.5 377.918C1388.85 376.951 1388.51 375.814 1388.51 374.65C1388.51 373.879 1388.66 373.114 1388.95 372.401C1389.25 371.687 1389.68 371.039 1390.23 370.493C1390.77 369.947 1391.42 369.514 1392.13 369.218C1392.84 368.922 1393.61 368.77 1394.38 368.77V368.77Z" fill="#F1E7DD" fill-opacity="0.25"></path> </g> <g style="mix-blend-mode:overlay"> <path d="M324.26 158.85H5.33008V160.44H323.6L405.75 242.59H548.78L597.18 194.19H936.63L1116.47 374.04H1216.66L1266.22 423.59H1315.71L1333.82 405.48H1377.91V403.89H1333.16L1315.05 422H1266.88L1217.32 372.44H1117.13L937.29 192.6H596.52L548.13 241H406.41L324.26 158.85Z" fill="#F1E7DD" fill-opacity="0.25"></path> </g> <g style="mix-blend-mode:overlay"> <path d="M1377.62 398.82C1378.78 398.818 1379.92 399.162 1380.89 399.807C1381.86 400.452 1382.61 401.371 1383.06 402.445C1383.51 403.52 1383.62 404.703 1383.4 405.845C1383.17 406.986 1382.61 408.035 1381.79 408.858C1380.96 409.681 1379.92 410.241 1378.77 410.468C1377.63 410.694 1376.45 410.577 1375.38 410.131C1374.3 409.684 1373.38 408.929 1372.74 407.961C1372.09 406.992 1371.75 405.854 1371.75 404.69C1371.75 403.133 1372.37 401.64 1373.47 400.54C1374.57 399.439 1376.06 398.82 1377.62 398.82V398.82Z" fill="#F1E7DD" fill-opacity="0.25"></path> </g> <g style="mix-blend-mode:overlay"> <path d="M309.22 186.48H50.6701V214.24H25.7701V186.48H5.33008V188.08H24.1801V215.83H52.2601V188.08H307.63V237.75H368.54V281.28H563.92L628.18 217.02H931.59L1115.78 401.21H1217.92L1257.04 440.34H1427.27V438.75H1257.7L1218.58 399.62H1116.44L932.25 215.43H627.52L563.26 279.69H370.13V236.16H309.22V186.48Z" fill="#F1E7DD" fill-opacity="0.25"></path> </g> <g style="mix-blend-mode:overlay"> <path d="M1427 433.67C1428.16 433.668 1429.3 434.011 1430.27 434.656C1431.24 435.301 1431.99 436.219 1432.44 437.293C1432.89 438.367 1433 439.55 1432.78 440.691C1432.55 441.832 1431.99 442.881 1431.17 443.704C1430.35 444.528 1429.3 445.089 1428.16 445.316C1427.02 445.544 1425.84 445.428 1424.76 444.984C1423.69 444.539 1422.77 443.785 1422.12 442.818C1421.48 441.851 1421.13 440.714 1421.13 439.55C1421.13 438.779 1421.28 438.014 1421.57 437.301C1421.87 436.587 1422.3 435.939 1422.85 435.393C1423.39 434.847 1424.04 434.414 1424.75 434.118C1425.46 433.822 1426.23 433.67 1427 433.67V433.67Z" fill="#F1E7DD" fill-opacity="0.25"></path> </g> <g style="mix-blend-mode:overlay"> <path d="M249.84 204.43H101.31L49.8801 255.86H0.560059V257.45H50.5401L101.97 206.02H249.18L334.51 291.35H581.58L644.1 228.83H917.71L1114.11 425.23H1171.58V423.64H1114.77L918.37 227.24H643.44L580.92 289.76H335.17L249.84 204.43Z" fill="#F1E7DD" fill-opacity="0.25"></path> </g> <g style="mix-blend-mode:overlay"> <path d="M1171.28 418.56C1174.52 418.56 1177.15 421.188 1177.15 424.43C1177.15 427.672 1174.52 430.3 1171.28 430.3C1168.04 430.3 1165.41 427.672 1165.41 424.43C1165.41 421.188 1168.04 418.56 1171.28 418.56Z" fill="#F1E7DD" fill-opacity="0.25"></path> </g> <g style="mix-blend-mode:overlay"> <path d="M907.02 239.47H653.91L588.53 304.85H370.06L341.26 333.66H30.76L1.13 304.03L0 305.15L30.1 335.25H341.92L370.72 306.44H589.19L654.57 241.06H906.36L926.07 260.77V327.62L950.5 352.06H1011.05L1104.38 445.38L1105.5 444.25L1011.71 350.47H951.16L927.66 326.97V260.11L907.02 239.47Z" fill="#F1E7DD" fill-opacity="0.25"></path> </g> <g style="mix-blend-mode:overlay"> <path d="M1108.88 440.46C1109.7 441.281 1110.26 442.327 1110.49 443.466C1110.71 444.604 1110.6 445.785 1110.15 446.858C1109.71 447.93 1108.96 448.847 1107.99 449.492C1107.03 450.137 1105.89 450.482 1104.73 450.482C1103.57 450.482 1102.43 450.137 1101.47 449.492C1100.5 448.847 1099.75 447.93 1099.31 446.858C1098.86 445.785 1098.75 444.604 1098.97 443.466C1099.2 442.327 1099.76 441.281 1100.58 440.46C1101.68 439.362 1103.17 438.746 1104.73 438.746C1106.29 438.746 1107.78 439.362 1108.88 440.46V440.46Z" fill="#F1E7DD" fill-opacity="0.25"></path> </g> <g style="mix-blend-mode:overlay"> <path d="M816.6 271.02H749.48V320.89H712.9V271.02H681.18L618.76 333.44H426.4L392.98 366.86H5.33008V368.45H393.63L427.06 335.03H619.42L681.84 272.61H711.31V322.48H751.07V272.61H816.6V271.02Z" fill="#F1E7DD" fill-opacity="0.25"></path> </g> <g style="mix-blend-mode:overlay"> <path d="M816.3 265.95C817.461 265.95 818.596 266.294 819.561 266.939C820.527 267.584 821.279 268.501 821.723 269.574C822.168 270.646 822.284 271.827 822.057 272.965C821.831 274.104 821.272 275.15 820.451 275.971C819.63 276.792 818.584 277.351 817.445 277.577C816.307 277.804 815.126 277.688 814.054 277.243C812.981 276.799 812.064 276.047 811.419 275.081C810.774 274.116 810.43 272.981 810.43 271.82C810.43 270.263 811.049 268.77 812.149 267.669C813.25 266.569 814.743 265.95 816.3 265.95V265.95Z" fill="#F1E7DD" fill-opacity="0.25"></path> </g> <g style="mix-blend-mode:overlay"> <path d="M507.56 347.22H448.2L413.42 382H5.33008V383.59H414.08L448.86 348.81H507.56V347.22Z" fill="#F1E7DD" fill-opacity="0.25"></path> </g> <g style="mix-blend-mode:overlay"> <path d="M507.26 342.15C508.421 342.15 509.556 342.494 510.521 343.139C511.487 343.785 512.239 344.701 512.683 345.774C513.128 346.846 513.244 348.027 513.017 349.165C512.791 350.304 512.232 351.35 511.411 352.171C510.59 352.992 509.544 353.551 508.405 353.777C507.267 354.004 506.086 353.888 505.014 353.443C503.941 352.999 503.024 352.247 502.379 351.281C501.734 350.316 501.39 349.181 501.39 348.02C501.39 346.463 502.009 344.97 503.109 343.869C504.21 342.769 505.703 342.15 507.26 342.15V342.15Z" fill="#F1E7DD" fill-opacity="0.25"></path> </g> </svg> 