<?xml version="1.0" encoding="UTF-8"?> <svg xmlns="http://www.w3.org/2000/svg" width="220" height="52" viewBox="0 0 220 52" fill="none"> <path d="M2.56626 0.612067C3.75352 0.11553 5.0981 0.27039 6.35174 0.346591C7.04738 0.36134 7.54392 0.884916 8.07487 1.26101C8.54191 1.6248 9.12447 1.77475 9.68246 1.94927C13.0599 2.89564 16.3365 4.1591 19.714 5.10301C19.8344 5.25787 19.9549 5.41028 20.0753 5.56514C17.9859 5.72738 16.0539 6.60983 14.0284 7.07687C12.3618 7.6324 10.5502 7.70123 8.94995 8.45586C8.23956 8.7705 7.66682 9.30391 7.00067 9.69229C5.52336 10.2945 3.75107 10.2159 2.36224 9.41944C1.41095 8.76804 0.594863 7.85609 0.159779 6.7819C-0.00737168 5.63151 0.00246208 4.44179 0.157322 3.29139C0.648943 2.18771 1.52894 1.23151 2.56626 0.612067Z" fill="#222222"></path> <path d="M30.4116 8.70167C31.8988 9.30636 33.0836 10.4223 34.3741 11.3441C35.2565 11.9587 36.0235 12.7182 36.6994 13.554C36.4241 13.785 36.2103 14.1341 35.8489 14.2299C35.286 14.2275 34.8141 13.8563 34.3667 13.5613C33.9513 12.9886 33.4916 12.4503 32.9926 11.9513C32.8845 12.0398 32.6682 12.2168 32.56 12.3077C32.5084 11.9341 32.5625 11.5113 32.3019 11.2065C31.6653 10.3756 30.9966 9.56938 30.4116 8.70167Z" fill="#222222"></path> <path d="M30.6599 42.6112C31.5546 41.8025 32.4469 40.9175 33.6342 40.5587C34.3741 41.4927 35.0845 42.4538 35.8883 43.3388C35.7285 44.6391 35.318 45.8927 34.7797 47.0849C34.6125 47.5692 34.2241 48.1001 34.5339 48.6138L34.6027 48.7982C34.4183 49.0121 34.2315 49.2235 34.0447 49.4349C32.9238 47.1587 31.8521 44.853 30.6599 42.6112Z" fill="#222222"></path> <path d="M40.893 40.6275C41.2715 40.7651 41.6525 40.9028 42.0262 41.0577C42.0974 41.1191 42.2351 41.2371 42.3039 41.2961C42.8668 41.7975 43.4051 42.331 43.8402 42.9504C42.8398 44.6022 42.331 46.5097 41.2248 48.105C40.9249 48.5205 40.6275 48.9408 40.3473 49.371C40.2957 49.1792 40.2391 48.9875 40.2096 48.7933C40.1924 47.8518 39.9073 46.9473 39.3222 46.2049L39.2313 46.0329C39.1428 45.3815 39.0027 44.6489 39.4083 44.0713C40.0965 43.0143 40.5636 41.8393 40.893 40.6275Z" fill="#222222"></path> <path d="M20.0655 45.728C21.9656 46.2344 23.9296 46.667 25.6109 47.7339C25.5937 48.0952 25.1882 48.6335 25.6552 48.8474C26.4541 49.2751 27.3857 49.3316 28.2731 49.3759C30.1978 49.4226 32.1225 49.3218 34.0447 49.4349C33.1278 49.7225 32.1593 49.575 31.2179 49.5922C29.4947 49.5651 27.7741 49.6364 26.0559 49.7003C21.5477 49.6758 17.0395 49.6536 12.5314 49.6438C10.9705 49.5799 9.37765 49.4177 7.84871 49.8404C10.0045 48.6237 12.5142 48.2771 14.7879 47.3356C16.5528 46.817 18.3301 46.3401 20.0655 45.728Z" fill="#222222"></path> <path d="M66.0688 1.40111C66.9488 1.1381 67.61 0.329383 68.5638 0.272847C69.4905 0.228601 70.4565 0.159774 71.3562 0.437539C72.777 1.03732 74.0871 2.17787 74.446 3.73631C74.7041 4.9629 74.682 6.33207 74.0404 7.44559C73.008 9.43173 70.459 10.6608 68.2934 9.90614C67.3323 9.71441 66.7079 8.87128 65.8083 8.53944C65.5108 8.4067 65.2085 8.27888 64.9086 8.15843C64.6136 7.98391 64.3088 7.8143 64.063 7.5734C64.3113 6.04938 64.0163 4.52044 64.063 2.98905C61.1428 3.08246 58.3848 4.15665 55.6121 4.9629C54.1446 5.42503 52.4313 4.98011 51.4652 3.76089C51.9814 3.46346 52.4976 3.16357 53.0163 2.86368C53.0261 2.59575 53.0384 2.33028 53.0507 2.06726C48.9727 2.09676 44.8923 1.82882 40.8143 1.92715C41.4141 3.42167 42.1761 4.84245 42.8447 6.30502C43.2183 7.10391 43.5846 7.92983 44.1893 8.58614C43.0954 9.56201 42.712 11.0983 41.596 12.0766C41.4067 11.6932 41.2223 11.3073 41.0109 10.9385C41.3575 10.4813 41.7582 10.0463 41.9598 9.50055C42.1294 8.83195 41.8737 8.15106 41.6107 7.54145C41.0921 6.40826 40.4653 5.3267 39.7672 4.2943C40.0818 3.68715 40.185 3.00871 40.1604 2.33274C40.1039 2.00089 40.335 1.6838 40.6619 1.61251C41.4387 1.49206 42.2326 1.56581 43.0168 1.55598C50.2288 1.56827 57.4384 1.52402 64.6505 1.53877C65.1249 1.52893 65.6042 1.51664 66.0688 1.40111Z" fill="#222222"></path> <path d="M177.377 3.34056C178.711 3.26435 180.053 3.2619 181.393 3.31106C181.951 3.3086 182.448 3.57899 182.92 3.84938C181.258 3.64536 179.581 3.51754 177.907 3.66257C177.787 5.16692 177.802 6.6762 177.893 8.18302C179.613 8.29609 181.344 8.28134 183.055 8.05274C182.484 8.39933 181.845 8.63776 181.177 8.66234C179.891 8.7238 178.593 8.74347 177.32 8.54436C177.357 6.80894 177.278 5.07352 177.377 3.34056Z" fill="#222222"></path> <path d="M32.9459 21.1593C33.2237 20.5497 33.5457 19.7312 34.3667 19.8295C34.4134 20.1564 34.4577 20.4858 34.5044 20.8176C34.7797 20.5694 35.0599 20.326 35.3352 20.0778C35.1656 20.4686 34.9763 20.8521 34.7133 21.1888C33.6686 22.5236 32.6657 23.8976 31.4858 25.1169C31.7955 23.7403 32.4027 22.4547 32.9459 21.1593Z" fill="#222222"></path> <path d="M1.75754 21.6706C3.00134 20.6628 4.75642 20.2523 6.30011 20.7341C7.36693 21.0143 8.05027 22.032 9.17854 22.1745C9.78569 22.5482 10.4076 22.9095 11.086 23.1381C12.7452 23.7133 14.2791 24.5835 15.7687 25.5003C14.7117 26.1616 13.581 26.6876 12.4945 27.2898C11.7964 27.6708 11.1352 28.1846 10.3289 28.3099C9.48089 28.4402 8.61564 28.5213 7.82413 28.8778C8.01586 28.922 8.40179 29.013 8.59352 29.0572C7.97408 29.4947 7.37184 29.9913 6.6467 30.2396C4.74659 30.6648 2.45318 30.4559 1.16022 28.8237C-0.0860371 27.543 -0.0958684 25.6208 0.181897 23.9739C0.543238 23.1135 1.08402 22.3171 1.75754 21.6706Z" fill="#222222"></path> <path d="M25.5323 29.3718C26.9187 30.2789 28.2682 31.2375 29.6054 32.2159C29.4972 32.3166 29.2784 32.5133 29.1678 32.6141C28.8704 32.6092 28.5705 32.6042 28.2755 32.6018C28.4304 32.9656 28.5828 33.3294 28.7524 33.6883C27.9142 33.0098 27.3587 32.0782 26.8031 31.1736C26.4295 30.5345 25.7904 30.0822 25.5323 29.3718Z" fill="#222222"></path> <path d="M36.2004 37.0903C37.7146 37.7761 38.9928 38.8503 40.389 39.7327C40.9839 40.1113 41.5198 40.5685 42.0261 41.0577C41.6525 40.9028 41.2715 40.7651 40.893 40.6275C40.5636 41.8393 40.0965 43.0143 39.4083 44.0713C39.0027 44.6489 39.1428 45.3815 39.2313 46.0328C38.3267 44.5973 38.2259 42.8373 37.4025 41.36C37.0534 40.6496 36.8002 39.8999 36.5692 39.1453C36.4266 38.4644 36.3111 37.7761 36.2004 37.0903Z" fill="#222222"></path> <path d="M0.132735 44.3294C1.08402 41.3526 5.08581 40.0154 7.64715 41.773C8.08961 42.1712 8.70168 42.1859 9.24246 42.358C9.35799 42.4342 9.58905 42.5866 9.70212 42.6603C10.909 43.501 12.4601 43.5158 13.8219 43.9853C13.8883 44.177 13.9571 44.3712 14.0235 44.5654C13.4016 45.3249 13.3278 46.3057 13.3647 47.2496C13.8366 47.2889 14.3111 47.3283 14.7879 47.3356C12.5142 48.2771 10.0045 48.6237 7.84871 49.8405C7.36447 50.1649 6.95397 50.6811 6.3419 50.7499C5.42257 50.8458 4.47866 50.8827 3.56916 50.7106C1.96894 50.2411 0.668604 48.9187 0.147486 47.3455C-0.0221226 46.3549 -0.0221257 45.3225 0.132735 44.3294Z" fill="#222222"></path> <path d="M67.6223 41.328C69.4659 40.5857 71.7372 40.9815 73.2096 42.3211C75.4317 44.4277 74.9106 48.6286 72.2362 50.128C71.1866 50.8188 69.8371 51.2194 68.6056 50.8089C67.728 50.5779 67.0545 49.9216 66.2188 49.602C65.3781 49.4324 64.5128 49.5332 63.6623 49.5209C60.4152 49.5234 57.168 49.543 53.9209 49.5283C54.5698 48.432 53.8299 47.2029 53.9086 46.0328C56.9271 46.2516 59.7785 47.552 62.8143 47.6085C62.9716 46.3721 62.888 45.0939 62.2489 43.9926C62.7504 43.7517 63.2445 43.4936 63.7558 43.2724C64.5743 43.0905 65.3781 42.8422 66.1598 42.535C64.3457 42.4219 62.5316 42.5866 60.7175 42.5596C55.4351 42.5227 50.1526 42.5743 44.8702 42.5325C44.4744 42.5079 44.1155 42.6702 43.8402 42.9504C43.4051 42.331 42.8668 41.7975 42.3039 41.2961C42.6308 41.4509 42.9676 41.5812 43.3068 41.7164C43.2871 41.6156 43.2478 41.4165 43.2257 41.3182C43.7075 41.6255 44.1032 42.1859 44.7301 42.1589C51.7725 42.1908 58.8223 42.0901 65.8623 42.2154C66.5334 42.1392 67.0078 41.564 67.6223 41.328Z" fill="#222222"></path> <path d="M39.3222 46.2049C39.9073 46.9473 40.1924 47.8518 40.2096 48.7933C39.5287 48.2107 38.87 47.5298 38.6561 46.6302C38.9093 46.844 39.1723 47.0505 39.4353 47.257C39.4009 46.903 39.3689 46.554 39.3222 46.2049Z" fill="#222222"></path> <path d="M9.68245 1.94927C9.99954 1.6838 10.41 1.61252 10.8156 1.62972C18.1899 1.62481 25.5667 1.6371 32.9435 1.62972C33.236 1.62481 33.5162 1.69117 33.7817 1.82391C32.5846 1.97386 31.3162 1.68134 30.1756 2.1533C27.2431 3.62078 24.0328 4.39263 20.8693 5.18168C21.2773 5.39799 21.6903 5.61185 22.0934 5.84536C21.2724 5.69296 20.5055 5.35129 19.714 5.10302C16.3365 4.15911 13.0599 2.89564 9.68245 1.94927Z" fill="#222222"></path> <path d="M40.8143 1.92715C44.8923 1.82883 48.9727 2.09676 53.0507 2.06727C53.0384 2.33028 53.0261 2.59576 53.0163 2.86369C52.4977 3.16358 51.9815 3.46347 51.4652 3.7609C52.4313 4.98012 54.1446 5.42503 55.6121 4.96291C58.3848 4.15665 61.1428 3.08246 64.063 2.98905C64.0163 4.52045 64.3113 6.04939 64.063 7.57341C64.3088 7.8143 64.6136 7.98391 64.9086 8.15844C62.5488 7.83151 60.3046 6.99084 58.0087 6.38615C56.5068 6.00515 54.968 5.31442 53.3924 5.66101C50.4648 6.45497 47.638 7.63978 44.6416 8.16335C44.6391 8.30346 44.6342 8.58369 44.6317 8.72626C44.5211 8.68939 44.2999 8.62056 44.1893 8.58615C43.5846 7.92983 43.2183 7.10391 42.8447 6.30503C42.1761 4.84246 41.4141 3.42168 40.8143 1.92715Z" fill="#222222"></path> <path d="M38.28 7.56357C38.8011 6.48447 39.219 5.35866 39.7671 4.2943C40.4652 5.32671 41.0921 6.40827 41.6107 7.54145C41.8737 8.15106 42.1294 8.83196 41.9598 9.50056C41.7582 10.0463 41.3575 10.4813 41.0109 10.9385C39.9663 9.92581 39.1108 8.7533 38.28 7.56357Z" fill="#222222"></path> <path d="M35.05 14.5348C35.7506 15.5549 36.493 16.5627 37.4713 17.337C36.9452 18.3768 36.1414 19.2494 35.3352 20.0778C35.0599 20.326 34.7797 20.5694 34.5043 20.8177C34.4576 20.4858 34.4134 20.1564 34.3667 19.8295C33.5457 19.7312 33.2237 20.5497 32.9459 21.1593C32.4027 22.4547 31.7955 23.7403 31.4858 25.1169C31.2842 25.6478 31.7685 26.0559 32.029 26.459C34.9837 30.3084 37.9186 34.1701 40.8807 38.0145C41.4436 38.7692 41.8688 39.6246 42.53 40.3055C42.7857 40.6201 43.1667 40.888 43.2257 41.3182C43.2478 41.4165 43.2871 41.6156 43.3068 41.7164C42.9676 41.5812 42.6308 41.451 42.3039 41.2961C42.2351 41.2371 42.0974 41.1191 42.0261 41.0577C41.5198 40.5685 40.9839 40.1113 40.389 39.7327C38.9928 38.8503 37.7146 37.7761 36.2004 37.0903C36.3111 37.7761 36.4266 38.4644 36.5692 39.1453C36.1316 38.28 35.6941 37.4 35.5294 36.434C35.2909 35.1238 34.5412 33.998 34.111 32.7567C33.4941 30.9278 32.5944 29.2072 32.088 27.339C31.6284 25.665 30.038 24.7408 28.6074 23.9812C27.5553 23.4552 26.6286 22.6834 25.5298 22.2556C23.9222 21.9041 22.6268 23.1479 21.2085 23.6543C19.9721 24.2664 18.453 24.4458 17.4918 25.5126C18.8217 26.0878 20.1269 26.926 21.6092 26.9973C24.5048 26.7466 27.3587 26.0927 30.2568 25.8666C28.7721 27.2087 26.695 27.6807 25.3209 29.1678C19.7508 28.9859 14.166 29.1457 8.59351 29.0572C8.40178 29.013 8.01586 28.922 7.82413 28.8778C8.61564 28.5213 9.48089 28.4402 10.3289 28.31C11.1352 28.1846 11.7964 27.6708 12.4945 27.2898C13.581 26.6876 14.7117 26.1616 15.7687 25.5003C14.2791 24.5835 12.7452 23.7133 11.086 23.1381C10.4076 22.9095 9.78569 22.5482 9.17854 22.1745C9.63329 22.0516 10.1028 22 10.5747 22.0049C15.3803 22.0147 20.1859 22.0123 24.9915 22.0123C25.3258 21.5747 25.6576 21.1323 26.0214 20.7193C26.0927 20.9651 26.164 21.2159 26.2378 21.4641C27.1497 20.68 28.1059 19.945 29.1236 19.3035C30.768 18.2637 32.2773 17.0371 33.8824 15.9457C34.4134 15.6065 34.7797 15.0927 35.05 14.5348Z" fill="#222222"></path> <path d="M50.2288 22.1893C50.6811 22.0565 51.1531 22 51.625 22.0098C54.9828 22.0344 58.343 22.0197 61.7008 22.0172C62.7258 22.0295 63.7803 21.9066 64.7734 22.2434C63.5345 22.6268 62.2293 22.6022 60.9535 22.7596C59.0583 22.9685 57.2049 23.4454 55.3073 23.6322C53.4883 23.9468 51.8241 22.9021 50.2288 22.1893Z" fill="#222222"></path> <path d="M29.6054 32.2159C30.5689 32.7984 31.5251 33.4449 32.1397 34.4183C31.6161 34.9689 31.0237 35.4483 30.392 35.8735C29.7602 35.2147 29.1678 34.5044 28.7524 33.6883C28.5828 33.3294 28.4304 32.9656 28.2755 32.6018C28.5705 32.6042 28.8704 32.6092 29.1678 32.6141C29.2784 32.5133 29.4972 32.3166 29.6054 32.2159Z" fill="#222222"></path> <path d="M32.7935 38.9142C32.9115 39.2976 32.8918 39.6983 32.8697 40.0941C34.4478 40.1654 34.7354 42.1835 36.1193 42.6235C36.8076 42.562 37.2943 42.0261 37.4024 41.36C38.2259 42.8373 38.3267 44.5973 39.2313 46.0328L39.3222 46.2049C39.3689 46.554 39.4009 46.903 39.4353 47.257C39.1723 47.0505 38.9093 46.844 38.6561 46.6302C38.1964 46.1582 37.808 45.6223 37.3902 45.116C36.901 44.5137 36.402 43.9189 35.8883 43.3388C35.0845 42.4538 34.3741 41.4927 33.6342 40.5587C32.4469 40.9175 31.5546 41.8025 30.6599 42.6112C29.1531 42.7513 27.8281 43.6141 26.314 43.764C27.0833 43.4445 27.8478 43.1077 28.6147 42.7783C27.0293 42.6013 25.434 42.6997 23.8436 42.6849C20.648 42.6874 17.4525 42.6726 14.257 42.6947C12.7379 42.7193 11.2188 42.4538 9.70211 42.6603C9.58904 42.5866 9.35798 42.4342 9.24245 42.358C16.1645 42.3678 23.084 42.3432 30.0036 42.3776C30.5443 42.3899 30.8442 41.8442 31.1638 41.4903C31.7488 40.6619 32.4887 39.9073 32.7935 38.9142Z" fill="#222222"></path> <path d="M43.8402 42.9504C44.1155 42.6702 44.4744 42.5079 44.8702 42.5325C46.1902 43.4051 47.8223 43.5625 49.2653 44.1671C50.9564 44.5776 52.5493 45.4945 54.3093 45.5461C57.5122 45.0447 60.5479 43.7566 63.7558 43.2724C63.2445 43.4936 62.7504 43.7517 62.2489 43.9926C62.888 45.0939 62.9716 46.3721 62.8143 47.6085C59.7785 47.5519 56.9271 46.2516 53.9086 46.0328C53.8299 47.2029 54.5698 48.4319 53.9209 49.5283C49.543 49.484 45.1602 49.5897 40.7848 49.484C40.9028 49.0145 41.0232 48.545 41.2248 48.105C42.3309 46.5097 42.8398 44.6022 43.8402 42.9504Z" fill="#222222"></path> <path d="M13.8219 43.9853C15.8695 44.4105 17.8384 45.1332 19.8565 45.6715L20.0655 45.728C18.33 46.3401 16.5528 46.817 14.7879 47.3356C14.3111 47.3283 13.8366 47.2889 13.3647 47.2496C13.3278 46.3057 13.4016 45.3249 14.0235 44.5654C13.9571 44.3712 13.8883 44.177 13.8219 43.9853Z" fill="#222222"></path> <path d="M93.688 1.83866C95.7037 1.48223 97.7636 1.57073 99.7989 1.61497C101.107 1.65922 102.574 2.28358 103.004 3.62324C103.366 5.10302 103.417 6.73028 102.736 8.13139C102.407 8.68201 101.78 8.94748 101.291 9.33095C102.515 9.94302 103.747 11.0221 103.631 12.524C103.54 13.8317 103.99 15.4074 102.982 16.457C102.183 17.3444 100.954 17.6713 99.7939 17.6295C97.6947 17.6074 95.5537 17.7671 93.4914 17.2878C93.044 16.9044 93.3759 16.1399 93.3169 15.6139C94.6664 15.545 95.9864 15.9432 97.3408 15.8621C98.5674 15.8179 100.172 16.1399 101.008 14.9969C101.52 13.9276 101.485 12.6101 101.072 11.5162C100.711 10.6141 99.6858 10.3732 98.823 10.2527C97.7095 10.1765 96.591 10.2331 95.4775 10.2454C95.4652 9.64067 95.4579 9.03352 95.5931 8.44112C97.0802 8.40179 98.646 8.69922 100.062 8.11419C101.013 7.72335 100.912 6.49676 100.927 5.64626C101.001 4.76134 100.526 3.71911 99.5678 3.57654C97.6308 3.40693 95.6791 3.55933 93.7372 3.60358C93.6241 3.02101 93.5037 2.41877 93.688 1.83866Z" fill="#222222"></path> <path d="M112.502 1.89274C113.245 1.67642 114.039 1.80179 114.803 1.77229C115.295 1.82883 115.961 1.64693 116.276 2.15084C117.364 5.94369 118.699 9.65788 119.862 13.4286C120.39 14.7584 120.86 16.1202 121.084 17.5386C120.312 17.4771 119.343 17.8581 118.736 17.219C118.365 16.2603 118.276 15.2156 117.893 14.2594C117.714 13.8293 117.598 13.3745 117.534 12.9149C115.371 12.819 113.196 12.8116 111.032 12.9149C110.501 14.4364 110.111 16.0022 109.641 17.5435C108.901 17.5656 108.159 17.6025 107.426 17.4943C107.64 15.8818 108.346 14.3946 108.776 12.8387C109.693 10.5108 110.241 8.06011 111.141 5.72737C111.635 4.46391 111.809 3.07017 112.502 1.89274ZM113.958 3.57899C113.242 5.95598 112.377 8.30592 111.861 10.737C113.476 10.6903 115.105 10.8673 116.711 10.6411C115.99 8.2543 115.361 5.83307 114.518 3.48559C114.378 3.51017 114.098 3.55441 113.958 3.57899Z" fill="#222222"></path> <path d="M126.31 3.84939C127.214 2.45073 128.836 1.48715 130.528 1.55844C132.307 1.59531 134.148 1.36425 135.874 1.90749C135.842 2.47777 135.8 3.04805 135.692 3.61095C134.05 3.56179 132.406 3.49296 130.764 3.55933C129.812 3.5962 128.827 4.10011 128.438 5.0047C127.752 6.59755 127.684 8.36983 127.725 10.0782C127.684 11.3564 127.853 12.642 128.256 13.8588C128.608 14.8961 129.662 15.6729 130.766 15.6556C132.536 15.722 134.306 15.6556 136.076 15.5794C136.169 16.1694 136.299 16.7692 136.132 17.3616C134.018 17.8483 131.803 18.0253 129.657 17.6639C128.013 17.423 126.553 16.2431 125.988 14.6798C125.621 13.3426 125.39 11.9587 125.437 10.5674C125.459 8.3133 125.243 5.92403 126.31 3.84939Z" fill="#222222"></path> <path d="M143.642 4.6581C143.649 3.32581 144.59 1.85587 146.031 1.81162C148.241 1.73296 150.458 1.79441 152.673 1.78704C152.835 3.07017 152.717 4.36559 152.751 5.65363C152.732 9.50547 152.783 13.3573 152.724 17.2042C152.267 17.8827 151.306 17.4402 150.62 17.5853C150.46 17.2337 150.31 16.8699 150.352 16.4742C150.369 12.2045 150.355 7.93229 150.362 3.66257C149.325 3.51017 148.27 3.54458 147.228 3.60603C146.621 3.66257 145.913 4.02391 145.918 4.72201C145.542 8.19039 145.566 11.8136 144.057 15.0411C143.337 16.5356 141.734 17.7499 140.021 17.5656C139.979 17.0297 139.93 16.4939 139.959 15.9604C140.638 15.3779 141.596 15.0632 141.985 14.1931C143.435 11.236 143.209 7.8438 143.642 4.6581Z" fill="#222222"></path> <path d="M162.141 1.88782C163.326 1.67888 164.548 1.76 165.742 1.86079C167.171 5.95598 168.456 10.1028 169.828 14.2177C170.108 15.3263 170.651 16.3783 170.73 17.5287C169.958 17.4574 168.989 17.8704 168.39 17.2215C167.974 15.7638 167.524 14.3184 167.094 12.8682C164.956 12.8731 162.817 12.7895 160.684 12.9075C160.224 14.4512 159.722 15.985 159.356 17.5558C158.604 17.5656 157.854 17.5705 157.105 17.573C157.232 16.1448 157.913 14.8494 158.267 13.4728C159.31 10.0192 160.605 6.64425 161.559 3.16358C161.714 2.72603 161.777 2.21229 162.141 1.88782ZM163.592 3.53475C162.83 5.92648 162.136 8.34034 161.308 10.7075C162.992 10.7075 164.695 10.8648 166.369 10.6436C165.669 8.27888 164.966 5.91419 164.277 3.54704C164.046 3.54212 163.818 3.53967 163.592 3.53475Z" fill="#222222"></path> <path d="M175.358 1.90503C175.703 1.71821 176.079 1.57565 176.484 1.60268C178.372 1.5781 180.262 1.5609 182.153 1.59777C183.426 1.64447 184.913 2.11151 185.454 3.38235C186.11 4.84492 186.142 6.66883 185.338 8.08224C184.95 8.80492 184.131 9.04089 183.411 9.27687C184.173 9.63821 185.056 9.85698 185.646 10.4912C186.528 11.7325 186.208 13.3303 186.24 14.7535C186.28 16.3783 184.67 17.5975 183.133 17.5951C180.562 17.6787 177.984 17.659 175.412 17.5533C175.309 12.3397 175.42 7.12112 175.358 1.90503ZM177.377 3.34056C177.278 5.07352 177.357 6.80894 177.32 8.54436C178.593 8.74347 179.891 8.7238 181.177 8.66235C181.845 8.63776 182.484 8.39933 183.055 8.05274C183.937 6.80648 184.004 4.99978 182.92 3.84939C182.448 3.579 181.951 3.30861 181.393 3.31106C180.053 3.2619 178.711 3.26436 177.377 3.34056ZM177.568 10.3117C177.583 12.1135 177.576 13.9178 177.573 15.722C179.009 15.9211 180.474 15.8498 181.922 15.7958C182.883 15.7564 183.986 15.0731 183.994 14.0235C184.031 12.8509 184.244 11.3146 182.993 10.6731C181.305 9.91598 179.36 10.2232 177.568 10.3117Z" fill="#222222"></path> <path d="M194.689 2.70146C195.195 2.02056 196.058 1.74526 196.884 1.78213C198.934 1.77721 200.982 1.76738 203.032 1.77967C203.236 5.60202 203.061 9.44403 203.12 13.2737C203.051 14.7068 203.287 16.1718 202.941 17.5803C202.189 17.573 201.429 17.6049 200.694 17.4304C200.711 12.8215 200.773 8.2076 200.667 3.60112C199.662 3.57408 198.654 3.51755 197.653 3.61833C197.159 3.71174 196.587 3.84693 196.351 4.34101C196.105 5.9142 196.053 7.51196 195.825 9.0876C195.812 11.0049 195.274 12.8731 194.568 14.6405C193.878 16.2653 192.307 17.8089 190.409 17.5558C190.363 17.0224 190.343 16.4889 190.358 15.9555C191.171 15.4762 192.027 14.9231 192.425 14.021C193.389 11.9464 193.448 9.61118 193.775 7.38168C193.888 5.8085 193.661 4.03621 194.689 2.70146Z" fill="#222222"></path> <path d="M30.1756 2.15329C31.3162 1.68134 32.5846 1.97385 33.7817 1.82391C32.9705 3.41184 32.0536 4.95553 31.4317 6.63441C31.2007 7.19732 31.0089 7.79956 30.6033 8.26905C30.1584 8.46324 29.684 8.24693 29.2514 8.12894C26.8916 7.28827 24.4999 6.54101 22.0934 5.84536C21.6903 5.61184 21.2773 5.39799 20.8693 5.18168C24.0328 4.39263 27.2431 3.62078 30.1756 2.15329Z" fill="#222222"></path> <path d="M209.295 1.81899C210.025 1.77229 210.76 1.76983 211.493 1.8362C211.547 3.87888 211.468 5.91911 211.534 7.95933C213.798 8.10682 216.264 7.56604 218.326 8.77542C219.4 9.36045 219.931 10.6042 219.899 11.7915C219.862 13.0648 220.086 14.4045 219.594 15.6163C219.091 16.7962 217.839 17.5902 216.564 17.6049C214.15 17.6762 211.733 17.6467 209.322 17.5607C209.229 12.3151 209.28 7.06704 209.295 1.81899ZM211.596 9.88648C211.443 11.7497 211.52 13.6277 211.542 15.4934C211.633 15.5647 211.81 15.7048 211.901 15.7736C213.341 15.9015 214.794 15.781 216.224 15.5868C216.684 15.5204 217.163 15.2845 217.34 14.8273C217.741 13.7949 217.699 12.6371 217.549 11.558C217.431 10.6116 216.502 9.93319 215.583 9.93565C214.253 9.87174 212.923 9.94302 211.596 9.88648Z" fill="#222222"></path> <path d="M37.1837 6.04693C38.2013 4.83017 39.0568 3.47576 40.1604 2.33274C40.185 3.00872 40.0818 3.68715 39.7671 4.2943C39.219 5.35866 38.8011 6.48447 38.28 7.56358C37.899 7.0695 37.5303 6.56559 37.1837 6.04693Z" fill="#222222"></path> <path d="M44.6416 8.16335C47.638 7.63977 50.4648 6.45497 53.3924 5.661C54.968 5.31441 56.5068 6.00514 58.0087 6.38615C60.3046 6.99084 62.5488 7.83151 64.9086 8.15844C65.2085 8.27888 65.5108 8.4067 65.8083 8.53944C65.4248 8.64514 65.0364 8.69922 64.6407 8.7066C57.9718 8.70414 51.3006 8.65989 44.6317 8.72626C44.6342 8.58369 44.6391 8.30346 44.6416 8.16335Z" fill="#222222"></path> <path d="M32.56 12.3077C32.6681 12.2168 32.8845 12.0398 32.9926 11.9513C33.4916 12.4503 33.9513 12.9886 34.3667 13.5613C34.5978 13.8834 34.8214 14.2103 35.05 14.5348C34.7797 15.0927 34.4134 15.6065 33.8824 15.9457C32.2773 17.0371 30.768 18.2637 29.1236 19.3035C28.1059 19.945 27.1497 20.68 26.2378 21.4641C26.164 21.2159 26.0927 20.9651 26.0214 20.7193C27.2972 19.387 28.1698 17.7352 29.389 16.3513C30.5173 15.0608 31.3875 13.554 32.56 12.3077Z" fill="#222222"></path> <path d="M21.2085 23.6543C22.6268 23.1479 23.9222 21.9041 25.5298 22.2556C26.6286 22.6834 27.5553 23.4552 28.6074 23.9812C30.038 24.7408 31.6284 25.665 32.088 27.339C32.5944 29.2072 33.4941 30.9278 34.111 32.7567C34.5412 33.998 35.2909 35.1238 35.5294 36.434C35.6941 37.4 36.1316 38.28 36.5692 39.1453C36.8002 39.8999 37.0534 40.6496 37.4025 41.36C37.2943 42.0261 36.8076 42.562 36.1193 42.6235C34.7354 42.1835 34.4478 40.1654 32.8697 40.0941C32.8918 39.6983 32.9115 39.2977 32.7935 38.9142C31.8693 38.0022 31.2252 36.8617 30.392 35.8735C31.0237 35.4483 31.6161 34.9689 32.1397 34.4183C31.5251 33.4449 30.5689 32.7984 29.6054 32.2159C28.2681 31.2375 26.9186 30.2789 25.5323 29.3718L25.3209 29.1678C26.695 27.6807 28.7721 27.2087 30.2568 25.8666C27.3587 26.0927 24.5048 26.7466 21.6092 26.9973C20.1269 26.926 18.8217 26.0878 17.4918 25.5126C18.453 24.4458 19.9721 24.2664 21.2085 23.6543Z" fill="#222222"></path> <path d="M9.70212 42.6603C11.2188 42.4539 12.7379 42.7193 14.257 42.6947C17.4525 42.6726 20.648 42.6874 23.8436 42.6849C25.434 42.6997 27.0293 42.6013 28.6147 42.7783C27.8478 43.1077 27.0833 43.4445 26.314 43.764C24.962 44.2434 23.5707 44.6096 22.2311 45.1234C21.469 45.4134 20.6702 45.6101 19.8565 45.6715C17.8384 45.1332 15.8695 44.4105 13.8219 43.9853C12.4601 43.5158 10.909 43.501 9.70212 42.6603Z" fill="#222222"></path> <path d="M44.8702 42.5325C50.1526 42.5743 55.4351 42.5227 60.7175 42.5596C62.5316 42.5866 64.3457 42.4219 66.1598 42.535C65.3781 42.8422 64.5743 43.0905 63.7557 43.2724C60.5479 43.7567 57.5122 45.0447 54.3093 45.5461C52.5493 45.4945 50.9564 44.5777 49.2652 44.1671C47.8223 43.5625 46.1902 43.4051 44.8702 42.5325Z" fill="#222222"></path> <path d="M33.7817 1.82391C35.1066 3.06525 36.0554 4.63844 37.1837 6.04693C37.5303 6.56559 37.899 7.06949 38.28 7.56357C39.1108 8.75329 39.9663 9.92581 41.011 10.9385C41.2224 11.3073 41.4067 11.6932 41.596 12.0766C40.2268 13.8342 39.0568 15.7638 37.4713 17.337C36.493 16.5627 35.7506 15.5549 35.0501 14.5347C34.8215 14.2103 34.5978 13.8834 34.3667 13.5613C34.8141 13.8563 35.286 14.2275 35.8489 14.2299C36.2103 14.1341 36.4241 13.785 36.6994 13.554C36.0235 12.7182 35.2565 11.9587 34.3741 11.3441C33.0836 10.4223 31.8988 9.30637 30.4116 8.70167C28.8212 8.36737 27.1768 8.59352 25.5618 8.56402C20.975 8.53452 16.3882 8.54927 11.7989 8.55419C10.8476 8.56648 9.89386 8.57385 8.94995 8.45586C10.5502 7.70123 12.3618 7.6324 14.0284 7.07687C16.0539 6.60983 17.9859 5.72738 20.0753 5.56514C19.9549 5.41028 19.8344 5.25788 19.714 5.10302C20.5055 5.35128 21.2724 5.69296 22.0934 5.84536C24.4999 6.54101 26.8916 7.28827 29.2514 8.12894C29.684 8.24693 30.1584 8.46324 30.6034 8.26905C31.0089 7.79956 31.2007 7.19732 31.4317 6.63441C32.0536 4.95553 32.9705 3.41184 33.7817 1.82391Z" fill="#222222"></path> <path d="M41.9205 22.4867C43.4027 20.6407 46.1214 20.3432 48.2329 21.1495C48.8376 21.6141 49.4619 22.0442 50.2288 22.1893C51.8241 22.9021 53.4883 23.9468 55.3073 23.6322C57.2049 23.4454 59.0583 22.9685 60.9535 22.7595C62.2293 22.6022 63.5345 22.6268 64.7734 22.2433C65.447 21.9975 66.3073 22.1671 66.8137 21.5747C67.4282 20.857 68.4483 20.8373 69.3185 20.7513C71.1694 20.6038 73.3055 21.5084 73.9815 23.347C74.36 24.3278 74.773 25.4168 74.4166 26.4688C74.0749 27.9904 73.0941 29.4407 71.6242 30.0576C70.6852 30.5124 69.6085 30.4804 68.5958 30.3772C67.4921 30.242 66.7964 29.04 65.6411 29.1187C60.3906 29.1236 55.1377 29.1211 49.8872 29.1162C48.8449 29.067 48.1542 30.0306 47.1783 30.2469C45.9812 30.5001 44.6588 30.4559 43.5453 29.9151C42.8447 29.421 42.2548 28.7819 41.6992 28.1354C40.6324 26.4221 40.7873 24.1263 41.9205 22.4867Z" fill="#222222"></path> <path d="M93.6512 26.5671C94.4943 26.282 95.4702 26.4098 96.36 26.2402C98.9533 26.137 101.579 26.0362 104.147 26.4836C105.575 27.0858 106.967 27.9781 107.842 29.2883C108.889 31.0507 109.312 33.118 109.336 35.1533C109.604 37.6507 109.435 40.1654 109.199 42.6579C108.877 44.9365 107.898 47.3209 105.846 48.5524C104.157 49.4742 102.208 49.8724 100.291 49.7667C97.9529 49.6905 95.4505 50.0076 93.2898 48.9211C93.3046 47.9551 93.2063 46.962 93.5012 46.0279C93.7593 45.6838 94.2657 45.905 94.632 45.8731C95.775 46.0255 96.9254 46.1164 98.0782 46.0869C99.8333 46.082 101.763 46.2909 103.312 45.2905C103.958 44.6907 104.351 43.8673 104.732 43.0856C105.116 41.768 105.108 40.3718 105.049 39.015C101.937 38.9314 98.823 38.9904 95.7111 38.9879C95.7111 37.9039 95.716 36.8199 95.7111 35.7359C98.8107 35.7014 101.915 35.8293 105.01 35.6793C105.194 34.0693 104.759 32.4223 103.84 31.0974C103.243 30.4509 102.444 29.8954 101.532 29.8905C98.8796 29.7651 96.2199 29.9446 93.5676 29.8487C93.6217 28.7721 93.1546 27.5553 93.6512 26.5671Z" fill="#222222"></path> <path d="M128.886 26.4025C130.282 26.4344 131.678 26.3754 133.077 26.4516C133.163 34.0619 133.03 41.6771 133.143 49.2874C131.715 49.2653 130.277 49.3931 128.859 49.1915C128.797 45.7748 129.016 42.3432 128.745 38.9363C125.766 38.9511 122.785 38.9584 119.805 38.9363C119.783 42.3703 119.852 45.8067 119.778 49.2382C118.434 49.3021 117.079 49.3759 115.742 49.2013C115.58 42.1441 115.732 35.0771 115.659 28.0174C115.7 27.4865 115.521 26.545 116.283 26.486C117.335 26.4098 118.402 26.3975 119.454 26.5008C119.943 26.5549 119.761 27.1915 119.823 27.5258C119.796 30.1437 119.813 32.7616 119.8 35.3794C121.479 35.6203 123.183 35.4384 124.872 35.495C126.174 35.4679 127.487 35.581 128.785 35.4139C128.984 32.415 128.775 29.4038 128.886 26.4025Z" fill="#222222"></path> <path d="M140.621 28.0248C141.456 27.0416 142.715 26.3435 144.032 26.4074C147.152 26.3975 150.271 26.4172 153.388 26.4221C153.865 26.4 154.329 26.5205 154.752 26.7392C154.742 27.7913 154.779 28.8532 154.558 29.888C151.793 29.8635 149.025 29.8807 146.257 29.8684C145.623 29.8561 144.993 29.9323 144.377 30.065C143.976 31.9135 144.17 33.8284 144.202 35.7064C147.238 35.7875 150.278 35.7334 153.314 35.7285C153.425 36.7806 153.417 37.8375 153.344 38.8921C150.278 39.0395 147.206 38.9265 144.138 38.9437C143.905 40.9397 143.932 42.9651 144.141 44.9636C144.128 45.6543 144.89 46.05 145.502 46.0599C148.57 46.1238 151.64 46.0058 154.708 46.109C154.762 47.1193 154.792 48.1321 154.806 49.1423C151.965 49.4029 149.106 49.2677 146.257 49.3144C144.844 49.2652 143.356 49.484 142.012 48.9408C140.965 48.309 139.91 47.2938 139.967 45.9689C139.91 40.9716 139.967 35.9718 139.94 30.9721C139.922 29.9618 139.952 28.8507 140.621 28.0248Z" fill="#222222"></path> <path d="M206.574 26.4221C208.73 26.0313 210.947 26.1272 213.125 26.2427C215.121 26.3386 217.122 27.3242 218.186 29.0572C218.498 29.7111 218.852 30.3477 219.152 31.0114C220.086 34.1922 219.892 37.5352 219.862 40.8118C219.72 42.0704 219.484 43.324 219.272 44.5727C218.636 46.2025 217.589 47.7142 216.146 48.7269C214.885 49.2972 213.533 49.7765 212.132 49.7593C210.652 49.7618 209.167 49.8134 207.692 49.6979C205.362 49.3193 203.155 47.8813 202.098 45.7379C200.962 43.2699 201.191 40.4923 201.004 37.8548C201.107 35.7777 201.08 33.6661 201.554 31.6308C202.179 29.2047 203.936 26.7859 206.574 26.4221ZM209.261 29.7504C208.545 29.8586 207.788 29.9987 207.24 30.505C206.259 31.2523 205.886 32.5108 205.691 33.676C205.305 36.7683 205.119 39.9761 205.937 43.0168C206.24 43.9263 206.554 44.9611 207.385 45.5314C209.278 46.554 211.768 46.6007 213.624 45.4675C215.123 44.2163 215.344 42.1368 215.43 40.3104C215.475 37.8867 215.571 35.4409 215.15 33.0393C214.924 31.7341 214.015 30.5591 212.817 30.006C211.665 29.7062 210.443 29.5316 209.261 29.7504Z" fill="#222222"></path> <path d="M160.826 26.5475C162.021 26.3385 163.238 26.4098 164.447 26.3926C166.905 26.3926 169.363 26.3558 171.821 26.4049C172.981 26.3975 174.092 26.8695 175.049 27.4963C176.494 28.6786 176.892 30.6599 176.922 32.4371C176.924 34.4503 177.111 36.6134 176.084 38.4348C175.43 39.8728 173.825 40.6299 172.313 40.7258C170.845 40.9126 169.363 40.9372 167.888 40.8807C166.922 40.8389 165.951 40.5931 164.99 40.7971C164.626 43.587 165.214 46.3942 164.904 49.1866C163.552 49.3586 162.163 49.3709 160.816 49.1817C160.829 41.6353 160.821 34.0914 160.826 26.5475ZM165.015 29.7455C164.86 32.2822 164.801 34.8313 164.983 37.3656C166.023 37.5401 167.082 37.4565 168.134 37.4713C169.221 37.4664 170.337 37.4836 171.379 37.1321C172.35 36.7683 172.635 35.5933 172.689 34.6641C172.694 33.3957 172.819 32.0782 172.394 30.8614C171.743 29.8635 170.469 29.6324 169.363 29.6398C167.913 29.6521 166.455 29.5734 165.015 29.7455Z" fill="#222222"></path> <path d="M183.077 29.3989C183.637 27.6561 185.456 26.2992 187.307 26.4344C190.572 26.4565 193.838 26.3484 197.093 26.6384C197.088 27.7077 197.073 28.777 196.992 29.8463C194.087 29.9446 191.176 29.7995 188.271 29.9102C187.452 29.8807 186.897 30.7066 186.946 31.4612C186.956 37.1173 186.948 42.7759 186.956 48.4319C186.926 48.7835 187.037 49.3488 186.531 49.3955C185.343 49.602 184.139 49.2554 182.942 49.3316C182.875 48.7048 182.819 48.0731 182.826 47.4413C182.843 43.6731 182.824 39.9048 182.838 36.1341C182.851 33.8898 182.747 31.6284 183.077 29.3989Z" fill="#222222"></path> <path d="M26.314 43.764C27.8282 43.6141 29.1531 42.7513 30.6599 42.6112C31.8521 44.853 32.9238 47.1587 34.0447 49.4349C32.1225 49.3218 30.1978 49.4226 28.2731 49.3759C27.3857 49.3316 26.4541 49.2751 25.6552 48.8474C25.1882 48.6335 25.5937 48.0952 25.611 47.7339C23.9296 46.667 21.9656 46.2344 20.0655 45.728L19.8565 45.6715C20.6702 45.6101 21.4691 45.4134 22.2311 45.1234C23.5707 44.6096 24.962 44.2434 26.314 43.764Z" fill="#222222"></path> <path d="M35.8883 43.3388C36.402 43.9189 36.901 44.5137 37.3902 45.116C36.343 46.2049 35.5712 47.5175 34.5339 48.6138C34.2241 48.1001 34.6125 47.5692 34.7797 47.0849C35.318 45.8927 35.7285 44.6391 35.8883 43.3388Z" fill="#222222"></path> </svg> 